SplineFontDB: 3.0
FontName: CimaticsFull_Regular
FullName: CimaticsFull Regular
FamilyName: Cimatics
Weight: Regular
Copyright: Created by Ludi and Ivan - O S P (http://ospublish.constantvzw.org) with FontForge 2.0 (http://fontforge.sf.net).\nThis font was designed in July 2009, for the graphic identity of Cimatics A\\V Platform (http://www.cimatics.com). It gathers glyphs from FreeSerif, FreeSerifItalic, DejaVuSans, DejaVuSerif, the OSP_frog mascot, the Cimatics two piece heart, a baronchon_palm_tree from Open Clip Art Library (www.openclipart.org) and private use dingbats drawned for Cimatics (CimaticsScaredEye, CimaticsWhitePentagon).
UComments: "2009-9-8: Created." 
Version: 1
ItalicAngle: 0
UnderlinePosition: -100
UnderlineWidth: 50
Ascent: 800
Descent: 200
LayerCount: 2
Layer: 0 0 "Back" 
Layer: 1 0 "Fore" 
NeedsXUIDChange: 1
XUID: [1021 179 886990652 4234266]
FSType: 0
OS2Version: 0
OS2_WeightWidthSlopeOnly: 0
OS2_UseTypoMetrics: 1
CreationTime: 1252396920
ModificationTime: 1255342193
PfmFamily: 81
TTFWeight: 400
TTFWidth: 5
LineGap: 90
VLineGap: 0
Panose: 5 0 6 0 8 0 0 0 0 0
OS2TypoAscent: 0
OS2TypoAOffset: 1
OS2TypoDescent: 0
OS2TypoDOffset: 1
OS2TypoLinegap: 90
OS2WinAscent: 0
OS2WinAOffset: 1
OS2WinDescent: 0
OS2WinDOffset: 1
HheadAscent: 0
HheadAOffset: 1
HheadDescent: 0
HheadDOffset: 1
OS2SubXSize: 0
OS2SubYSize: 0
OS2SubXOff: -30683
OS2SubYOff: 32693
OS2SupXSize: -11920
OS2SupYSize: 0
OS2SupXOff: -26800
OS2SupYOff: 32767
OS2StrikeYSize: 0
OS2StrikeYPos: 32767
OS2Vendor: 'PfEd'
DEI: 0
LangName: 1033 "" "" "" "" "" "" "" "" "" "" "" "" "http://ospublish.constantvzw.org" "SIL Open Font License, Version 1.1" "http://scripts.sil.org/OFL" 
Encoding: UnicodeFull
UnicodeInterp: none
NameList: Adobe Glyph List
DisplaySize: -48
AntiAlias: 1
FitToEm: 1
WinInfo: 8203 13 10
BeginChars: 1114112 725

StartChar: less
Encoding: 60 60 0
Width: 938
Flags: HW
LayerCount: 2
Fore
SplineSet
150 87 m 0
 181.333 87 209.667 95 235 111 c 128
 260.333 127 284.333 150.833 307 182.5 c 128
 329.667 214.167 354.333 253.333 381 300 c 2
 470 463 l 1
 479 463 l 1
 470 213 l 1
 569 423 l 1
 577 423 l 1
 574 222 l 1
 672 399 l 1
 676 239 l 1
 747 365 l 1
 766 280 l 2
 772.667 250 784.333 235 801 235 c 0
 810.333 235 819.667 238.667 829 246 c 2
 869 279 l 1
 892 265 l 1
 885.333 259.667 876.333 252 865 242 c 128
 853.667 232 845.667 225.5 841 222.5 c 128
 836.333 219.5 829.167 216 819.5 212 c 128
 809.833 208 799 205.667 787 205 c 0
 771 205 760 210.5 754 221.5 c 128
 748 232.5 740.667 255.333 732 290 c 1
 654 155 l 1
 650 309 l 1
 549 122 l 1
 549 322 l 1
 447 105 l 1
 439 105 l 1
 447 365 l 1
 386 254 l 1
 332 170 l 1
 274 105 l 1
 214 70 l 1
 141 56 l 1
 93.6667 56 59.6667 71.3333 39 102 c 128
 18.3333 132.667 8 167.333 8 206 c 128
 8 244.667 17.3333 286.5 36 331.5 c 128
 54.6667 376.5 82.5 416.167 119.5 450.5 c 128
 156.5 484.833 197 502 241 502 c 0
 274.333 502 300 492.667 318 474 c 128
 336 455.333 345 429.333 345 396 c 0
 345 349.333 328.833 301.833 296.5 253.5 c 128
 264.167 205.167 225.333 180.667 180 180 c 0
 157.333 180 141 188.167 131 204.5 c 128
 121 220.833 116 238.333 116 257 c 0
 116 282.333 124.333 303.833 141 321.5 c 128
 157.667 339.167 174.333 348 191 348 c 0
 214.333 348 226 332 226 300 c 0
 226 279.333 218.5 260.667 203.5 244 c 128
 188.5 227.333 174 219 160 219 c 2
 157 219 l 1
 165 213 176 210 190 210 c 0
 219.333 210 247.333 230.5 274 271.5 c 128
 300.667 312.5 314 351.333 314 388 c 0
 314 413.333 307 433.5 293 448.5 c 128
 279 463.5 259 471 233 471 c 0
 185 471 140.667 443 100 387 c 128
 59.3333 331 39 274.667 39 218 c 0
 39 196.667 41.8333 176.833 47.5 158.5 c 128
 53.1667 140.167 64.8333 123.667 82.5 109 c 128
 100.167 94.3333 122.667 87 150 87 c 0
181 320 m 0
 170.333 320 161.167 313.5 153.5 300.5 c 128
 145.833 287.5 142 274.667 142 262 c 0
 142 248.667 148 242 160 242 c 2
 163 242 l 2
 171.667 242 179.667 247.667 187 259 c 128
 194.333 270.333 198 282.667 198 296 c 0
 198 312 192.333 320 181 320 c 0
EndSplineSet
Validated: 1
EndChar

StartChar: exclam
Encoding: 33 33 1
Width: 605
Flags: HW
LayerCount: 2
Fore
SplineSet
464 0 m 1
 394 0 l 1
 84 739 l 1
 154 739 l 1
 464 0 l 1
EndSplineSet
Validated: 1
EndChar

StartChar: quotedbl
Encoding: 34 34 2
Width: 1005
Flags: HW
LayerCount: 2
Fore
SplineSet
584 560 m 1
 553 560 l 1
 551 573.333 546 583 538 589 c 0
 529.333 595.667 517.333 599 502 599 c 0
 487.333 599 475.833 595.833 467.5 589.5 c 128
 459.167 583.167 453.667 573.333 451 560 c 1
 420 560 l 1
 422 584.667 429.833 603.333 443.5 616 c 128
 457.167 628.667 476.667 635 502 635 c 128
 527.333 635 546.833 628.667 560.5 616 c 128
 574.167 603.333 582 584.667 584 560 c 1
797 485 m 1
 766 485 l 1
 764 497.667 758.667 507.333 750 514 c 0
 742 520.667 730.333 524 715 524 c 0
 700.333 524 688.667 520.833 680 514.5 c 128
 671.333 508.167 666 498.333 664 485 c 1
 633 485 l 1
 635 509.667 642.833 528.333 656.5 541 c 128
 670.167 553.667 689.667 560 715 560 c 128
 740.333 560 759.833 553.667 773.5 541 c 128
 787.167 528.333 795 509.667 797 485 c 1
371 485 m 1
 340 485 l 1
 338.667 497.667 333.667 507.333 325 514 c 128
 316.333 520.667 304.333 524 289 524 c 0
 274.333 524 262.833 520.833 254.5 514.5 c 128
 246.167 508.167 241 498.333 239 485 c 1
 208 485 l 1
 209.333 509.667 217 528.333 231 541 c 128
 245 553.667 264.5 560 289.5 560 c 128
 314.5 560 334 553.667 348 541 c 128
 362 528.333 369.667 509.667 371 485 c 1
797 121 m 1
 766 121 l 1
 764 133.667 758.667 143.333 750 150 c 0
 742 156.667 730.333 160 715 160 c 0
 700.333 160 688.667 156.833 680 150.5 c 128
 671.333 144.167 666 134.333 664 121 c 1
 633 121 l 1
 635 145.667 642.833 164.333 656.5 177 c 128
 670.167 189.667 689.667 196 715 196 c 128
 740.333 196 759.833 189.667 773.5 177 c 128
 787.167 164.333 795 145.667 797 121 c 1
371 121 m 1
 340 121 l 1
 338.667 133.667 333.667 143.333 325 150 c 128
 316.333 156.667 304.333 160 289 160 c 0
 274.333 160 262.833 156.833 254.5 150.5 c 128
 246.167 144.167 241 134.333 239 121 c 1
 208 121 l 1
 209.333 145.667 217 164.333 231 177 c 128
 245 189.667 264.5 196 289.5 196 c 128
 314.5 196 334 189.667 348 177 c 128
 362 164.333 369.667 145.667 371 121 c 1
885 303 m 1
 854 303 l 1
 852 315.667 846.667 325.333 838 332 c 0
 830 338.667 818.333 342 803 342 c 0
 788.333 342 776.833 338.833 768.5 332.5 c 128
 760.167 326.167 754.667 316.333 752 303 c 1
 721 303 l 1
 723 327.667 730.833 346.333 744.5 359 c 128
 758.167 371.667 777.667 378 803 378 c 128
 828.333 378 847.833 371.667 861.5 359 c 128
 875.167 346.333 883 327.667 885 303 c 1
283 303 m 1
 252 303 l 1
 250 315.667 245 325.333 237 332 c 0
 228.333 338.667 216.333 342 201 342 c 0
 186.333 342 174.833 338.833 166.5 332.5 c 128
 158.167 326.167 152.667 316.333 150 303 c 1
 120 303 l 1
 121.333 327.667 128.833 346.333 142.5 359 c 128
 156.167 371.667 175.667 378 201 378 c 128
 226.333 378 246 371.667 260 359 c 128
 274 346.333 281.667 327.667 283 303 c 1
584 45 m 1
 553 45 l 1
 551 58.3333 546 68.3333 538 75 c 0
 529.333 81 517.333 84 502 84 c 0
 487.333 84 475.833 80.8333 467.5 74.5 c 128
 459.167 68.1667 453.667 58.3333 451 45 c 1
 420 45 l 1
 422 70.3333 429.833 89.1667 443.5 101.5 c 128
 457.167 113.833 476.667 120 502 120 c 128
 527.333 120 546.833 113.833 560.5 101.5 c 128
 574.167 89.1667 582 70.3333 584 45 c 1
EndSplineSet
Validated: 33
EndChar

StartChar: numbersign
Encoding: 35 35 3
Width: 938
Flags: HW
LayerCount: 2
Fore
SplineSet
150 87 m 0
 181.333 87 209.667 95 235 111 c 128
 260.333 127 284.333 150.833 307 182.5 c 128
 329.667 214.167 354.333 253.333 381 300 c 2
 470 463 l 1
 479 463 l 1
 470 213 l 1
 569 423 l 1
 577 423 l 1
 574 222 l 1
 672 399 l 1
 676 239 l 1
 747 365 l 1
 766 280 l 2
 772.667 250 784.333 235 801 235 c 0
 810.333 235 819.667 238.667 829 246 c 2
 869 279 l 1
 892 265 l 1
 885.333 259.667 876.333 252 865 242 c 128
 853.667 232 845.667 225.5 841 222.5 c 128
 836.333 219.5 829.167 216 819.5 212 c 128
 809.833 208 799 205.667 787 205 c 0
 771 205 760 210.5 754 221.5 c 128
 748 232.5 740.667 255.333 732 290 c 1
 654 155 l 1
 650 309 l 1
 549 122 l 1
 549 322 l 1
 447 105 l 1
 439 105 l 1
 447 365 l 1
 386 254 l 1
 332 170 l 1
 274 105 l 1
 214 70 l 1
 141 56 l 1
 93.6667 56 59.6667 71.3333 39 102 c 128
 18.3333 132.667 8 167.333 8 206 c 128
 8 244.667 17.3333 286.5 36 331.5 c 128
 54.6667 376.5 82.5 416.167 119.5 450.5 c 128
 156.5 484.833 197 502 241 502 c 0
 274.333 502 300 492.667 318 474 c 128
 336 455.333 345 429.333 345 396 c 0
 345 349.333 328.833 301.833 296.5 253.5 c 128
 264.167 205.167 225.333 180.667 180 180 c 0
 157.333 180 141 188.167 131 204.5 c 128
 121 220.833 116 238.333 116 257 c 0
 116 282.333 124.333 303.833 141 321.5 c 128
 157.667 339.167 174.333 348 191 348 c 0
 214.333 348 226 332 226 300 c 0
 226 279.333 218.5 260.667 203.5 244 c 128
 188.5 227.333 174 219 160 219 c 2
 157 219 l 1
 165 213 176 210 190 210 c 0
 219.333 210 247.333 230.5 274 271.5 c 128
 300.667 312.5 314 351.333 314 388 c 0
 314 413.333 307 433.5 293 448.5 c 128
 279 463.5 259 471 233 471 c 0
 185 471 140.667 443 100 387 c 128
 59.3333 331 39 274.667 39 218 c 0
 39 196.667 41.8333 176.833 47.5 158.5 c 128
 53.1667 140.167 64.8333 123.667 82.5 109 c 128
 100.167 94.3333 122.667 87 150 87 c 0
181 320 m 0
 170.333 320 161.167 313.5 153.5 300.5 c 128
 145.833 287.5 142 274.667 142 262 c 0
 142 248.667 148 242 160 242 c 2
 163 242 l 2
 171.667 242 179.667 247.667 187 259 c 128
 194.333 270.333 198 282.667 198 296 c 0
 198 312 192.333 320 181 320 c 0
EndSplineSet
Validated: 1
EndChar

StartChar: dollar
Encoding: 36 36 4
Width: 810
Flags: HW
LayerCount: 2
Fore
SplineSet
790 186 m 2
 790 94 774.833 32.8333 744.5 2.5 c 128
 714.167 -27.8333 653 -43 561 -43 c 2
 249 -43 l 2
 157 -43 95.8333 -27.8333 65.5 2.5 c 128
 35.1667 32.8333 20 94 20 186 c 2
 20 250 l 2
 20 338 33.1667 397.333 59.5 428 c 128
 85.8333 458.667 136.333 475.333 211 478 c 1
 211 534 l 1
 392 715 l 1
 599 715 l 1
 599 478 l 1
 673.667 475.333 724.167 458.5 750.5 427.5 c 128
 776.833 396.5 790 337.333 790 250 c 2
 790 186 l 2
386 541 m 1
 386 652 l 1
 274 541 l 1
 386 541 l 1
559 177 m 1
 559 675 l 1
 426 675 l 1
 426 501 l 1
 251 501 l 1
 251 177 l 1
 559 177 l 1
750 186 m 2
 750 250 l 2
 750 326.667 740.333 376.667 721 400 c 128
 701.667 423.333 661 436 599 438 c 1
 599 137 l 1
 211 137 l 1
 211 438 l 1
 148.333 436 107.5 423.333 88.5 400 c 128
 69.5 376.667 60 326.667 60 250 c 2
 60 186 l 2
 60 105.333 71.5 53.6667 94.5 31 c 128
 117.5 8.33333 169 -3 249 -3 c 2
 561 -3 l 2
 641.667 -3 693.333 8.5 716 31.5 c 128
 738.667 54.5 750 106 750 186 c 2
EndSplineSet
Validated: 1
EndChar

StartChar: percent
Encoding: 37 37 5
Width: 809
Flags: HW
LayerCount: 2
Fore
SplineSet
694 293 m 1
 115 293 l 1
 404 615 l 1
 694 293 l 1
694 0 m 1
 115 0 l 1
 115 189 l 1
 694 189 l 1
 694 0 l 1
EndSplineSet
Validated: 1
EndChar

StartChar: ampersand
Encoding: 38 38 6
Width: 761
Flags: HW
LayerCount: 2
Fore
SplineSet
761 -200 m 1
 0 -200 l 1
 0 -75 l 1
 761 -75 l 1
 761 -200 l 1
EndSplineSet
Validated: 1
EndChar

StartChar: quotesingle
Encoding: 39 39 7
Width: 761
Flags: HW
LayerCount: 2
Fore
SplineSet
761 -200 m 1
 0 -200 l 1
 0 175 l 1
 761 175 l 1
 761 -200 l 1
EndSplineSet
Validated: 1
EndChar

StartChar: parenleft
Encoding: 40 40 8
Width: 761
Flags: HW
LayerCount: 2
Fore
SplineSet
761 -200 m 1
 0 -200 l 1
 0 425 l 1
 761 425 l 1
 761 -200 l 1
EndSplineSet
Validated: 1
EndChar

StartChar: parenright
Encoding: 41 41 9
Width: 775
Flags: HW
LayerCount: 2
Fore
SplineSet
89 -27 m 1
 686 -27 l 1
 387 571 l 1
 89 -27 l 1
6 -83 m 1
 387 683 l 1
 769 -83 l 1
 6 -83 l 1
EndSplineSet
Validated: 1
EndChar

StartChar: asterisk
Encoding: 42 42 10
Width: 514
Flags: HW
LayerCount: 2
Fore
SplineSet
9 51 m 1
 9 549 l 1
 505 300 l 1
 9 51 l 1
EndSplineSet
Validated: 1
EndChar

StartChar: plus
Encoding: 43 43 11
Width: 560
Flags: HW
LayerCount: 2
Fore
SplineSet
405 175 m 1
 342 175 l 1
 342 112 l 1
 218 112 l 1
 218 175 l 1
 342 175 l 1
 342 238 l 1
 405 238 l 1
 405 175 l 1
218 300 m 1
 155 300 l 1
 155 362 l 1
 218 362 l 1
 218 300 l 1
405 300 m 1
 342 300 l 1
 342 362 l 1
 405 362 l 1
 405 300 l 1
155 50 m 1
 405 50 l 1
 405 -12 l 1
 155 -12 l 1
 155 50 l 1
155 50 m 1
 92 50 l 1
 92 112 l 1
 155 112 l 1
 155 50 l 1
405 50 m 1
 405 112 l 1
 468 112 l 1
 468 50 l 1
 405 50 l 1
92 112 m 1
 30 112 l 1
 30 175 l 1
 30 238 l 1
 30 300 l 1
 30 362 l 1
 30 425 l 1
 92 425 l 1
 92 362 l 1
 92 300 l 1
 92 238 l 1
 92 175 l 1
 92 112 l 1
468 112 m 1
 468 175 l 1
 468 238 l 1
 468 300 l 1
 468 362 l 1
 468 425 l 1
 530 425 l 1
 530 362 l 1
 530 300 l 1
 530 238 l 1
 530 175 l 1
 530 112 l 1
 468 112 l 1
218 175 m 1
 155 175 l 1
 155 238 l 1
 218 238 l 1
 218 175 l 1
92 425 m 1
 92 488 l 1
 155 488 l 1
 155 425 l 1
 92 425 l 1
468 425 m 1
 405 425 l 1
 405 488 l 1
 468 488 l 1
 468 425 l 1
155 488 m 1
 155 550 l 1
 405 550 l 1
 405 488 l 1
 155 488 l 1
EndSplineSet
Validated: 5
EndChar

StartChar: comma
Encoding: 44 44 12
Width: 976
Flags: HW
LayerCount: 2
Fore
SplineSet
281 791 m 1
 282 791 l 1
 272.667 723.667 253 690 223 690 c 2
 220 690 l 1
 201.333 693.333 192 700.667 192 712 c 2
 192 713 l 2
 192 731 221.667 757 281 791 c 1
484 914 m 1
 484 914 l 1
 474.667 846.667 455 813 425 813 c 2
 422 813 l 1
 403.333 815.667 394 822.667 394 834 c 2
 394 835 l 2
 394 853 424 879.333 484 914 c 1
659 973 m 1
 660 973 l 1
 650.667 905.667 631 872 601 872 c 2
 598 872 l 2
 578.667 874.667 569 881.667 569 893 c 2
 569 895 l 2
 569 912.333 599 938.333 659 973 c 1
690 831 m 1
 692 831 l 1
 682 763.667 662 730 632 730 c 2
 629 730 l 1
 610.333 732.667 601 739.667 601 751 c 2
 601 752 l 2
 601 770 630.667 796.333 690 831 c 1
866 933 m 1
 867 933 l 1
 857.667 866.333 838 833 808 833 c 2
 805 833 l 2
 785.667 835 776 842 776 854 c 2
 776 855 l 2
 776 873 806 899 866 933 c 1
920 831 m 1
 921 831 l 1
 911.667 763.667 892 730 862 730 c 2
 858 730 l 2
 840 732 831 739 831 751 c 2
 831 752 l 2
 831 770 860.667 796.333 920 831 c 1
875 664 m 1
 877 664 l 1
 867 596.667 847 563 817 563 c 2
 814 563 l 1
 795.333 566.333 786 573.667 786 585 c 2
 786 586 l 2
 786 604 815.667 630 875 664 c 1
494 689 m 1
 523 689 l 1
 525 686 l 1
 525 632 l 1
 526 632 l 2
 669.333 632 786.667 561.667 878 421 c 0
 892 395.667 899 381.333 899 378 c 2
 899 374 l 1
 898 374 l 1
 890.667 378.667 884 387.667 878 401 c 1
 866.667 407.667 851.667 411 833 411 c 2
 812 411 l 2
 762.667 411 720 396.333 684 367 c 1
 684 345 l 2
 684 341 682.667 338.667 680 338 c 1
 664 366 l 1
 614.667 384 568 393 524 393 c 1
 524 95 l 2
 524 65.6667 506.667 47.6667 472 41 c 2
 457 40 l 2
 427.667 40 407 54 395 82 c 1
 394 94 l 1
 394 105 l 1
 397 108 l 1
 418 108 l 1
 420 105 l 1
 420 100 l 2
 423.333 70.6667 435.333 56 456 56 c 2
 461 56 l 2
 478.333 56 490.333 64.3333 497 81 c 1
 500 99 l 1
 500 393 l 1
 431.333 393 383 384 355 366 c 1
 349.667 350 344.667 342 340 342 c 1
 337 344 l 1
 337 349 l 1
 340 372 l 1
 338 372 l 1
 316 390 273 403 209 411 c 2
 176 411 l 2
 144 411 122.333 402 111 384 c 1
 102 377 l 1
 100 377 l 1
 100 378 l 1
 119.333 419.333 160 471.667 222 535 c 0
 300 599.667 389.667 632 491 632 c 1
 491 686 l 1
 494 689 l 1
EndSplineSet
Validated: 5
EndChar

StartChar: hyphen
Encoding: 45 45 13
Width: 1123
Flags: HW
LayerCount: 2
Fore
SplineSet
581 442 m 1
 581 454 l 2
 581 463.333 582.167 474.833 584.5 488.5 c 128
 586.833 502.167 589.667 517.333 593 534 c 128
 596.333 550.667 602.667 567.333 612 584 c 128
 621.333 600.667 632.5 616 645.5 630 c 128
 658.5 644 676 655.167 698 663.5 c 128
 720 671.833 744.667 676 772 676 c 0
 795.333 676 817.167 671.833 837.5 663.5 c 128
 857.833 655.167 875.5 643.833 890.5 629.5 c 128
 905.5 615.167 917.5 597.833 926.5 577.5 c 128
 935.5 557.167 940.833 536 942.5 514 c 128
 944.167 492 941 468 933 442 c 128
 925 416 912 390.667 894 366 c 2
 581 -47 l 1
 581 442 l 1
542 442 m 1
 542 -47 l 1
 229 366 l 2
 211 390.667 198 416 190 442 c 128
 182 468 178.833 492 180.5 514 c 128
 182.167 536 187.5 557.167 196.5 577.5 c 128
 205.5 597.833 217.5 615.167 232.5 629.5 c 128
 247.5 643.833 265.333 655.167 286 663.5 c 128
 306.667 671.833 328.333 676 351 676 c 0
 378.333 676 403 671.833 425 663.5 c 128
 447 655.167 464.5 644 477.5 630 c 128
 490.5 616 501.667 600.667 511 584 c 128
 520.333 567.333 526.833 550.667 530.5 534 c 128
 534.167 517.333 537 502.167 539 488.5 c 128
 541 474.833 542 463.333 542 454 c 2
 542 442 l 1
EndSplineSet
Validated: 33
EndChar

StartChar: period
Encoding: 46 46 14
Width: 826
Flags: HW
LayerCount: 2
Fore
SplineSet
656 747 m 5
 395 435 l 5
 626 354 l 5
 170 -54 l 5
 461 324 l 5
 236 411 l 5
 656 747 l 5
EndSplineSet
Validated: 1
EndChar

StartChar: slash
Encoding: 47 47 15
Width: 791
Flags: HW
LayerCount: 2
Fore
SplineSet
376 282 m 0
 376 294 371.167 301.333 361.5 304 c 128
 351.833 306.667 330.333 308.333 297 309 c 0
 283.667 309 238.667 313 162 321 c 1
 88 222 l 1
 37 215 l 1
 70 333 l 1
 35 347 l 1
 70 358 l 1
 37 476 l 1
 88 469 l 1
 162 370 l 1
 198 374 l 2
 214 374.667 232.167 376.167 252.5 378.5 c 128
 272.833 380.833 290.667 382 306 382 c 2
 339 383 l 2
 363.667 383.667 376 392.333 376 409 c 0
 376 410.333 376.167 412.5 376.5 415.5 c 128
 376.833 418.5 377 421.333 377 424 c 0
 377 442 369 469.667 353 507 c 2
 266 705 l 1
 303 705 l 2
 312.333 705 319.333 703.333 324 700 c 128
 328.667 696.667 335.333 689 344 677 c 2
 383 622 l 1
 444 622 l 2
 446.667 622 449.333 620.333 452 617 c 128
 454.667 613.667 456 610 456 606 c 0
 456 601.333 454.833 597.333 452.5 594 c 128
 450.167 590.667 447.333 589 444 589 c 2
 411 589 l 1
 460 519 l 1
 520 519 l 2
 522.667 519 525.333 517.333 528 514 c 128
 530.667 510.667 532 507 532 503 c 0
 532 498.333 530.667 494.167 528 490.5 c 128
 525.333 486.833 522.333 485 519 485 c 2
 488 485 l 1
 562 386 l 1
 571 385 l 1
 641 382 l 2
 721 378.667 761 367 761 347 c 0
 761 333 745.5 323.167 714.5 317.5 c 128
 683.5 311.833 632.667 307.667 562 305 c 1
 488 206 l 1
 519 206 l 2
 522.333 206 525.333 204.167 528 200.5 c 128
 530.667 196.833 532 193 532 189 c 0
 532 184.333 530.833 180.333 528.5 177 c 128
 526.167 173.667 523.333 172 520 172 c 2
 460 172 l 1
 411 102 l 1
 444 102 l 2
 447.333 102 450.167 100.333 452.5 97 c 128
 454.833 93.6667 456 89.6667 456 85 c 0
 456 81 454.667 77.3333 452 74 c 128
 449.333 70.6667 446.667 69 444 69 c 2
 383 69 l 1
 344 14 l 2
 335.333 2.66667 328.5 -4.66667 323.5 -8 c 128
 318.5 -11.3333 311.667 -13 303 -13 c 2
 266 -13 l 1
 353 184 l 1
 368.333 242.667 376 275.333 376 282 c 0
EndSplineSet
Validated: 1
EndChar

StartChar: zero
Encoding: 48 48 16
Width: 1351
Flags: HW
LayerCount: 2
Fore
SplineSet
435 405 m 0
 435 423 441 440 453 456 c 1
 461 458 467.667 464 473 474 c 2
 498 520 l 2
 502.667 527.333 512.333 535 527 543 c 1
 529 543 l 1
 531 543 l 1
 522.333 558.333 511.333 586.333 498 627 c 0
 488.667 657 480.667 677.667 474 689 c 0
 462.667 708.333 457 724 457 736 c 0
 457 744.667 461 753.333 469 762 c 0
 477.667 772.667 487.667 778 499 778 c 0
 504.333 778 510 777.333 516 776 c 0
 531.333 772 542 765.667 548 757 c 0
 572 721 596 672.667 620 612 c 2
 639 565 l 2
 643.667 553 648.333 543.667 653 537 c 1
 659 542.333 663 555.333 665 576 c 0
 667 590 669.667 602 673 612 c 0
 674.333 617.333 677 642 681 686 c 0
 682.333 704.667 683 715 683 717 c 2
 683 727 l 1
 682.333 729 682 731 682 733 c 0
 682 745 687.333 756.333 698 767 c 0
 706.667 777 717.667 782 731 782 c 0
 749 782 762.667 772.333 772 753 c 0
 776 744.333 778.333 737.333 779 732 c 0
 782.333 693.333 784 660.667 784 634 c 0
 784 627.333 783.667 621 783 615 c 2
 779 468 l 1
 779 461 l 2
 779 453 779.333 444.333 780 435 c 2
 781 424 l 2
 782.333 412 783 391.667 783 363 c 0
 783 351.667 782.667 339 782 325 c 2
 784 264 l 2
 784 256 780.333 229.667 773 185 c 0
 772.333 179 772 153 772 107 c 2
 772 40 l 1
 506 40 l 1
 506 129 l 2
 506 135 505 143.333 503 154 c 0
 500.333 171.333 493 191 481 213 c 0
 465 241.667 457 262.333 457 275 c 0
 457 301 452.667 328.333 444 357 c 0
 438 376.333 435 392.333 435 405 c 0
751 725 m 2
 750.333 743.667 743.667 753 731 753 c 0
 719.667 753 713.333 741.667 712 719 c 2
 709 665 l 2
 709 655.667 707.333 642 704 624 c 2
 687 529 l 2
 685 519.667 680.667 514 674 512 c 2
 647 505 l 1
 635 510 l 1
 632.333 514.667 624 533 610 565 c 2
 601 584 l 2
 586.333 619.333 566.667 661.333 542 710 c 0
 534 726.667 526.667 737.333 520 742 c 0
 514.667 746 509.667 748 505 748 c 0
 499 748 495 746 493 742 c 1
 490.333 740 489 737.333 489 734 c 0
 489 724 493.667 710 503 692 c 0
 507.667 683.333 513 670.667 519 654 c 2
 565 530 l 1
 632 481 l 2
 662.667 457.667 693.333 431 724 401 c 1
 725.333 397 726 393.667 726 391 c 0
 726 385 722.667 381.333 716 380 c 1
 712 380 l 2
 704.667 380 698 383 692 389 c 0
 690 391 688.667 393.333 688 396 c 1
 672.667 412.667 646.333 434.667 609 462 c 2
 583 481 l 1
 581 481.667 573 487 559 497 c 0
 549.667 504.333 541.667 508 535 508 c 0
 531.667 508 528.667 506.333 526 503 c 0
 524.667 501 523.333 498 522 494 c 1
 524.667 486.667 534 477 550 465 c 0
 563.333 454.333 572 446 576 440 c 0
 578.667 436 587.333 426.333 602 411 c 0
 618.667 393.667 627 377.333 627 362 c 0
 627 350 623.667 334 617 314 c 0
 612.333 299.333 609.667 286.667 609 276 c 2
 609 275 l 2
 609 259 618 240.667 636 220 c 0
 643.333 211.333 651 204 659 198 c 0
 676.333 186 686.333 177.333 689 172 c 0
 690.333 170 691 168 691 166 c 0
 691 160.667 686.333 156.667 677 154 c 1
 637 170.667 609.333 196.667 594 232 c 0
 592 236.667 589.667 240.667 587 244 c 0
 582.333 251.333 580.333 258.667 581 266 c 2
 585 303 l 2
 585.667 307.667 584.667 312 582 316 c 0
 580 319.333 576.667 321.667 572 323 c 1
 562.667 315 551.333 311 538 311 c 0
 534 311 529.333 311.333 524 312 c 1
 516.667 314 510 317 504 321 c 1
 488 343 478.667 354 476 354 c 0
 474.667 354 474.333 353.333 475 352 c 0
 478.333 340.667 481 322 483 296 c 0
 484.333 280 486.667 268.333 490 261 c 2
 535 157 l 1
 535 147 l 1
 535 70 l 1
 744 70 l 1
 743 159 l 2
 743 177.667 745 195 749 211 c 0
 753 227.667 755 245.667 755 265 c 2
 755 269 l 1
 754 302 l 2
 755.333 320.667 756 338.667 756 356 c 0
 756 384.667 754.333 411 751 435 c 0
 749.667 449.667 749 463.667 749 477 c 2
 749 484 l 1
 755 642 l 1
 755 647 l 2
 755 653 754.667 662.333 754 675 c 2
 751 725 l 2
503 469 m 1
 494 460 l 1
 506 446 521.333 431.667 540 417 c 0
 558 401 569.667 383.333 575 364 c 0
 576.333 360 577 356 577 352 c 1
 583 346.667 587.667 344 591 344 c 256
 594.333 344 596.667 346.667 598 352 c 0
 598.667 354.667 599 357.667 599 361 c 0
 599 367.667 597 374.667 593 382 c 0
 591.667 384.667 590 387 588 389 c 0
 552.667 425.667 524.333 452.333 503 469 c 1
473 435 m 1
 467.667 428.333 464.667 417.667 464 403 c 1
 490.667 381.667 510.333 361.667 523 343 c 1
 527.667 340.333 531.667 339 535 339 c 0
 540.333 339 544.333 342 547 348 c 0
 548.333 351.333 549 354.667 549 358 c 0
 549 363.333 547 369 543 375 c 0
 540.333 378.333 537.333 381 534 383 c 1
 475 433 l 1
 473 435 l 1
EndSplineSet
Validated: 33
EndChar

StartChar: one
Encoding: 49 49 17
Width: 792
Flags: HW
LayerCount: 2
Fore
SplineSet
583 672 m 1
 534 497 l 1
 708 541 l 1
 583 411 l 1
 757 361 l 1
 583 307 l 1
 708 176 l 1
 534 222 l 1
 583 47 l 1
 443 176 l 1
 393 -1 l 1
 348 176 l 1
 217 47 l 1
 262 222 l 1
 86 176 l 1
 217 307 l 1
 35 361 l 1
 217 411 l 1
 86 541 l 1
 262 497 l 1
 217 672 l 1
 348 541 l 1
 393 720 l 1
 443 541 l 1
 583 672 l 1
EndSplineSet
Validated: 1
EndChar

StartChar: two
Encoding: 50 50 18
Width: 560
Flags: HW
LayerCount: 2
Fore
SplineSet
405 175 m 1
 342 175 l 1
 342 112 l 1
 218 112 l 1
 218 175 l 1
 342 175 l 1
 342 238 l 1
 405 238 l 1
 405 175 l 1
218 300 m 1
 155 300 l 1
 155 362 l 1
 218 362 l 1
 218 300 l 1
405 300 m 1
 342 300 l 1
 342 362 l 1
 405 362 l 1
 405 300 l 1
155 50 m 1
 405 50 l 1
 405 -12 l 1
 155 -12 l 1
 155 50 l 1
155 50 m 1
 92 50 l 1
 92 112 l 1
 155 112 l 1
 155 50 l 1
405 50 m 1
 405 112 l 1
 468 112 l 1
 468 50 l 1
 405 50 l 1
92 112 m 1
 30 112 l 1
 30 175 l 1
 30 238 l 1
 30 300 l 1
 30 362 l 1
 30 425 l 1
 92 425 l 1
 92 362 l 1
 92 300 l 1
 92 238 l 1
 92 175 l 1
 92 112 l 1
468 112 m 1
 468 175 l 1
 468 238 l 1
 468 300 l 1
 468 362 l 1
 468 425 l 1
 530 425 l 1
 530 362 l 1
 530 300 l 1
 530 238 l 1
 530 175 l 1
 530 112 l 1
 468 112 l 1
218 175 m 1
 155 175 l 1
 155 238 l 1
 218 238 l 1
 218 175 l 1
92 425 m 1
 92 488 l 1
 155 488 l 1
 155 425 l 1
 92 425 l 1
468 425 m 1
 405 425 l 1
 405 488 l 1
 468 488 l 1
 468 425 l 1
155 488 m 1
 155 550 l 1
 405 550 l 1
 405 488 l 1
 155 488 l 1
EndSplineSet
Validated: 5
EndChar

StartChar: three
Encoding: 51 51 19
Width: 867
Flags: HW
LayerCount: 2
Fore
SplineSet
668 589 m 1
 832 407 l 1
 832 290 l 1
 382 101 l 1
 382 193 l 1
 35 193 l 1
 35 320 l 1
 215 504 l 1
 600 504 l 1
 668 589 l 1
668 557 m 1
 609 485 l 1
 224 485 l 1
 56 310 l 1
 470 310 l 1
 411 233 l 1
 810 400 l 1
 668 557 l 1
EndSplineSet
Validated: 1
EndChar

StartChar: four
Encoding: 52 52 20
Width: 1034
Flags: HW
LayerCount: 2
Fore
SplineSet
692 461 m 1
 692 427 l 1
 736 427 l 1
 736 461 l 1
 692 461 l 1
650 604 m 1
 669 563 l 1
 706 582 l 1
 719 521 l 1
 785 521 l 1
 813 431 l 1
 728 295 l 1
 815 184 l 1
 902 210 l 1
 912 193 l 1
 878 181 l 1
 878 171 l 1
 941 180 l 1
 944 161 l 1
 879 154 l 1
 879 147 l 1
 927 137 l 1
 916 122 l 1
 868 131 l 1
 779 116 l 1
 686 201 l 1
 626 131 l 1
 692 65 l 1
 840 69 l 1
 842 42 l 1
 760 44 l 1
 751 35 l 1
 863 20 l 1
 855 -3 l 1
 732 14 l 1
 728 10 l 1
 798 -16 l 1
 787 -37 l 1
 662 -3 l 1
 563 -16 l 1
 188 -16 l 1
 90 67 l 1
 90 180 l 1
 192 320 l 1
 431 384 l 1
 563 465 l 1
 539 561 l 1
 577 548 l 1
 590 589 l 1
 622 561 l 1
 650 604 l 1
EndSplineSet
Validated: 1
EndChar

StartChar: five
Encoding: 53 53 21
Width: 954
Flags: HW
LayerCount: 2
Fore
SplineSet
90 469 m 1
 306 835 l 1
 798 620 l 1
 834 403 l 1
 749 163 l 1
 374 -88 l 1
 209 -56 l 1
 90 469 l 1
144 460 m 1
 251 -13 l 1
 364 -35 l 1
 708 195 l 1
 783 407 l 1
 753 585 l 1
 327 771 l 1
 144 460 l 1
EndSplineSet
Validated: 1
EndChar

StartChar: six
Encoding: 54 54 22
Width: 1166
Flags: HW
LayerCount: 2
Fore
SplineSet
565 569 m 2
 568 569 l 1
 571 569 l 2
 746.333 568.333 904.667 496.333 1046 353 c 1
 973.333 279 899.333 221 824 179 c 128
 748.667 137 666.333 116 577 116 c 0
 571 116 571 116 568 116 c 256
 565 116 565 116 559 116 c 0
 469.667 116 387.333 137 312 179 c 128
 236.667 221 162.667 279 90 353 c 1
 231.333 496.333 389.667 568.333 565 569 c 2
565 521 m 2
 427.667 521 293 465 161 353 c 1
 174.333 340.333 185 330.667 193 324 c 1
 249 364.667 306.833 397.833 366.5 423.5 c 128
 426.167 449.167 492.333 462 565 462 c 2
 568 462 l 1
 571 462 l 2
 643.667 462 709.833 449.167 769.5 423.5 c 128
 829.167 397.833 887 364.667 943 324 c 1
 951 330.667 961.667 340.333 975 353 c 1
 843 465 708.333 521 571 521 c 2
 568 521 l 1
 565 521 l 2
568 407 m 256
 536 407 508.833 395.667 486.5 373 c 128
 464.167 350.333 453 323 453 291 c 128
 453 259 464.167 231.833 486.5 209.5 c 128
 508.833 187.167 536 176 568 176 c 256
 600 176 627.167 187.167 649.5 209.5 c 128
 671.833 231.833 683 259 683 291 c 128
 683 323 671.833 350.333 649.5 373 c 128
 627.167 395.667 600 407 568 407 c 256
444 397 m 1
 375.333 379 304.667 344.333 232 293 c 1
 302.667 238.333 374.333 201.333 447 182 c 1
 418.333 213.333 404 249.667 404 291 c 0
 404 329 417.333 364.333 444 397 c 1
692 397 m 1
 719.333 364.333 732.667 329 732 291 c 0
 732 249.667 717.667 213.333 689 182 c 1
 761.667 201.333 833.333 238.333 904 293 c 1
 831.333 344.333 760.667 379 692 397 c 1
568 364 m 256
 590 364 608.167 357 622.5 343 c 128
 636.833 329 644 311 644 289 c 0
 644 269 636.5 251.5 621.5 236.5 c 128
 606.5 221.5 588.667 213.667 568 213 c 0
 547.333 213.667 529.667 221.5 515 236.5 c 128
 500.333 251.5 493 269 493 289 c 0
 492.333 311 499.167 329 513.5 343 c 128
 527.833 357 546 364 568 364 c 256
568 316 m 0
 560.667 316 554.5 313.5 549.5 308.5 c 128
 544.5 303.5 542 297.167 542 289.5 c 128
 542 281.833 544.5 275.5 549.5 270.5 c 128
 554.5 265.5 560.667 262.667 568 262 c 1
 576 262.667 582.5 265.5 587.5 270.5 c 128
 592.5 275.5 595 281.833 595 289.5 c 128
 595 297.167 592.5 303.5 587.5 308.5 c 128
 582.5 313.5 576 316 568 316 c 0
EndSplineSet
Validated: 33
EndChar

StartChar: seven
Encoding: 55 55 23
Width: 1034
Flags: HW
LayerCount: 2
Fore
SplineSet
450.626 804.466 m 0
 457.503 804.479 464.004 802.957 470.127 799.9 c 1
 466.91 796.267 465.621 791.288 466.259 784.965 c 1
 471.993 786.986 479.969 786.773 490.186 784.324 c 128
 500.401 781.875 508.753 776.878 515.241 769.333 c 1
 515.203 769.332 511.762 769.497 504.919 769.829 c 128
 498.075 770.16 494.732 769.737 494.89 768.559 c 1
 506.652 751.303 l 1
 490.942 740.314 l 1
 488.621 726.153 l 1
 486.014 725.224 482.4 723.589 477.778 721.246 c 128
 473.156 718.903 468.885 717.037 464.966 715.647 c 128
 461.047 714.257 457.17 713.58 453.335 713.617 c 1
 458.876 709.638 462.023 704.402 462.775 697.907 c 1
 460.594 696.644 457.521 694.649 453.555 691.924 c 128
 449.589 689.199 446.73 687.299 444.978 686.223 c 1
 463.868 694.996 480.273 701.857 494.193 706.807 c 0
 537.232 722.115 579.303 731.478 620.406 734.897 c 0
 638.417 736.394 660.797 733.419 687.544 725.971 c 128
 714.291 718.522 733.467 711.593 745.073 705.183 c 0
 764.961 694.197 781.186 682.435 793.747 669.896 c 1
 765.09 666.231 750.697 664.399 750.566 664.4 c 1
 743.703 668.053 734.031 674.182 721.551 682.785 c 128
 709.07 691.388 699.396 697.538 692.528 701.235 c 1
 719.227 676.937 l 1
 696.534 689.682 680.567 700.129 671.325 708.277 c 1
 672.471 704.762 674.829 699.605 678.4 692.804 c 128
 681.972 686.004 684.334 680.973 685.487 677.71 c 1
 682.28 679.633 677.624 682.243 671.521 685.542 c 128
 665.418 688.841 659.965 691.927 655.163 694.801 c 128
 650.36 697.674 646.074 700.592 642.307 703.557 c 1
 642.453 697.428 644.284 690.36 647.8 682.354 c 1
 641.451 684.201 635.441 687.864 629.771 693.342 c 1
 622.751 690.828 616.225 686.907 610.192 681.579 c 1
 607.428 681.92 602.855 681.729 596.474 681.006 c 128
 590.093 680.282 585.406 680.061 582.411 680.342 c 1
 601.135 671.651 618.392 658.934 634.182 642.191 c 0
 651.803 623.504 662.121 600.831 665.135 574.171 c 1
 657.686 581.218 652.192 589.06 648.652 597.696 c 1
 644.961 593.939 642.304 589.605 640.682 584.694 c 1
 645.634 581.677 l 2
 658.129 573.895 671.716 561.711 686.396 545.126 c 128
 701.076 528.541 712.045 513.382 719.304 499.649 c 1
 718.253 500.068 716.612 501.385 714.379 503.6 c 128
 712.148 505.814 710.668 507.206 709.94 507.775 c 1
 715.967 497.57 719.424 484.75 720.31 469.314 c 1
 716.369 473.075 711.597 475.346 705.994 476.125 c 1
 706.118 474.632 706.169 472.956 706.148 471.095 c 1
 710.714 462.814 l 1
 704.446 441.612 l 1
 697.881 442.005 692.644 443.836 688.736 447.106 c 1
 672.796 445.868 l 1
 684.867 430.624 l 1
 681.158 426.513 675.922 423.391 669.159 421.26 c 1
 664.438 425.902 l 1
 662.592 423.591 659.6 421.812 655.462 420.563 c 1
 648.729 432.171 l 1
 648.336 428.885 647.614 424.939 646.562 420.332 c 1
 641.628 418.518 635.953 418.673 629.538 420.796 c 1
 629.45 430.431 628.573 439.434 626.907 447.803 c 1
 626.218 435.756 624.928 427.372 623.037 422.653 c 1
 617.338 423.423 610.529 426.003 602.608 430.392 c 1
 602.555 431.485 602.608 436.192 602.767 444.515 c 128
 602.924 452.837 602.51 457.312 601.525 457.94 c 1
 594.506 457.797 587.955 458.236 581.87 459.256 c 1
 578.69 465.563 577.452 477.455 578.155 494.93 c 1
 575.154 488.461 573.322 481.908 572.661 475.273 c 1
 570.339 477.285 l 1
 572.663 459.59 573.437 442.721 572.661 426.677 c 1
 571.639 427.651 570.462 430.564 569.13 435.415 c 128
 567.797 440.265 566.395 444.136 564.922 447.029 c 1
 562.65 438.464 558.936 432.841 553.779 430.158 c 1
 542.544 451.855 534.315 473.032 529.094 493.691 c 1
 529.253 499.156 529.005 503.511 528.349 506.758 c 128
 527.692 510.005 526.411 513.516 524.506 517.293 c 128
 522.601 521.068 521.396 523.622 520.891 524.954 c 1
 519.989 525.034 517.358 525.189 512.997 525.419 c 1
 512.779 525.669 512.441 526.034 511.984 526.513 c 128
 511.3 527.231 511.3 527.231 510.985 527.586 c 1
 510.714 526.826 509.959 524.569 508.72 520.814 c 128
 507.48 517.059 506.455 514.209 505.646 512.264 c 1
 502.869 521.302 501.812 529.556 502.474 537.026 c 1
 499.766 539.968 l 1
 497.067 535.881 493.791 531.96 489.938 528.205 c 1
 493.571 510.56 499.245 495.78 506.962 483.863 c 0
 516.221 470.166 525.096 456.24 533.585 442.087 c 128
 542.074 427.933 554.432 411.392 570.659 392.465 c 128
 586.885 373.536 604.344 356.695 623.037 341.941 c 2
 849.772 159.392 l 2
 930.181 92.3839 994.617 26.195 1043.08 -39.1748 c 0
 1069.33 -74.5902 1093.06 -103.532 1114.27 -126 c 1
 1027.45 -125.227 l 1
 993.145 -54.3478 949.963 6.528 897.906 57.4004 c 0
 853.47 100.818 804.564 144.721 751.187 189.108 c 2
 678.832 251.247 l 2
 613.029 308.336 573.151 343.803 559.196 357.649 c 0
 524.917 391.668 493.371 429.742 464.556 471.869 c 0
 462.96 474.202 461.438 476.988 459.99 480.227 c 1
 459.208 478.83 458.434 477.54 457.668 476.357 c 1
 462.775 463.667 l 1
 463.395 462.506 l 2
 479.292 423.753 492.06 398.525 501.7 386.823 c 1
 453.722 444.708 l 1
 455.812 439.136 l 2
 465.43 412.562 472.755 378.461 477.788 336.834 c 1
 473.892 331.413 470.667 327.363 468.114 324.685 c 1
 467.164 319.714 466.855 315.561 467.187 312.226 c 1
 465.82 311.064 463.739 309.699 460.944 308.13 c 128
 458.15 306.56 456.465 305.501 455.889 304.952 c 1
 458.946 301.198 461.268 294.466 462.853 284.755 c 1
 456.442 282.5 451.463 279.533 447.918 275.855 c 1
 446.679 271.132 442.604 265.767 435.691 259.76 c 1
 435.211 264.358 432.245 270.084 426.792 276.938 c 1
 423.785 274.276 420.277 272.986 416.268 273.069 c 1
 416.083 275.636 414.687 279.787 412.081 285.521 c 128
 409.475 291.256 408.11 294.302 407.987 294.66 c 1
 403.85 295.515 399.594 297.192 395.22 299.689 c 1
 395.725 310.966 394.796 320.562 392.434 328.477 c 1
 388.581 329.386 383.757 329.206 377.963 327.935 c 1
 380.869 337.235 384.377 344.638 388.487 350.145 c 1
 373.01 351.228 l 1
 373.011 351.269 372.95 356.281 372.825 366.264 c 128
 372.7 376.247 373.123 381.398 374.094 381.717 c 1
 372.672 382.976 370.479 384.585 367.515 386.544 c 128
 364.55 388.503 362.125 390.222 360.241 391.699 c 1
 364.176 397.165 366.188 402.35 366.277 407.253 c 1
 350.182 432.713 l 1
 356.717 440.368 360.148 453.317 360.474 471.56 c 1
 365.26 483.624 369.31 491.646 372.623 495.626 c 1
 372.258 497.195 368.724 505.785 362.021 521.396 c 1
 363.567 528.963 364.521 538.429 364.884 549.794 c 1
 351.11 557.301 l 1
 354.445 546.363 357.695 538.083 360.86 532.461 c 1
 351.416 542.681 344.091 552.87 338.884 563.027 c 1
 348.267 535.453 352.987 521.602 353.046 521.473 c 1
 349.948 526.639 347.239 531.385 344.92 535.711 c 1
 345.874 527.881 345.667 520.246 344.3 512.805 c 1
 340.419 511.078 337.221 508.86 334.705 506.149 c 1
 334.734 505.939 334.785 505.62 334.858 505.191 c 128
 334.933 504.762 334.986 504.437 335.015 504.215 c 1
 334.923 504.503 334.923 504.503 334.741 505.037 c 128
 334.619 505.393 334.53 505.661 334.474 505.841 c 1
 329.854 500.739 327.042 497.901 326.038 497.328 c 1
 325.788 493.122 328.154 485.057 333.136 473.133 c 128
 338.116 461.209 340.729 452.817 340.974 447.957 c 1
 340.893 447.891 338.866 446.033 334.892 442.383 c 128
 330.917 438.732 327.785 436.334 325.496 435.189 c 1
 325.908 431.767 326.031 428.75 325.866 426.138 c 128
 325.701 423.526 325.824 420.511 326.233 417.092 c 128
 326.644 413.672 327.508 410.47 328.824 407.485 c 1
 328.799 407.48 326.468 406.407 321.831 404.268 c 128
 317.194 402.129 313.231 401.705 309.942 402.997 c 1
 307.238 401.972 304.181 399.622 300.771 395.948 c 0
 299.052 394.096 297.698 392.757 296.709 391.932 c 1
 298.573 387.827 299.904 383.369 300.703 378.56 c 128
 301.501 373.749 302.1 368.369 302.501 362.419 c 128
 302.901 356.469 303.369 351.887 303.906 348.674 c 1
 294.465 355.87 l 1
 293.245 351.592 292.815 345.291 293.176 336.967 c 128
 293.537 328.642 293.039 323.103 291.68 320.351 c 1
 280.614 328.708 l 1
 288.429 313.696 l 1
 280.071 309.827 l 1
 280.042 309.792 277.644 304.814 272.875 294.892 c 1
 271.583 294.739 269.92 295.19 267.886 296.247 c 128
 265.852 297.304 264.188 297.755 262.893 297.6 c 1
 262.874 297.379 262.669 295.734 262.28 292.666 c 128
 261.891 289.598 261.734 287.09 261.809 285.142 c 1
 256.859 284.416 252.964 284.7 250.124 285.993 c 1
 248.515 295.428 245.368 304.662 240.683 313.696 c 1
 240.681 313.682 240.059 310.827 238.817 305.131 c 128
 237.574 299.435 237.268 294.887 237.897 291.486 c 1
 235.903 292.881 234.352 295.634 233.245 299.746 c 128
 232.137 303.857 230.928 306.65 229.618 308.124 c 1
 224.757 301.851 222.358 296.486 222.421 292.029 c 1
 220.347 295.104 218.39 299.955 216.55 306.583 c 128
 214.709 313.21 212.952 317.981 211.277 320.894 c 1
 204.623 308.124 l 1
 203.91 314.851 204.345 324.339 205.928 336.586 c 128
 207.511 348.833 208.184 356.912 207.949 360.823 c 1
 207.918 360.845 207.046 361.705 205.332 363.404 c 128
 203.618 365.102 201.911 366.099 200.212 366.396 c 1
 202.639 379.591 208.107 393.365 216.617 407.718 c 1
 216.621 407.763 216.621 407.789 216.617 407.796 c 0
 215.302 409.897 213.376 412.627 210.841 415.984 c 128
 208.306 419.342 206.594 421.668 205.706 422.962 c 1
 209.015 410.487 210.666 404.193 210.659 404.081 c 1
 199.051 418.552 l 1
 199.05 418.526 199.13 413.861 199.29 404.557 c 128
 199.451 395.253 199.01 390.658 197.968 390.771 c 1
 194.653 397.134 190.758 402.68 186.282 407.407 c 1
 188.459 398.872 191.425 391.495 195.182 385.276 c 1
 195.049 385.399 192.489 387.485 187.5 391.534 c 128
 182.51 395.582 179.138 399.016 177.384 401.837 c 1
 184.657 373.591 l 1
 178.544 385.818 l 1
 180.649 377.614 181.759 370.211 181.872 363.608 c 1
 178.167 370.76 173.731 377.415 168.562 383.574 c 1
 168.349 377.278 168.916 371.164 170.264 365.233 c 1
 156.877 380.788 l 1
 166.317 355.87 l 1
 151.924 370.264 l 1
 151.101 361.41 151.849 352.537 154.168 343.645 c 1
 152.881 345.704 150.628 348.228 147.411 351.217 c 128
 144.192 354.204 142.008 356.658 140.858 358.579 c 1
 139.789 350.686 138.112 344.598 135.827 340.316 c 1
 128.09 355.251 l 1
 127.859 351.471 127.932 345.1 128.31 336.137 c 128
 128.687 327.174 128.613 320.803 128.09 317.024 c 1
 121.435 325.304 l 1
 119.81 312.535 l 1
 116.029 319.889 113.81 327.653 113.154 335.828 c 1
 116.729 362.141 125.757 390.438 140.239 420.719 c 0
 144.914 430.495 155.214 445.901 171.14 466.937 c 128
 187.065 487.972 199.49 503.081 208.415 512.264 c 0
 223.562 527.851 240.277 543.688 258.56 559.777 c 1
 260.769 565.364 263.116 570.343 265.601 574.712 c 1
 263.508 576.795 262.011 578.446 261.112 579.665 c 1
 259.397 578.972 257.618 578.378 255.773 577.885 c 1
 256.842 579.685 257.951 581.413 259.101 583.069 c 1
 258.241 584.974 257.673 586.96 257.397 589.028 c 1
 253.762 586.629 l 1
 253.443 586.168 251.333 583.502 247.431 578.631 c 128
 243.529 573.758 241.048 569.924 239.987 567.129 c 1
 239.888 570.015 239.888 570.015 239.712 575.563 c 128
 239.595 579.262 239.506 581.997 239.445 583.767 c 1
 232.058 572.315 226.693 560.294 223.35 547.705 c 1
 223.348 547.72 222.327 552.078 220.287 560.777 c 128
 218.248 569.478 217.411 576.212 217.777 580.981 c 1
 216.746 576.716 214.183 571.3 210.089 564.733 c 128
 205.996 558.166 203.4 553.057 202.302 549.407 c 1
 202.385 556.621 203.855 565.494 206.712 576.027 c 1
 190.693 542.211 l 1
 190.691 545.504 190.678 550.407 190.654 556.919 c 128
 190.631 563.431 190.618 568.305 190.616 571.54 c 1
 181.91 559.353 176.003 548.262 172.895 538.265 c 1
 171.176 548.687 171.176 556.271 172.895 561.016 c 1
 160.824 548.285 153.24 536.831 150.144 526.656 c 1
 144.107 550.491 l 1
 133.973 539.656 126.931 530.964 122.982 524.413 c 1
 121.104 530.24 120.743 538.546 121.899 549.33 c 1
 120.028 546.02 117.797 540.849 115.206 533.816 c 128
 112.615 526.784 110.41 521.612 108.589 518.299 c 1
 108.24 525.857 108.988 533.983 110.833 542.676 c 1
 96.9814 509.4 l 1
 95.8851 516.899 96.4267 525.231 98.6064 534.396 c 1
 90.9541 524.581 85.5888 516.249 82.5107 509.4 c 1
 79.7246 533.776 l 1
 78.597 530.33 77.7285 526.638 77.1191 522.7 c 128
 76.5098 518.761 75.9789 514.376 75.5264 509.543 c 128
 75.0739 504.711 74.642 500.975 74.2305 498.335 c 1
 70.7116 504.327 68.6738 510.053 68.1172 515.514 c 1
 64.1113 509.515 61.8929 502.679 61.4619 495.007 c 1
 58.863 505.885 58.502 516.048 60.3789 525.496 c 1
 60.2871 525.279 56.0309 510.679 47.6104 481.696 c 1
 46.4177 502.369 44.5602 515.112 42.0381 519.925 c 1
 41.2132 516.764 40.0156 510.841 38.4453 502.156 c 128
 36.8756 493.471 35.7262 488.199 34.9971 486.34 c 1
 34.5466 489.231 34.2539 493.332 34.1191 498.643 c 128
 33.9844 503.954 33.8643 507.359 33.7588 508.859 c 1
 26.0316 490.425 22.1364 481.164 22.0732 481.077 c 1
 24.8594 503.287 l 1
 23.1712 500.794 21.8372 497.883 20.8574 494.554 c 128
 19.8783 491.225 18.9948 487.413 18.207 483.12 c 128
 17.4186 478.826 16.6953 475.566 16.0371 473.339 c 1
 16.4759 476.818 16.3294 482.166 15.5977 489.385 c 128
 14.8659 496.604 14.806 502.166 15.418 506.072 c 1
 17.6035 510.663 25.8968 520.408 40.2979 535.307 c 128
 54.7002 550.204 68.0231 562.101 80.2666 570.998 c 0
 108.288 591.357 147.083 607.092 196.652 618.203 c 1
 195.505 620.313 194.299 623.569 193.034 627.971 c 128
 191.77 632.372 190.396 635.745 188.913 638.09 c 1
 187.134 636.806 184.829 634.26 181.997 630.451 c 128
 179.166 626.642 176.674 624.03 174.52 622.613 c 1
 174.209 623.94 173.822 625.333 173.359 626.792 c 1
 163.046 619.17 151.413 611.844 138.46 604.814 c 1
 151.769 621.452 l 1
 129.637 615.339 l 1
 140.162 638.09 l 1
 118.494 623.696 l 1
 130.721 639.715 l 1
 127.654 638.36 121.963 635.206 113.647 630.252 c 128
 105.331 625.299 98.6407 621.979 93.5762 620.292 c 1
 103.56 630.894 l 1
 85.2188 624.237 l 1
 82.5521 625.905 79.3871 628.893 75.7236 633.201 c 128
 72.0609 637.508 68.571 640.969 65.2539 643.584 c 1
 80.6771 651.68 103.763 660.192 134.513 669.121 c 1
 138.122 675.192 142.403 680.197 147.358 684.134 c 1
 138.187 686.396 129.675 687.324 121.822 686.919 c 1
 131.375 693.35 147.013 699.351 168.736 704.923 c 128
 190.459 710.496 212.377 712.981 234.492 712.378 c 0
 237.493 712.297 241.156 711.987 245.481 711.45 c 1
 242.839 713.406 240.492 715.031 238.439 716.325 c 1
 245.918 724.513 250.768 729.543 252.987 731.415 c 1
 251.109 730.866 247.686 729.235 242.717 726.52 c 128
 237.749 723.804 232.944 722.495 228.302 722.593 c 1
 225.283 729.212 222.369 737.467 219.558 747.356 c 1
 214.637 747.567 207.956 747.18 199.515 746.196 c 1
 199.358 746.831 197.81 753.796 194.872 767.09 c 1
 192.999 768.793 189.549 769.259 184.52 768.488 c 128
 179.491 767.717 176.287 767.535 174.906 767.94 c 1
 175.43 773.383 176.178 777.794 177.15 781.174 c 1
 182.482 785.359 188.983 788.144 196.652 789.531 c 1
 197.503 792.398 198.458 796.112 199.515 800.674 c 1
 199.786 800.547 209.617 798.035 229.01 793.136 c 128
 248.402 788.236 261.992 783.01 269.779 777.459 c 1
 270.675 768.277 271.475 761.622 272.179 757.493 c 1
 272.879 759.084 273.517 761.333 274.094 764.239 c 128
 274.67 767.146 275.192 769.205 275.661 770.416 c 1
 276.59 769.828 280.096 768.485 286.179 766.387 c 128
 292.261 764.288 296.081 762.511 297.638 761.054 c 1
 295.267 757.097 293.693 753.692 292.918 750.839 c 1
 296.535 754.37 299.14 756.588 300.733 757.493 c 1
 305.896 754.45 315.687 745.612 330.104 730.98 c 128
 344.522 716.349 354 707.156 358.539 703.402 c 1
 359.546 702.628 l 2
 361.319 701.2 362.635 700.194 363.492 699.61 c 1
 359.236 722.979 l 1
 361.907 725.422 365.915 726.763 371.26 727.001 c 0
 373.929 727.119 375.931 727.352 377.266 727.701 c 1
 377.027 746.023 375.97 757.527 374.094 762.214 c 1
 378.851 765.184 383.349 766.68 387.588 766.703 c 128
 391.826 766.724 396.227 766.26 400.791 765.31 c 1
 402.896 770.154 407.493 776.329 414.581 783.835 c 128
 421.668 791.342 425.945 796.955 427.411 800.674 c 1
 437.901 803.192 445.639 804.456 450.626 804.466 c 0
EndSplineSet
Validated: 41
EndChar

StartChar: eight
Encoding: 56 56 24
Width: 560
Flags: HW
LayerCount: 2
Fore
SplineSet
405 175 m 1
 342 175 l 1
 342 112 l 1
 218 112 l 1
 218 175 l 1
 342 175 l 1
 342 238 l 1
 405 238 l 1
 405 175 l 1
218 300 m 1
 155 300 l 1
 155 362 l 1
 218 362 l 1
 218 300 l 1
405 300 m 1
 342 300 l 1
 342 362 l 1
 405 362 l 1
 405 300 l 1
155 50 m 1
 405 50 l 1
 405 -12 l 1
 155 -12 l 1
 155 50 l 1
155 50 m 1
 92 50 l 1
 92 112 l 1
 155 112 l 1
 155 50 l 1
405 50 m 1
 405 112 l 1
 468 112 l 1
 468 50 l 1
 405 50 l 1
92 112 m 1
 30 112 l 1
 30 175 l 1
 30 238 l 1
 30 300 l 1
 30 362 l 1
 30 425 l 1
 92 425 l 1
 92 362 l 1
 92 300 l 1
 92 238 l 1
 92 175 l 1
 92 112 l 1
468 112 m 1
 468 175 l 1
 468 238 l 1
 468 300 l 1
 468 362 l 1
 468 425 l 1
 530 425 l 1
 530 362 l 1
 530 300 l 1
 530 238 l 1
 530 175 l 1
 530 112 l 1
 468 112 l 1
218 175 m 1
 155 175 l 1
 155 238 l 1
 218 238 l 1
 218 175 l 1
92 425 m 1
 92 488 l 1
 155 488 l 1
 155 425 l 1
 92 425 l 1
468 425 m 1
 405 425 l 1
 405 488 l 1
 468 488 l 1
 468 425 l 1
155 488 m 1
 155 550 l 1
 405 550 l 1
 405 488 l 1
 155 488 l 1
EndSplineSet
Validated: 5
EndChar

StartChar: nine
Encoding: 57 57 25
Width: 1044
Flags: HW
LayerCount: 2
Fore
SplineSet
494 58 m 1
 494 63 l 1
 499 63 l 1
 503 63 l 1
 503 58 l 1
 503 54 l 1
 499 54 l 1
 494 54 l 1
 494 58 l 1
371 71 m 1
 371 79 l 1
 353 79 l 1
 336 79 l 1
 336 87 l 1
 336 95 l 1
 328 95 l 1
 320 95 l 1
 320 104 l 1
 320 114 l 1
 312 114 l 1
 304 114 l 1
 304 104 l 1
 304 95 l 1
 300 95 l 1
 295 95 l 1
 295 99 l 1
 295 104 l 1
 290 104 l 1
 285 104 l 1
 285 112 l 1
 285 120 l 1
 274 120 l 1
 263 120 l 1
 263 128 l 1
 263 136 l 1
 259 136 l 1
 254 136 l 1
 254 132 l 1
 254 129 l 1
 249 129 l 1
 244 129 l 1
 244 137 l 1
 244 145 l 1
 236 145 l 1
 229 145 l 1
 229 140 l 1
 229 136 l 1
 224 136 l 1
 219 136 l 1
 219 140 l 1
 219 145 l 1
 211 145 l 1
 203 145 l 1
 203 150 l 1
 203 155 l 1
 199 155 l 1
 194 155 l 1
 194 164 l 1
 188 164 l 1
 188 159 l 1
 172 159 l 1
 172 170 l 1
 167 170 l 1
 162 170 l 1
 162 175 l 1
 162 180 l 1
 157 180 l 1
 153 180 l 1
 153 175 l 1
 153 170 l 1
 157 170 l 1
 162 170 l 1
 162 166 l 1
 162 161 l 1
 157 161 l 1
 153 161 l 1
 153 166 l 1
 153 170 l 1
 150 170 l 1
 146 170 l 1
 146 175 l 1
 146 180 l 1
 134 180 l 1
 121 180 l 1
 121 183 l 1
 121 186 l 1
 104 186 l 1
 86 186 l 1
 86 191 l 1
 86 196 l 1
 74 196 l 1
 61 196 l 1
 61 204 l 1
 61 211 l 1
 58 211 l 1
 55 211 l 1
 55 216 l 1
 55 221 l 1
 50 221 l 1
 45 221 l 1
 45 224 l 1
 45 227 l 1
 41 227 l 1
 36 227 l 1
 36 240 l 1
 36 253 l 1
 33 253 l 1
 30 253 l 1
 30 257 l 1
 30 262 l 1
 33 262 l 1
 36 262 l 1
 36 275 l 1
 36 287 l 1
 33 287 l 1
 30 287 l 1
 30 300 l 1
 30 313 l 1
 33 313 l 1
 36 313 l 1
 36 325 l 1
 36 338 l 1
 41 338 l 1
 45 338 l 1
 45 341 l 1
 45 344 l 1
 50 344 l 1
 55 344 l 1
 55 360 l 1
 55 376 l 1
 63 376 l 1
 70 376 l 1
 70 385 l 1
 70 398 l 1
 70 410 l 1
 79 410 l 1
 86 410 l 1
 86 420 l 1
 86 429 l 1
 91 429 l 1
 96 429 l 1
 96 442 l 1
 96 455 l 1
 104 455 l 1
 112 455 l 1
 112 463 l 1
 112 470 l 1
 115 470 l 1
 126 470 l 1
 126 480 l 1
 126 488 l 1
 126 496 l 1
 132 496 l 1
 137 496 l 1
 137 491 l 1
 137 486 l 1
 142 486 l 1
 146 486 l 1
 146 499 l 1
 146 512 l 1
 150 512 l 1
 153 512 l 1
 153 516 l 1
 153 521 l 1
 157 521 l 1
 162 521 l 1
 162 529 l 1
 162 537 l 1
 175 537 l 1
 188 537 l 1
 192 537 l 1
 192 552 l 1
 197 552 l 1
 205 552 l 1
 213 552 l 1
 213 561 l 1
 213 568 l 1
 229 568 l 1
 244 568 l 1
 244 578 l 1
 244 587 l 1
 262 587 l 1
 279 587 l 1
 279 595 l 1
 279 603 l 1
 282 603 l 1
 285 603 l 1
 285 608 l 1
 285 613 l 1
 295 613 l 1
 304 613 l 1
 304 608 l 1
 304 603 l 1
 312 603 l 1
 320 603 l 1
 320 611 l 1
 320 619 l 1
 336 619 l 1
 352 619 l 1
 352 624 l 1
 352 628 l 1
 357 628 l 1
 361 628 l 1
 361 624 l 1
 361 619 l 1
 369 619 l 1
 377 619 l 1
 377 616 l 1
 377 613 l 1
 382 613 l 1
 387 613 l 1
 387 608 l 1
 387 603 l 1
 391 603 l 1
 396 603 l 1
 396 591 l 1
 396 578 l 1
 387 578 l 1
 377 578 l 1
 377 583 l 1
 377 587 l 1
 374 587 l 1
 371 587 l 1
 371 570 l 1
 371 553 l 1
 374 553 l 1
 377 553 l 1
 377 557 l 1
 377 562 l 1
 382 562 l 1
 387 562 l 1
 387 554 l 1
 387 546 l 1
 391 546 l 1
 391 552 l 1
 399 552 l 1
 402 552 l 1
 402 562 l 1
 402 568 l 1
 407 568 l 1
 412 568 l 1
 412 565 l 1
 412 562 l 1
 424 562 l 1
 437 562 l 1
 437 557 l 1
 437 553 l 1
 445 553 l 1
 453 553 l 1
 453 549 l 1
 453 546 l 1
 448 546 l 1
 443 546 l 1
 443 524 l 1
 443 502 l 1
 448 502 l 1
 453 502 l 1
 453 519 l 1
 453 537 l 1
 458 537 l 1
 462 537 l 1
 462 532 l 1
 462 527 l 1
 503 527 l 1
 544 527 l 1
 544 519 l 1
 544 512 l 1
 549 512 l 1
 554 512 l 1
 554 528 l 1
 570 528 l 1
 570 519 l 1
 570 512 l 1
 565 512 l 1
 560 512 l 1
 560 507 l 1
 560 502 l 1
 565 502 l 1
 570 502 l 1
 570 507 l 1
 570 512 l 1
 590 512 l 1
 611 512 l 1
 611 507 l 1
 611 502 l 1
 626 502 l 1
 626 485 l 1
 626 477 l 1
 636 477 l 1
 646 477 l 1
 646 486 l 1
 646 496 l 1
 649 496 l 1
 652 496 l 1
 652 491 l 1
 652 486 l 1
 660 486 l 1
 668 486 l 1
 668 482 l 1
 668 477 l 1
 677 477 l 1
 687 477 l 1
 687 482 l 1
 687 486 l 1
 690 486 l 1
 693 486 l 1
 693 470 l 1
 693 455 l 1
 698 455 l 1
 702 455 l 1
 702 463 l 1
 702 470 l 1
 710 470 l 1
 718 470 l 1
 718 474 l 1
 718 477 l 1
 723 477 l 1
 728 477 l 1
 728 474 l 1
 728 470 l 1
 732 470 l 1
 737 470 l 1
 737 466 l 1
 737 461 l 1
 732 461 l 1
 728 461 l 1
 728 453 l 1
 728 445 l 1
 736 445 l 1
 743 445 l 1
 743 450 l 1
 743 455 l 1
 756 455 l 1
 769 455 l 1
 769 442 l 1
 769 429 l 1
 784 429 l 1
 784 442 l 1
 784 445 l 1
 789 445 l 1
 794 445 l 1
 794 433 l 1
 794 420 l 1
 799 420 l 1
 803 420 l 1
 803 425 l 1
 803 429 l 1
 807 429 l 1
 810 429 l 1
 810 420 l 1
 810 410 l 1
 818 410 l 1
 826 410 l 1
 826 407 l 1
 826 404 l 1
 830 404 l 1
 835 404 l 1
 835 407 l 1
 835 410 l 1
 843 410 l 1
 851 410 l 1
 851 407 l 1
 851 404 l 1
 856 404 l 1
 860 404 l 1
 860 399 l 1
 860 395 l 1
 865 395 l 1
 870 395 l 1
 870 382 l 1
 870 369 l 1
 878 369 l 1
 886 369 l 1
 886 357 l 1
 886 344 l 1
 890 344 l 1
 895 344 l 1
 895 341 l 1
 895 338 l 1
 890 338 l 1
 886 338 l 1
 886 341 l 1
 886 344 l 1
 873 344 l 1
 860 344 l 1
 860 341 l 1
 860 338 l 1
 873 338 l 1
 886 338 l 1
 886 325 l 1
 886 313 l 1
 881 313 l 1
 877 313 l 1
 877 308 l 1
 877 303 l 1
 886 303 l 1
 895 303 l 1
 895 320 l 1
 895 338 l 1
 898 338 l 1
 901 338 l 1
 901 346 l 1
 901 354 l 1
 906 354 l 1
 911 354 l 1
 911 341 l 1
 911 328 l 1
 906 328 l 1
 901 328 l 1
 901 320 l 1
 901 313 l 1
 919 313 l 1
 936 313 l 1
 943 313 l 1
 943 297 l 1
 952 297 l 1
 952 284 l 1
 952 271 l 1
 947 271 l 1
 942 271 l 1
 942 275 l 1
 942 278 l 1
 935 278 l 1
 927 278 l 1
 927 275 l 1
 927 271 l 1
 922 271 l 1
 917 271 l 1
 917 267 l 1
 917 262 l 1
 909 262 l 1
 901 262 l 1
 901 267 l 1
 901 271 l 1
 910 271 l 1
 910 284 l 1
 910 287 l 1
 908 287 l 1
 905 287 l 1
 905 283 l 1
 905 278 l 1
 901 278 l 1
 895 278 l 1
 895 269 l 1
 895 261 l 1
 895 253 l 1
 906 253 l 1
 917 253 l 1
 917 249 l 1
 917 246 l 1
 922 246 l 1
 927 246 l 1
 927 241 l 1
 927 237 l 1
 914 237 l 1
 901 237 l 1
 901 232 l 1
 901 227 l 1
 906 227 l 1
 911 227 l 1
 911 224 l 1
 911 221 l 1
 906 221 l 1
 901 221 l 1
 901 218 l 1
 901 204 l 1
 871 204 l 1
 871 227 l 1
 878 227 l 1
 886 227 l 1
 886 224 l 1
 886 221 l 1
 890 221 l 1
 895 221 l 1
 895 229 l 1
 895 237 l 1
 886 237 l 1
 876 237 l 1
 876 241 l 1
 876 246 l 1
 873 246 l 1
 871 246 l 1
 871 237 l 1
 871 227 l 1
 865 227 l 1
 860 227 l 1
 860 207 l 1
 860 186 l 1
 852 186 l 1
 845 186 l 1
 845 183 l 1
 845 180 l 1
 840 180 l 1
 835 180 l 1
 835 188 l 1
 835 196 l 1
 830 196 l 1
 826 196 l 1
 826 200 l 1
 826 205 l 1
 815 205 l 1
 803 205 l 1
 803 196 l 1
 803 186 l 1
 799 186 l 1
 794 186 l 1
 794 183 l 1
 794 180 l 1
 802 180 l 1
 810 180 l 1
 810 170 l 1
 810 161 l 1
 797 161 l 1
 785 161 l 1
 785 166 l 1
 785 170 l 1
 781 170 l 1
 778 170 l 1
 778 166 l 1
 778 161 l 1
 773 161 l 1
 769 161 l 1
 769 158 l 1
 769 155 l 1
 764 155 l 1
 759 155 l 1
 759 150 l 1
 759 145 l 1
 748 145 l 1
 737 145 l 1
 737 150 l 1
 737 155 l 1
 732 155 l 1
 728 155 l 1
 728 150 l 1
 728 145 l 1
 710 145 l 1
 693 145 l 1
 693 137 l 1
 693 129 l 1
 698 129 l 1
 702 129 l 1
 702 132 l 1
 702 136 l 1
 706 136 l 1
 718 136 l 1
 718 123 l 1
 718 120 l 1
 715 120 l 1
 712 120 l 1
 712 125 l 1
 712 129 l 1
 707 129 l 1
 702 129 l 1
 702 121 l 1
 702 114 l 1
 698 114 l 1
 693 114 l 1
 693 109 l 1
 693 104 l 1
 698 104 l 1
 702 104 l 1
 702 96 l 1
 702 88 l 1
 698 88 l 1
 693 88 l 1
 693 96 l 1
 693 104 l 1
 690 104 l 1
 687 104 l 1
 687 117 l 1
 687 129 l 1
 682 129 l 1
 677 129 l 1
 677 125 l 1
 677 120 l 1
 672 120 l 1
 668 120 l 1
 668 99 l 1
 668 79 l 1
 665 79 l 1
 661 79 l 1
 661 87 l 1
 661 95 l 1
 644 95 l 1
 627 95 l 1
 627 91 l 1
 627 88 l 1
 619 88 l 1
 611 88 l 1
 611 84 l 1
 611 79 l 1
 603 79 l 1
 595 79 l 1
 595 84 l 1
 595 88 l 1
 582 88 l 1
 570 88 l 1
 570 91 l 1
 570 95 l 1
 565 95 l 1
 560 95 l 1
 560 99 l 1
 560 104 l 1
 557 104 l 1
 554 104 l 1
 554 112 l 1
 554 120 l 1
 549 120 l 1
 544 120 l 1
 544 117 l 1
 544 114 l 1
 540 114 l 1
 535 114 l 1
 535 109 l 1
 535 104 l 1
 532 104 l 1
 529 104 l 1
 529 99 l 1
 529 95 l 1
 516 95 l 1
 503 95 l 1
 503 91 l 1
 503 88 l 1
 544 88 l 1
 544 84 l 1
 544 79 l 1
 549 79 l 1
 554 79 l 1
 554 74 l 1
 554 69 l 1
 549 69 l 1
 544 69 l 1
 544 66 l 1
 544 63 l 1
 537 63 l 1
 529 63 l 1
 529 66 l 1
 529 69 l 1
 537 69 l 1
 544 69 l 1
 544 74 l 1
 544 79 l 1
 532 79 l 1
 519 79 l 1
 519 74 l 1
 519 69 l 1
 514 69 l 1
 510 69 l 1
 510 74 l 1
 510 79 l 1
 502 79 l 1
 494 79 l 1
 494 74 l 1
 494 69 l 1
 491 69 l 1
 488 69 l 1
 488 74 l 1
 488 79 l 1
 483 79 l 1
 478 79 l 1
 478 74 l 1
 478 69 l 1
 473 69 l 1
 469 69 l 1
 469 74 l 1
 469 79 l 1
 465 79 l 1
 462 79 l 1
 462 99 l 1
 462 120 l 1
 453 120 l 1
 443 120 l 1
 443 112 l 1
 443 104 l 1
 448 104 l 1
 453 104 l 1
 453 99 l 1
 453 95 l 1
 445 95 l 1
 437 95 l 1
 437 91 l 1
 437 88 l 1
 445 88 l 1
 453 88 l 1
 453 84 l 1
 453 79 l 1
 458 79 l 1
 462 79 l 1
 462 74 l 1
 462 69 l 1
 453 69 l 1
 443 69 l 1
 443 74 l 1
 443 79 l 1
 435 79 l 1
 428 79 l 1
 428 87 l 1
 428 95 l 1
 420 95 l 1
 412 95 l 1
 412 91 l 1
 412 88 l 1
 407 88 l 1
 402 88 l 1
 402 84 l 1
 402 79 l 1
 399 79 l 1
 396 79 l 1
 396 74 l 1
 396 69 l 1
 391 69 l 1
 387 69 l 1
 387 74 l 1
 387 79 l 1
 382 79 l 1
 377 79 l 1
 377 71 l 1
 377 63 l 1
 374 63 l 1
 371 63 l 1
 371 71 l 1
352 88 m 1
 352 95 l 1
 357 95 l 1
 361 95 l 1
 361 99 l 1
 361 104 l 1
 366 104 l 1
 371 104 l 1
 371 112 l 1
 371 120 l 1
 366 120 l 1
 361 120 l 1
 361 117 l 1
 361 114 l 1
 357 114 l 1
 352 114 l 1
 352 109 l 1
 352 104 l 1
 349 104 l 1
 345 104 l 1
 345 96 l 1
 345 88 l 1
 349 88 l 1
 352 88 l 1
488 91 m 1
 488 95 l 1
 483 95 l 1
 478 95 l 1
 478 91 l 1
 478 88 l 1
 483 88 l 1
 488 88 l 1
 488 91 l 1
627 99 m 1
 627 104 l 1
 619 104 l 1
 611 104 l 1
 611 99 l 1
 611 95 l 1
 619 95 l 1
 627 95 l 1
 627 99 l 1
510 109 m 1
 510 114 l 1
 507 114 l 1
 503 114 l 1
 503 109 l 1
 503 104 l 1
 507 104 l 1
 510 104 l 1
 510 109 l 1
579 109 m 1
 579 114 l 1
 574 114 l 1
 570 114 l 1
 570 109 l 1
 570 104 l 1
 574 104 l 1
 579 104 l 1
 579 109 l 1
652 117 m 1
 652 129 l 1
 649 129 l 1
 646 129 l 1
 646 117 l 1
 646 104 l 1
 649 104 l 1
 652 104 l 1
 652 117 l 1
544 125 m 1
 544 129 l 1
 540 129 l 1
 535 129 l 1
 535 125 l 1
 535 120 l 1
 540 120 l 1
 544 120 l 1
 544 125 l 1
611 150 m 1
 611 155 l 1
 606 155 l 1
 601 155 l 1
 601 150 l 1
 601 145 l 1
 606 145 l 1
 611 145 l 1
 611 150 l 1
462 166 m 1
 462 170 l 1
 475 170 l 1
 488 170 l 1
 488 166 l 1
 488 161 l 1
 511 161 l 1
 535 161 l 1
 535 166 l 1
 535 170 l 1
 544 170 l 1
 554 170 l 1
 554 166 l 1
 554 161 l 1
 570 161 l 1
 586 161 l 1
 586 166 l 1
 586 170 l 1
 593 170 l 1
 601 170 l 1
 601 178 l 1
 601 186 l 1
 595 186 l 1
 595 180 l 1
 587 180 l 1
 579 180 l 1
 579 183 l 1
 579 186 l 1
 574 186 l 1
 570 186 l 1
 570 183 l 1
 570 180 l 1
 544 180 l 1
 519 180 l 1
 519 183 l 1
 519 186 l 1
 524 186 l 1
 529 186 l 1
 529 191 l 1
 529 196 l 1
 537 196 l 1
 544 196 l 1
 544 191 l 1
 544 186 l 1
 552 186 l 1
 560 186 l 1
 560 196 l 1
 560 205 l 1
 565 205 l 1
 570 205 l 1
 570 208 l 1
 570 211 l 1
 578 211 l 1
 586 211 l 1
 586 216 l 1
 586 221 l 1
 590 221 l 1
 595 221 l 1
 595 213 l 1
 595 205 l 1
 598 205 l 1
 601 205 l 1
 601 200 l 1
 601 196 l 1
 606 196 l 1
 611 196 l 1
 611 204 l 1
 611 211 l 1
 606 211 l 1
 601 211 l 1
 601 216 l 1
 601 221 l 1
 611 221 l 1
 620 221 l 1
 620 213 l 1
 620 205 l 1
 627 205 l 1
 627 211 l 1
 631 211 l 1
 636 211 l 1
 636 216 l 1
 636 221 l 1
 644 221 l 1
 652 221 l 1
 652 224 l 1
 652 227 l 1
 657 227 l 1
 661 227 l 1
 661 232 l 1
 661 237 l 1
 665 237 l 1
 668 237 l 1
 668 245 l 1
 668 253 l 1
 672 253 l 1
 677 253 l 1
 677 245 l 1
 677 237 l 1
 682 237 l 1
 687 237 l 1
 687 241 l 1
 687 246 l 1
 695 246 l 1
 702 246 l 1
 702 249 l 1
 702 253 l 1
 710 253 l 1
 718 253 l 1
 718 262 l 1
 718 271 l 1
 723 271 l 1
 728 271 l 1
 728 262 l 1
 728 253 l 1
 732 253 l 1
 737 253 l 1
 737 262 l 1
 737 271 l 1
 745 271 l 1
 753 271 l 1
 753 275 l 1
 753 278 l 1
 766 278 l 1
 778 278 l 1
 778 283 l 1
 778 287 l 1
 773 287 l 1
 769 287 l 1
 769 292 l 1
 769 297 l 1
 753 297 l 1
 737 297 l 1
 737 300 l 1
 737 303 l 1
 748 303 l 1
 759 303 l 1
 759 308 l 1
 759 313 l 1
 751 313 l 1
 743 313 l 1
 743 316 l 1
 743 319 l 1
 748 319 l 1
 753 319 l 1
 753 324 l 1
 753 328 l 1
 740 328 l 1
 728 328 l 1
 728 346 l 1
 728 363 l 1
 720 363 l 1
 712 363 l 1
 712 366 l 1
 712 369 l 1
 707 369 l 1
 702 369 l 1
 702 374 l 1
 702 379 l 1
 699 379 l 1
 687 379 l 1
 687 395 l 1
 682 395 l 1
 677 395 l 1
 677 390 l 1
 677 385 l 1
 672 385 l 1
 668 385 l 1
 668 395 l 1
 668 404 l 1
 661 404 l 1
 655 404 l 1
 645 404 l 1
 645 420 l 1
 633 420 l 1
 620 420 l 1
 620 425 l 1
 620 429 l 1
 611 429 l 1
 601 429 l 1
 601 433 l 1
 601 436 l 1
 586 436 l 1
 570 436 l 1
 570 445 l 1
 570 455 l 1
 565 455 l 1
 560 455 l 1
 560 450 l 1
 560 445 l 1
 532 445 l 1
 503 445 l 1
 503 450 l 1
 503 455 l 1
 483 455 l 1
 462 455 l 1
 462 445 l 1
 462 436 l 1
 458 436 l 1
 453 436 l 1
 453 440 l 1
 453 445 l 1
 440 445 l 1
 428 445 l 1
 428 440 l 1
 428 436 l 1
 420 436 l 1
 412 436 l 1
 412 433 l 1
 412 429 l 1
 407 429 l 1
 402 429 l 1
 402 433 l 2
 402 435 401 436 399 436 c 2
 396 436 l 1
 396 428 l 1
 396 420 l 1
 387 420 l 1
 377 420 l 1
 377 415 l 1
 377 410 l 1
 369 410 l 1
 361 410 l 1
 361 407 l 1
 361 404 l 1
 357 404 l 1
 352 404 l 1
 352 399 l 1
 352 395 l 1
 344 395 l 1
 336 395 l 1
 336 387 l 1
 336 379 l 1
 333 379 l 1
 330 379 l 1
 330 371 l 1
 330 363 l 1
 320 363 l 1
 311 363 l 1
 311 350 l 1
 311 338 l 1
 308 338 l 1
 304 338 l 1
 304 333 l 1
 304 328 l 1
 308 328 l 1
 311 328 l 1
 311 316 l 1
 311 303 l 1
 315 303 l 1
 320 303 l 1
 320 300 l 1
 320 297 l 1
 315 297 l 1
 311 297 l 1
 311 292 l 1
 311 287 l 1
 315 287 l 1
 320 287 l 1
 320 275 l 1
 320 262 l 1
 325 262 l 1
 330 262 l 1
 330 247 l 1
 345 247 l 1
 345 241 l 1
 345 237 l 1
 349 237 l 1
 352 237 l 1
 352 232 l 1
 352 227 l 1
 369 227 l 1
 387 227 l 1
 387 224 l 1
 387 221 l 1
 382 221 l 1
 377 221 l 1
 377 216 l 1
 377 211 l 1
 382 211 l 1
 387 211 l 1
 387 208 l 1
 387 205 l 1
 407 205 l 1
 428 205 l 1
 428 200 l 1
 428 196 l 1
 432 196 l 1
 437 196 l 1
 437 188 l 1
 437 180 l 1
 432 180 l 1
 428 180 l 1
 428 188 l 1
 428 196 l 1
 415 196 l 1
 402 196 l 1
 402 191 l 1
 402 187 l 1
 407 187 l 1
 412 187 l 1
 412 183 l 1
 412 180 l 1
 420 180 l 1
 428 180 l 1
 428 175 l 1
 428 170 l 1
 440 170 l 1
 453 170 l 1
 453 166 l 1
 453 161 l 1
 458 161 l 1
 462 161 l 1
 462 166 l 1
453 183 m 1
 453 186 l 1
 448 186 l 1
 443 186 l 1
 443 199 l 1
 443 211 l 1
 440 211 l 1
 437 211 l 1
 437 216 l 1
 437 221 l 1
 429 221 l 1
 421 221 l 1
 421 224 l 1
 421 227 l 1
 417 227 l 1
 412 227 l 1
 412 232 l 1
 412 237 l 1
 407 237 l 1
 402 237 l 1
 402 241 l 1
 402 246 l 1
 399 246 l 1
 396 246 l 1
 396 254 l 1
 396 262 l 1
 391 262 l 1
 387 262 l 1
 387 270 l 1
 387 278 l 1
 382 278 l 1
 377 278 l 1
 377 290 l 1
 377 303 l 1
 374 303 l 1
 371 303 l 1
 371 308 l 1
 371 313 l 1
 374 313 l 1
 377 313 l 1
 377 333 l 1
 377 354 l 1
 382 354 l 1
 387 354 l 1
 387 362 l 1
 387 369 l 1
 391 369 l 1
 396 369 l 1
 396 377 l 1
 396 385 l 1
 399 385 l 1
 402 385 l 1
 402 390 l 1
 402 395 l 1
 407 395 l 1
 412 395 l 1
 412 403 l 1
 412 410 l 1
 420 410 l 1
 428 410 l 1
 428 415 l 1
 428 420 l 1
 445 420 l 1
 462 420 l 1
 462 425 l 1
 462 429 l 1
 486 429 l 1
 510 429 l 1
 510 425 l 1
 510 420 l 1
 519 420 l 1
 529 420 l 1
 529 415 l 1
 529 410 l 1
 537 410 l 1
 544 410 l 1
 544 407 l 1
 544 404 l 1
 549 404 l 1
 554 404 l 1
 554 399 l 1
 554 395 l 1
 557 395 l 1
 560 395 l 1
 560 390 l 1
 560 385 l 1
 565 385 l 1
 570 385 l 1
 570 377 l 1
 570 369 l 1
 554 369 l 1
 538 369 l 1
 531 369 l 1
 531 357 l 1
 531 354 l 1
 524 354 l 1
 519 354 l 1
 519 341 l 1
 519 328 l 1
 524 328 l 1
 529 328 l 1
 529 324 l 1
 529 319 l 1
 541 319 l 1
 554 319 l 1
 554 324 l 1
 554 328 l 1
 562 328 l 1
 570 328 l 1
 570 333 l 1
 570 338 l 1
 574 338 l 1
 579 338 l 1
 579 346 l 1
 579 354 l 1
 582 354 l 1
 586 354 l 1
 586 346 l 1
 586 338 l 1
 590 338 l 1
 595 338 l 1
 595 317 l 1
 595 297 l 1
 590 297 l 1
 586 297 l 1
 586 284 l 1
 586 271 l 1
 582 271 l 1
 579 271 l 1
 579 262 l 1
 579 253 l 1
 574 253 l 1
 570 253 l 1
 570 245 l 1
 570 237 l 1
 565 237 l 1
 560 237 l 1
 560 220 l 1
 544 220 l 1
 544 213 l 1
 544 205 l 1
 527 205 l 1
 510 205 l 1
 510 200 l 1
 510 196 l 1
 507 196 l 1
 503 196 l 1
 503 200 l 1
 503 205 l 1
 483 205 l 1
 462 205 l 1
 462 200 l 1
 462 196 l 1
 458 196 l 1
 453 196 l 1
 453 191 l 1
 453 186 l 1
 458 186 l 1
 462 186 l 1
 462 191 l 1
 462 196 l 1
 470 196 l 1
 478 196 l 1
 478 191 l 1
 478 186 l 1
 473 186 l 1
 469 186 l 1
 469 183 l 1
 469 180 l 1
 461 180 l 1
 453 180 l 1
 453 183 l 1
494 183 m 1
 494 186 l 1
 499 186 l 1
 503 186 l 1
 503 183 l 1
 503 180 l 1
 499 180 l 1
 494 180 l 1
 494 183 l 1
627 175 m 1
 627 180 l 1
 619 180 l 1
 611 180 l 1
 611 175 l 1
 611 170 l 1
 619 170 l 1
 627 170 l 1
 627 175 l 1
636 191 m 1
 636 196 l 1
 631 196 l 1
 627 196 l 1
 627 191 l 1
 627 186 l 1
 631 186 l 1
 636 186 l 1
 636 191 l 1
778 191 m 1
 778 196 l 1
 773 196 l 1
 769 196 l 1
 769 191 l 1
 769 186 l 1
 773 186 l 1
 778 186 l 1
 778 191 l 1
693 200 m 1
 693 205 l 1
 698 205 l 1
 702 205 l 1
 702 208 l 1
 702 211 l 1
 687 211 l 1
 687 196 l 1
 690 196 l 1
 693 196 l 1
 693 200 l 1
737 208 m 1
 737 211 l 1
 728 211 l 1
 718 211 l 1
 718 208 l 1
 718 205 l 1
 728 205 l 1
 737 205 l 1
 737 208 l 1
851 208 m 1
 851 211 l 1
 843 211 l 1
 835 211 l 1
 835 208 l 1
 835 205 l 1
 843 205 l 1
 851 205 l 1
 851 208 l 1
824 228 m 1
 810 228 l 1
 810 219 l 1
 810 211 l 1
 818 211 l 1
 824 211 l 1
 824 228 l 1
753 224 m 1
 753 227 l 1
 745 227 l 1
 737 227 l 1
 737 224 l 1
 737 221 l 1
 745 221 l 1
 753 221 l 1
 753 224 l 1
778 229 m 1
 778 237 l 1
 773 237 l 1
 769 237 l 1
 769 241 l 1
 769 246 l 1
 777 246 l 1
 785 246 l 1
 785 237 l 1
 785 227 l 1
 789 227 l 1
 794 227 l 1
 794 237 l 1
 794 246 l 1
 789 246 l 1
 785 246 l 1
 785 254 l 1
 785 262 l 1
 789 262 l 1
 794 262 l 1
 794 267 l 1
 794 271 l 1
 781 271 l 1
 769 271 l 1
 769 267 l 1
 769 262 l 1
 773 262 l 1
 778 262 l 1
 778 257 l 1
 778 253 l 1
 773 253 l 1
 769 253 l 1
 769 249 l 1
 769 246 l 1
 764 246 l 1
 759 246 l 1
 759 249 l 1
 759 253 l 1
 751 253 l 1
 743 253 l 1
 743 249 l 1
 743 246 l 1
 751 246 l 1
 759 246 l 1
 759 234 l 1
 759 221 l 1
 769 221 l 1
 778 221 l 1
 778 229 l 1
712 241 m 1
 712 246 l 1
 707 246 l 1
 702 246 l 1
 702 241 l 1
 702 237 l 1
 707 237 l 1
 712 237 l 1
 712 241 l 1
819 245 m 1
 819 253 l 1
 815 253 l 1
 810 253 l 1
 810 245 l 1
 810 237 l 1
 815 237 l 1
 819 237 l 1
 819 245 l 1
870 257 m 1
 870 262 l 1
 860 262 l 1
 851 262 l 1
 851 257 l 1
 851 253 l 1
 860 253 l 1
 870 253 l 1
 870 257 l 1
304 283 m 1
 304 287 l 1
 300 287 l 1
 295 287 l 1
 295 283 l 1
 295 278 l 1
 300 278 l 1
 304 278 l 1
 304 283 l 1
936 295 m 1
 936 303 l 1
 931 303 l 1
 927 303 l 1
 927 295 l 1
 927 287 l 1
 931 287 l 1
 936 287 l 1
 936 295 l 1
860 316 m 1
 860 319 l 1
 852 319 l 1
 845 319 l 1
 845 316 l 1
 845 313 l 1
 852 313 l 1
 860 313 l 1
 860 316 l 1
794 333 m 1
 794 338 l 1
 789 338 l 1
 785 338 l 1
 785 333 l 1
 785 328 l 1
 789 328 l 1
 794 328 l 1
 794 333 l 1
845 341 m 1
 845 344 l 1
 840 344 l 1
 835 344 l 1
 835 341 l 1
 835 338 l 1
 840 338 l 1
 845 338 l 1
 845 341 l 1
876 358 m 1
 876 363 l 1
 864 363 l 1
 851 363 l 1
 851 358 l 1
 851 354 l 1
 864 354 l 1
 876 354 l 1
 876 358 l 1
819 366 m 1
 819 369 l 1
 815 369 l 1
 810 369 l 1
 810 366 l 1
 810 363 l 1
 815 363 l 1
 819 363 l 1
 819 366 l 1
737 374 m 1
 737 379 l 1
 740 379 l 1
 743 379 l 1
 743 374 l 1
 743 369 l 1
 751 369 l 1
 759 369 l 1
 759 384 l 1
 743 384 l 1
 743 390 l 1
 743 395 l 1
 740 395 l 1
 737 395 l 1
 737 390 l 1
 737 385 l 1
 732 385 l 1
 728 385 l 1
 728 377 l 1
 728 369 l 1
 732 369 l 1
 737 369 l 1
 737 374 l 1
835 374 m 1
 835 379 l 1
 840 379 l 1
 845 379 l 1
 845 392 l 1
 845 404 l 1
 840 404 l 1
 835 404 l 1
 835 399 l 1
 835 395 l 1
 830 395 l 1
 826 395 l 1
 826 382 l 1
 826 369 l 1
 830 369 l 1
 835 369 l 1
 835 374 l 1
718 390 m 1
 718 395 l 1
 723 395 l 1
 728 395 l 1
 728 399 l 1
 728 404 l 1
 714 404 l 1
 714 420 l 1
 707 420 l 1
 702 420 l 1
 702 425 l 1
 702 429 l 1
 698 429 l 1
 693 429 l 1
 693 425 l 1
 693 420 l 1
 690 420 l 1
 687 420 l 1
 687 425 l 1
 687 429 l 1
 674 429 l 1
 661 429 l 1
 661 425 l 1
 661 420 l 1
 669 420 l 1
 677 420 l 1
 677 415 l 1
 677 410 l 1
 685 410 l 1
 693 410 l 1
 693 407 l 1
 693 404 l 1
 698 404 l 1
 702 404 l 1
 702 395 l 1
 702 385 l 1
 710 385 l 1
 718 385 l 1
 718 390 l 1
803 390 m 1
 803 395 l 1
 799 395 l 1
 794 395 l 1
 794 390 l 1
 794 385 l 1
 799 385 l 1
 803 385 l 1
 803 390 l 1
860 390 m 1
 860 395 l 1
 856 395 l 1
 851 395 l 1
 851 390 l 1
 851 385 l 1
 856 385 l 1
 860 385 l 1
 860 390 l 1
778 415 m 1
 778 420 l 1
 773 420 l 1
 769 420 l 1
 769 415 l 1
 769 410 l 1
 773 410 l 1
 778 410 l 1
 778 415 l 1
759 425 m 1
 759 429 l 1
 756 429 l 1
 753 429 l 1
 753 425 l 1
 753 420 l 1
 756 420 l 1
 759 420 l 1
 759 425 l 1
646 440 m 1
 646 445 l 1
 653 445 l 1
 661 445 l 1
 661 440 l 1
 661 436 l 1
 665 436 l 1
 668 436 l 1
 668 440 l 1
 668 445 l 1
 665 445 l 1
 661 445 l 1
 661 450 l 1
 661 455 l 1
 653 455 l 1
 646 455 l 1
 646 458 l 1
 646 461 l 1
 636 461 l 1
 627 461 l 1
 627 466 l 1
 627 470 l 1
 619 470 l 1
 611 470 l 1
 611 474 l 1
 611 477 l 1
 606 477 l 1
 601 477 l 1
 601 474 l 1
 601 470 l 1
 590 470 l 1
 579 470 l 1
 579 474 l 1
 579 477 l 1
 574 477 l 1
 570 477 l 1
 570 469 l 1
 570 461 l 1
 582 461 l 1
 595 461 l 1
 595 458 l 1
 595 455 l 1
 603 455 l 1
 611 455 l 1
 611 450 l 1
 611 445 l 1
 616 445 l 1
 620 445 l 1
 620 450 l 1
 620 455 l 1
 623 455 l 1
 627 455 l 1
 627 450 l 1
 627 445 l 1
 631 445 l 1
 636 445 l 1
 636 440 l 1
 636 436 l 1
 641 436 l 1
 646 436 l 1
 646 440 l 1
718 445 m 1
 718 455 l 1
 715 455 l 1
 712 455 l 1
 712 445 l 1
 712 436 l 1
 715 436 l 1
 718 436 l 1
 718 445 l 1
759 440 m 1
 759 445 l 1
 756 445 l 1
 753 445 l 1
 753 440 l 1
 753 436 l 1
 756 436 l 1
 759 436 l 1
 759 440 l 1
421 463 m 1
 421 470 l 1
 417 470 l 1
 412 470 l 1
 412 463 l 1
 412 455 l 1
 417 455 l 1
 421 455 l 1
 421 463 l 1
402 466 m 1
 402 470 l 1
 399 470 l 1
 396 470 l 1
 396 466 l 1
 396 461 l 1
 399 461 l 1
 402 461 l 1
 402 466 l 1
443 465 m 1
 443 470 l 1
 443 477 l 1
 443 482 l 1
 443 486 l 1
 440 486 l 1
 437 486 l 1
 437 482 l 1
 437 477 l 1
 432 477 l 1
 428 477 l 1
 428 474 l 1
 428 470 l 1
 432 470 l 1
 437 470 l 1
 437 466 l 1
 437 461 l 1
 440 461 l 1
 443 461 l 1
 443 465 l 1
488 474 m 1
 488 486 l 1
 478 486 l 1
 469 486 l 1
 469 482 l 1
 469 477 l 1
 461 477 l 1
 453 477 l 1
 453 469 l 1
 453 461 l 1
 470 461 l 1
 488 461 l 1
 488 474 l 1
519 466 m 1
 519 470 l 1
 514 470 l 1
 510 470 l 1
 510 466 l 1
 510 461 l 1
 514 461 l 1
 519 461 l 1
 519 466 l 1
560 464 m 1
 560 476 l 1
 551 476 l 1
 540 476 l 1
 529 476 l 1
 529 471 l 1
 535 471 l 1
 535 466 l 1
 535 461 l 1
 548 461 l 1
 560 461 l 1
 560 464 l 1
687 466 m 1
 687 470 l 1
 682 470 l 1
 677 470 l 1
 677 466 l 1
 677 461 l 1
 682 461 l 1
 687 461 l 1
 687 466 l 1
535 491 m 1
 535 496 l 1
 532 496 l 1
 529 496 l 1
 529 491 l 1
 529 486 l 1
 532 486 l 1
 535 486 l 1
 535 491 l 1
519 499 m 1
 519 502 l 1
 514 502 l 1
 510 502 l 1
 510 507 l 1
 510 512 l 1
 514 512 l 1
 519 512 l 1
 519 516 l 1
 519 521 l 1
 511 521 l 1
 503 521 l 1
 503 516 l 1
 503 512 l 1
 499 512 l 1
 494 512 l 1
 494 507 l 1
 494 502 l 1
 502 502 l 1
 510 502 l 1
 510 499 l 1
 510 496 l 1
 514 496 l 1
 519 496 l 1
 519 499 l 1
377 507 m 1
 377 512 l 1
 374 512 l 1
 371 512 l 1
 371 507 l 1
 371 502 l 1
 374 502 l 1
 377 502 l 1
 377 507 l 1
535 507 m 1
 535 512 l 1
 532 512 l 1
 529 512 l 1
 529 507 l 1
 529 502 l 1
 532 502 l 1
 535 502 l 1
 535 507 l 1
295 516 m 1
 295 521 l 1
 290 521 l 1
 286 521 l 1
 286 525 l 1
 286 529 l 1
 278 529 l 1
 278 523 l 1
 281 523 l 1
 286 523 l 1
 286 516 l 1
 286 512 l 1
 290 512 l 1
 295 512 l 1
 295 516 l 1
336 516 m 1
 336 521 l 1
 333 521 l 1
 330 521 l 1
 330 516 l 1
 330 512 l 1
 333 512 l 1
 336 512 l 1
 336 516 l 1
469 516 m 1
 469 521 l 1
 465 521 l 1
 462 521 l 1
 462 516 l 1
 462 512 l 1
 465 512 l 1
 469 512 l 1
 469 516 l 1
320 524 m 1
 320 527 l 1
 328 527 l 1
 336 527 l 1
 336 532 l 1
 336 537 l 1
 333 537 l 1
 330 537 l 1
 330 542 l 1
 330 546 l 1
 345 546 l 1
 361 546 l 1
 361 542 l 1
 361 537 l 1
 353 537 l 1
 345 537 l 1
 345 532 l 1
 345 527 l 1
 358 527 l 1
 371 527 l 1
 371 532 l 1
 371 537 l 1
 374 537 l 1
 377 537 l 1
 377 542 l 1
 377 546 l 1
 369 546 l 1
 361 546 l 1
 361 549 l 1
 361 553 l 1
 357 553 l 1
 352 553 l 1
 352 557 l 1
 352 562 l 1
 349 562 l 1
 345 562 l 1
 345 557 l 1
 345 553 l 1
 333 553 l 1
 320 553 l 1
 320 549 l 1
 320 546 l 1
 303 546 l 1
 285 546 l 1
 285 542 l 1
 285 537 l 1
 290 537 l 1
 295 537 l 1
 295 532 l 1
 295 527 l 1
 300 527 l 1
 304 527 l 1
 304 532 l 1
 304 537 l 1
 308 537 l 1
 311 537 l 1
 311 529 l 1
 311 521 l 1
 315 521 l 1
 320 521 l 1
 320 524 l 1
387 532 m 1
 387 537 l 1
 382 537 l 1
 377 537 l 1
 377 532 l 1
 377 527 l 1
 382 527 l 1
 387 527 l 1
 387 532 l 1
412 542 m 1
 412 546 l 1
 404 546 l 1
 396 546 l 1
 396 542 l 1
 396 537 l 1
 404 537 l 1
 412 537 l 1
 412 542 l 1
437 542 m 1
 437 546 l 1
 432 546 l 1
 428 546 l 1
 428 553 l 1
 421 553 l 1
 421 545 l 1
 421 537 l 1
 429 537 l 1
 437 537 l 1
 437 542 l 1
263 557 m 1
 263 562 l 1
 259 562 l 1
 254 562 l 1
 254 557 l 1
 254 553 l 1
 259 553 l 1
 263 553 l 1
 263 557 l 1
311 570 m 1
 311 578 l 1
 308 578 l 1
 304 578 l 1
 304 573 l 1
 304 568 l 1
 300 568 l 1
 295 568 l 1
 295 565 l 1
 295 562 l 1
 303 562 l 1
 311 562 l 1
 311 570 l 1
330 565 m 1
 330 568 l 1
 325 568 l 1
 320 568 l 1
 320 565 l 1
 320 562 l 1
 325 562 l 1
 330 562 l 1
 330 565 l 1
361 598 m 1
 361 603 l 1
 357 603 l 1
 352 603 l 1
 352 598 l 1
 352 594 l 1
 357 594 l 1
 361 594 l 1
 361 598 l 1
595 66 m 1
 595 69 l 1
 603 69 l 1
 611 69 l 1
 611 66 l 1
 611 63 l 1
 603 63 l 1
 595 63 l 1
 595 66 l 1
627 66 m 1
 627 69 l 1
 631 69 l 1
 636 69 l 1
 636 66 l 1
 636 63 l 1
 631 63 l 1
 627 63 l 1
 627 66 l 1
402 74 m 1
 402 79 l 1
 407 79 l 1
 412 79 l 1
 412 74 l 1
 412 69 l 1
 407 69 l 1
 402 69 l 1
 402 74 l 1
544 99 m 1
 544 104 l 1
 549 104 l 1
 554 104 l 1
 554 99 l 1
 554 95 l 1
 549 95 l 1
 544 95 l 1
 544 99 l 1
728 128 m 1
 728 136 l 1
 748 136 l 1
 753 136 l 1
 753 132 l 1
 753 129 l 1
 748 129 l 1
 743 129 l 1
 743 125 l 1
 743 120 l 1
 736 120 l 1
 728 120 l 1
 728 128 l 1
769 150 m 1
 769 155 l 1
 773 155 l 1
 778 155 l 1
 778 150 l 1
 778 145 l 1
 773 145 l 1
 769 145 l 1
 769 150 l 1
819 186 m 1
 815 186 l 1
 810 186 l 1
 810 191 l 1
 810 196 l 1
 815 196 l 1
 819 196 l 1
 819 191 l 1
 819 186 l 1
45 208 m 1
 45 211 l 1
 50 211 l 1
 55 211 l 1
 55 208 l 1
 55 205 l 1
 50 205 l 1
 45 205 l 1
 45 208 l 1
942 257 m 1
 942 262 l 1
 947 262 l 1
 952 262 l 1
 952 257 l 1
 952 253 l 1
 947 253 l 1
 942 253 l 1
 942 257 l 1
927 267 m 1
 927 271 l 1
 931 271 l 1
 936 271 l 1
 936 267 l 1
 936 262 l 1
 931 262 l 1
 927 262 l 1
 927 267 l 1
977 283 m 1
 977 287 l 1
 980 287 l 1
 984 287 l 1
 984 283 l 1
 984 278 l 1
 980 278 l 1
 977 278 l 1
 977 283 l 1
917 341 m 1
 917 344 l 1
 922 344 l 1
 927 344 l 1
 927 349 l 1
 927 354 l 1
 931 354 l 1
 936 354 l 1
 936 349 l 1
 936 344 l 1
 931 344 l 1
 927 344 l 1
 927 341 l 1
 927 338 l 1
 922 338 l 1
 917 338 l 1
 917 341 l 1
917 366 m 1
 917 369 l 1
 922 369 l 1
 927 369 l 1
 927 366 l 1
 927 363 l 1
 922 363 l 1
 917 363 l 1
 917 366 l 1
810 440 m 1
 810 445 l 1
 815 445 l 1
 819 445 l 1
 819 440 l 1
 819 436 l 1
 815 436 l 1
 810 436 l 1
 810 440 l 1
718 491 m 1
 718 496 l 1
 723 496 l 1
 728 496 l 1
 728 491 l 1
 728 486 l 1
 723 486 l 1
 718 486 l 1
 718 491 l 1
387 616 m 1
 387 619 l 1
 382 619 l 1
 377 619 l 1
 377 624 l 1
 377 628 l 1
 387 628 l 1
 396 628 l 1
 396 633 l 1
 396 638 l 1
 409 638 l 1
 421 638 l 1
 421 633 l 1
 421 628 l 1
 424 628 l 1
 428 628 l 1
 428 633 l 1
 428 638 l 1
 432 638 l 1
 437 638 l 1
 437 633 l 1
 437 628 l 1
 432 628 l 1
 428 628 l 1
 428 624 l 1
 428 619 l 1
 424 619 l 1
 421 619 l 1
 421 624 l 1
 421 628 l 1
 412 628 l 1
 402 628 l 1
 402 621 l 1
 402 613 l 1
 394 613 l 1
 387 613 l 1
 387 616 l 1
453 616 m 1
 453 619 l 1
 458 619 l 1
 462 619 l 1
 462 616 l 1
 462 613 l 1
 458 613 l 1
 453 613 l 1
 453 616 l 1
EndSplineSet
Validated: 133
EndChar

StartChar: colon
Encoding: 58 58 26
Width: 605
Flags: HW
LayerCount: 2
Fore
SplineSet
464 0 m 1
 394 0 l 1
 84 739 l 1
 154 739 l 1
 464 0 l 1
EndSplineSet
Validated: 1
EndChar

StartChar: semicolon
Encoding: 59 59 27
Width: 1005
Flags: HW
LayerCount: 2
Fore
SplineSet
584 560 m 1
 553 560 l 1
 551 573.333 546 583 538 589 c 0
 529.333 595.667 517.333 599 502 599 c 0
 487.333 599 475.833 595.833 467.5 589.5 c 128
 459.167 583.167 453.667 573.333 451 560 c 1
 420 560 l 1
 422 584.667 429.833 603.333 443.5 616 c 128
 457.167 628.667 476.667 635 502 635 c 128
 527.333 635 546.833 628.667 560.5 616 c 128
 574.167 603.333 582 584.667 584 560 c 1
797 485 m 1
 766 485 l 1
 764 497.667 758.667 507.333 750 514 c 0
 742 520.667 730.333 524 715 524 c 0
 700.333 524 688.667 520.833 680 514.5 c 128
 671.333 508.167 666 498.333 664 485 c 1
 633 485 l 1
 635 509.667 642.833 528.333 656.5 541 c 128
 670.167 553.667 689.667 560 715 560 c 128
 740.333 560 759.833 553.667 773.5 541 c 128
 787.167 528.333 795 509.667 797 485 c 1
371 485 m 1
 340 485 l 1
 338.667 497.667 333.667 507.333 325 514 c 128
 316.333 520.667 304.333 524 289 524 c 0
 274.333 524 262.833 520.833 254.5 514.5 c 128
 246.167 508.167 241 498.333 239 485 c 1
 208 485 l 1
 209.333 509.667 217 528.333 231 541 c 128
 245 553.667 264.5 560 289.5 560 c 128
 314.5 560 334 553.667 348 541 c 128
 362 528.333 369.667 509.667 371 485 c 1
797 121 m 1
 766 121 l 1
 764 133.667 758.667 143.333 750 150 c 0
 742 156.667 730.333 160 715 160 c 0
 700.333 160 688.667 156.833 680 150.5 c 128
 671.333 144.167 666 134.333 664 121 c 1
 633 121 l 1
 635 145.667 642.833 164.333 656.5 177 c 128
 670.167 189.667 689.667 196 715 196 c 128
 740.333 196 759.833 189.667 773.5 177 c 128
 787.167 164.333 795 145.667 797 121 c 1
371 121 m 1
 340 121 l 1
 338.667 133.667 333.667 143.333 325 150 c 128
 316.333 156.667 304.333 160 289 160 c 0
 274.333 160 262.833 156.833 254.5 150.5 c 128
 246.167 144.167 241 134.333 239 121 c 1
 208 121 l 1
 209.333 145.667 217 164.333 231 177 c 128
 245 189.667 264.5 196 289.5 196 c 128
 314.5 196 334 189.667 348 177 c 128
 362 164.333 369.667 145.667 371 121 c 1
885 303 m 1
 854 303 l 1
 852 315.667 846.667 325.333 838 332 c 0
 830 338.667 818.333 342 803 342 c 0
 788.333 342 776.833 338.833 768.5 332.5 c 128
 760.167 326.167 754.667 316.333 752 303 c 1
 721 303 l 1
 723 327.667 730.833 346.333 744.5 359 c 128
 758.167 371.667 777.667 378 803 378 c 128
 828.333 378 847.833 371.667 861.5 359 c 128
 875.167 346.333 883 327.667 885 303 c 1
283 303 m 1
 252 303 l 1
 250 315.667 245 325.333 237 332 c 0
 228.333 338.667 216.333 342 201 342 c 0
 186.333 342 174.833 338.833 166.5 332.5 c 128
 158.167 326.167 152.667 316.333 150 303 c 1
 120 303 l 1
 121.333 327.667 128.833 346.333 142.5 359 c 128
 156.167 371.667 175.667 378 201 378 c 128
 226.333 378 246 371.667 260 359 c 128
 274 346.333 281.667 327.667 283 303 c 1
584 45 m 1
 553 45 l 1
 551 58.3333 546 68.3333 538 75 c 0
 529.333 81 517.333 84 502 84 c 0
 487.333 84 475.833 80.8333 467.5 74.5 c 128
 459.167 68.1667 453.667 58.3333 451 45 c 1
 420 45 l 1
 422 70.3333 429.833 89.1667 443.5 101.5 c 128
 457.167 113.833 476.667 120 502 120 c 128
 527.333 120 546.833 113.833 560.5 101.5 c 128
 574.167 89.1667 582 70.3333 584 45 c 1
EndSplineSet
Validated: 33
EndChar

StartChar: equal
Encoding: 61 61 28
Width: 810
Flags: HW
LayerCount: 2
Fore
SplineSet
790 186 m 2
 790 94 774.833 32.8333 744.5 2.5 c 128
 714.167 -27.8333 653 -43 561 -43 c 2
 249 -43 l 2
 157 -43 95.8333 -27.8333 65.5 2.5 c 128
 35.1667 32.8333 20 94 20 186 c 2
 20 250 l 2
 20 338 33.1667 397.333 59.5 428 c 128
 85.8333 458.667 136.333 475.333 211 478 c 1
 211 534 l 1
 392 715 l 1
 599 715 l 1
 599 478 l 1
 673.667 475.333 724.167 458.5 750.5 427.5 c 128
 776.833 396.5 790 337.333 790 250 c 2
 790 186 l 2
386 541 m 1
 386 652 l 1
 274 541 l 1
 386 541 l 1
559 177 m 1
 559 675 l 1
 426 675 l 1
 426 501 l 1
 251 501 l 1
 251 177 l 1
 559 177 l 1
750 186 m 2
 750 250 l 2
 750 326.667 740.333 376.667 721 400 c 128
 701.667 423.333 661 436 599 438 c 1
 599 137 l 1
 211 137 l 1
 211 438 l 1
 148.333 436 107.5 423.333 88.5 400 c 128
 69.5 376.667 60 326.667 60 250 c 2
 60 186 l 2
 60 105.333 71.5 53.6667 94.5 31 c 128
 117.5 8.33333 169 -3 249 -3 c 2
 561 -3 l 2
 641.667 -3 693.333 8.5 716 31.5 c 128
 738.667 54.5 750 106 750 186 c 2
EndSplineSet
Validated: 1
EndChar

StartChar: greater
Encoding: 62 62 29
Width: 809
Flags: HW
LayerCount: 2
Fore
SplineSet
694 293 m 1
 115 293 l 1
 404 615 l 1
 694 293 l 1
694 0 m 1
 115 0 l 1
 115 189 l 1
 694 189 l 1
 694 0 l 1
EndSplineSet
Validated: 1
EndChar

StartChar: question
Encoding: 63 63 30
Width: 761
Flags: HW
LayerCount: 2
Fore
SplineSet
761 -200 m 1
 0 -200 l 1
 0 -75 l 1
 761 -75 l 1
 761 -200 l 1
EndSplineSet
Validated: 1
EndChar

StartChar: at
Encoding: 64 64 31
Width: 560
Flags: HW
LayerCount: 2
Fore
SplineSet
405 175 m 1
 342 175 l 1
 342 112 l 1
 218 112 l 1
 218 175 l 1
 342 175 l 1
 342 238 l 1
 405 238 l 1
 405 175 l 1
218 300 m 1
 155 300 l 1
 155 362 l 1
 218 362 l 1
 218 300 l 1
405 300 m 1
 342 300 l 1
 342 362 l 1
 405 362 l 1
 405 300 l 1
155 50 m 1
 405 50 l 1
 405 -12 l 1
 155 -12 l 1
 155 50 l 1
155 50 m 1
 92 50 l 1
 92 112 l 1
 155 112 l 1
 155 50 l 1
405 50 m 1
 405 112 l 1
 468 112 l 1
 468 50 l 1
 405 50 l 1
92 112 m 1
 30 112 l 1
 30 175 l 1
 30 238 l 1
 30 300 l 1
 30 362 l 1
 30 425 l 1
 92 425 l 1
 92 362 l 1
 92 300 l 1
 92 238 l 1
 92 175 l 1
 92 112 l 1
468 112 m 1
 468 175 l 1
 468 238 l 1
 468 300 l 1
 468 362 l 1
 468 425 l 1
 530 425 l 1
 530 362 l 1
 530 300 l 1
 530 238 l 1
 530 175 l 1
 530 112 l 1
 468 112 l 1
218 175 m 1
 155 175 l 1
 155 238 l 1
 218 238 l 1
 218 175 l 1
92 425 m 1
 92 488 l 1
 155 488 l 1
 155 425 l 1
 92 425 l 1
468 425 m 1
 405 425 l 1
 405 488 l 1
 468 488 l 1
 468 425 l 1
155 488 m 1
 155 550 l 1
 405 550 l 1
 405 488 l 1
 155 488 l 1
EndSplineSet
Validated: 5
EndChar

StartChar: A
Encoding: 65 65 32
Width: 1000
Flags: HW
LayerCount: 2
Fore
SplineSet
761 -200 m 1
 0 -200 l 1
 0 425 l 1
 761 425 l 1
 761 -200 l 1
EndSplineSet
Validated: 1
EndChar

StartChar: B
Encoding: 66 66 33
Width: 775
Flags: HW
LayerCount: 2
Fore
SplineSet
89 -27 m 1
 686 -27 l 1
 387 571 l 1
 89 -27 l 1
6 -83 m 1
 387 683 l 1
 769 -83 l 1
 6 -83 l 1
EndSplineSet
Validated: 1
EndChar

StartChar: C
Encoding: 67 67 34
Width: 1123
Flags: HW
LayerCount: 2
Fore
SplineSet
581 442 m 1
 581 454 l 2
 581 463.333 582.167 474.833 584.5 488.5 c 128
 586.833 502.167 589.667 517.333 593 534 c 128
 596.333 550.667 602.667 567.333 612 584 c 128
 621.333 600.667 632.5 616 645.5 630 c 128
 658.5 644 676 655.167 698 663.5 c 128
 720 671.833 744.667 676 772 676 c 0
 795.333 676 817.167 671.833 837.5 663.5 c 128
 857.833 655.167 875.5 643.833 890.5 629.5 c 128
 905.5 615.167 917.5 597.833 926.5 577.5 c 128
 935.5 557.167 940.833 536 942.5 514 c 128
 944.167 492 941 468 933 442 c 128
 925 416 912 390.667 894 366 c 2
 581 -47 l 1
 581 442 l 1
542 442 m 1
 542 -47 l 1
 229 366 l 2
 211 390.667 198 416 190 442 c 128
 182 468 178.833 492 180.5 514 c 128
 182.167 536 187.5 557.167 196.5 577.5 c 128
 205.5 597.833 217.5 615.167 232.5 629.5 c 128
 247.5 643.833 265.333 655.167 286 663.5 c 128
 306.667 671.833 328.333 676 351 676 c 0
 378.333 676 403 671.833 425 663.5 c 128
 447 655.167 464.5 644 477.5 630 c 128
 490.5 616 501.667 600.667 511 584 c 128
 520.333 567.333 526.833 550.667 530.5 534 c 128
 534.167 517.333 537 502.167 539 488.5 c 128
 541 474.833 542 463.333 542 454 c 2
 542 442 l 1
EndSplineSet
Validated: 33
EndChar

StartChar: D
Encoding: 68 68 35
Width: 1030
Flags: HW
LayerCount: 2
Fore
SplineSet
515 447 m 128
 489 447 467 438 449 420 c 128
 431 402 422 380 422 354 c 128
 422 328 431 306.167 449 288.5 c 128
 467 270.833 489 262 515 262 c 128
 541 262 563 270.833 581 288.5 c 128
 599 306.167 608 327.833 608 353.5 c 128
 608 379.167 599 401.167 581 419.5 c 128
 563 437.833 541 447 515 447 c 128
515 510 m 0
 535.667 510 555.667 506 575 498 c 128
 594.333 490 611 478.667 625 464 c 0
 639.667 449.333 650.833 432.667 658.5 414 c 128
 666.167 395.333 670 375.333 670 354 c 0
 670 310.667 654.833 274.167 624.5 244.5 c 128
 594.167 214.833 557.333 200 514 200 c 0
 470 200 433.333 214.667 404 244 c 128
 374.667 273.333 360 310 360 354 c 0
 360 397.333 375 434.167 405 464.5 c 128
 435 494.833 471.667 510 515 510 c 0
515 610 m 128
 480.333 610 447.667 603.667 417 591 c 0
 387 577.667 359.667 558.667 335 534 c 128
 310.333 509.333 291.833 482 279.5 452 c 128
 267.167 422 261 389.333 261 354 c 0
 261 319.333 267.167 287 279.5 257 c 128
 291.833 227 310.333 199.667 335 175 c 0
 359.667 149.667 387 130.667 417 118 c 0
 447.667 105.333 480.333 99 515 99 c 128
 549.667 99 582.333 105.333 613 118 c 0
 643 130.667 670.333 149.667 695 175 c 0
 719.667 199.667 738.167 227 750.5 257 c 128
 762.833 287 769 319.333 769 354 c 0
 769 389.333 762.833 422 750.5 452 c 128
 738.167 482 719.667 509.333 695 534 c 128
 670.333 558.667 643 577.667 613 591 c 0
 582.333 603.667 549.667 610 515 610 c 128
515 683 m 128
 559.667 683 601.5 674.833 640.5 658.5 c 128
 679.5 642.167 714.667 618 746 586 c 0
 778.667 554 803 518.667 819 480 c 128
 835 441.333 843 399.333 843 354 c 0
 843 309.333 835 267.667 819 229 c 128
 803 190.333 778.667 155 746 123 c 0
 714.667 91 679.5 66.8333 640.5 50.5 c 128
 601.5 34.1667 559.667 26 515 26 c 128
 470.333 26 428.5 34.1667 389.5 50.5 c 128
 350.5 66.8333 315.333 91 284 123 c 0
 251.333 155 227 190.333 211 229 c 128
 195 267.667 187 309.333 187 354 c 0
 187 399.333 195 441.333 211 480 c 128
 227 518.667 251.333 554 284 586 c 0
 315.333 618 350.5 642.167 389.5 658.5 c 128
 428.5 674.833 470.333 683 515 683 c 128
EndSplineSet
Validated: 1
EndChar

StartChar: E
Encoding: 69 69 36
Width: 976
Flags: HW
LayerCount: 2
Fore
SplineSet
281 791 m 1
 282 791 l 1
 272.667 723.667 253 690 223 690 c 2
 220 690 l 1
 201.333 693.333 192 700.667 192 712 c 2
 192 713 l 2
 192 731 221.667 757 281 791 c 1
484 914 m 1
 484 914 l 1
 474.667 846.667 455 813 425 813 c 2
 422 813 l 1
 403.333 815.667 394 822.667 394 834 c 2
 394 835 l 2
 394 853 424 879.333 484 914 c 1
659 973 m 1
 660 973 l 1
 650.667 905.667 631 872 601 872 c 2
 598 872 l 2
 578.667 874.667 569 881.667 569 893 c 2
 569 895 l 2
 569 912.333 599 938.333 659 973 c 1
690 831 m 1
 692 831 l 1
 682 763.667 662 730 632 730 c 2
 629 730 l 1
 610.333 732.667 601 739.667 601 751 c 2
 601 752 l 2
 601 770 630.667 796.333 690 831 c 1
866 933 m 1
 867 933 l 1
 857.667 866.333 838 833 808 833 c 2
 805 833 l 2
 785.667 835 776 842 776 854 c 2
 776 855 l 2
 776 873 806 899 866 933 c 1
920 831 m 1
 921 831 l 1
 911.667 763.667 892 730 862 730 c 2
 858 730 l 2
 840 732 831 739 831 751 c 2
 831 752 l 2
 831 770 860.667 796.333 920 831 c 1
875 664 m 1
 877 664 l 1
 867 596.667 847 563 817 563 c 2
 814 563 l 1
 795.333 566.333 786 573.667 786 585 c 2
 786 586 l 2
 786 604 815.667 630 875 664 c 1
494 689 m 1
 523 689 l 1
 525 686 l 1
 525 632 l 1
 526 632 l 2
 669.333 632 786.667 561.667 878 421 c 0
 892 395.667 899 381.333 899 378 c 2
 899 374 l 1
 898 374 l 1
 890.667 378.667 884 387.667 878 401 c 1
 866.667 407.667 851.667 411 833 411 c 2
 812 411 l 2
 762.667 411 720 396.333 684 367 c 1
 684 345 l 2
 684 341 682.667 338.667 680 338 c 1
 664 366 l 1
 614.667 384 568 393 524 393 c 1
 524 95 l 2
 524 65.6667 506.667 47.6667 472 41 c 2
 457 40 l 2
 427.667 40 407 54 395 82 c 1
 394 94 l 1
 394 105 l 1
 397 108 l 1
 418 108 l 1
 420 105 l 1
 420 100 l 2
 423.333 70.6667 435.333 56 456 56 c 2
 461 56 l 2
 478.333 56 490.333 64.3333 497 81 c 1
 500 99 l 1
 500 393 l 1
 431.333 393 383 384 355 366 c 1
 349.667 350 344.667 342 340 342 c 1
 337 344 l 1
 337 349 l 1
 340 372 l 1
 338 372 l 1
 316 390 273 403 209 411 c 2
 176 411 l 2
 144 411 122.333 402 111 384 c 1
 102 377 l 1
 100 377 l 1
 100 378 l 1
 119.333 419.333 160 471.667 222 535 c 0
 300 599.667 389.667 632 491 632 c 1
 491 686 l 1
 494 689 l 1
EndSplineSet
Validated: 5
EndChar

StartChar: F
Encoding: 70 70 37
Width: 1123
Flags: HW
LayerCount: 2
Fore
SplineSet
581 442 m 1
 581 454 l 2
 581 463.333 582.167 474.833 584.5 488.5 c 128
 586.833 502.167 589.667 517.333 593 534 c 128
 596.333 550.667 602.667 567.333 612 584 c 128
 621.333 600.667 632.5 616 645.5 630 c 128
 658.5 644 676 655.167 698 663.5 c 128
 720 671.833 744.667 676 772 676 c 0
 795.333 676 817.167 671.833 837.5 663.5 c 128
 857.833 655.167 875.5 643.833 890.5 629.5 c 128
 905.5 615.167 917.5 597.833 926.5 577.5 c 128
 935.5 557.167 940.833 536 942.5 514 c 128
 944.167 492 941 468 933 442 c 128
 925 416 912 390.667 894 366 c 2
 581 -47 l 1
 581 442 l 1
542 442 m 1
 542 -47 l 1
 229 366 l 2
 211 390.667 198 416 190 442 c 128
 182 468 178.833 492 180.5 514 c 128
 182.167 536 187.5 557.167 196.5 577.5 c 128
 205.5 597.833 217.5 615.167 232.5 629.5 c 128
 247.5 643.833 265.333 655.167 286 663.5 c 128
 306.667 671.833 328.333 676 351 676 c 0
 378.333 676 403 671.833 425 663.5 c 128
 447 655.167 464.5 644 477.5 630 c 128
 490.5 616 501.667 600.667 511 584 c 128
 520.333 567.333 526.833 550.667 530.5 534 c 128
 534.167 517.333 537 502.167 539 488.5 c 128
 541 474.833 542 463.333 542 454 c 2
 542 442 l 1
EndSplineSet
Validated: 33
EndChar

StartChar: G
Encoding: 71 71 38
Width: 826
Flags: HW
LayerCount: 2
Fore
SplineSet
656 747 m 1
 395 435 l 1
 626 354 l 1
 170 -54 l 1
 461 324 l 1
 236 411 l 1
 656 747 l 1
EndSplineSet
Validated: 1
EndChar

StartChar: H
Encoding: 72 72 39
Width: 791
Flags: HW
LayerCount: 2
Fore
SplineSet
376 282 m 0
 376 294 371.167 301.333 361.5 304 c 128
 351.833 306.667 330.333 308.333 297 309 c 0
 283.667 309 238.667 313 162 321 c 1
 88 222 l 1
 37 215 l 1
 70 333 l 1
 35 347 l 1
 70 358 l 1
 37 476 l 1
 88 469 l 1
 162 370 l 1
 198 374 l 2
 214 374.667 232.167 376.167 252.5 378.5 c 128
 272.833 380.833 290.667 382 306 382 c 2
 339 383 l 2
 363.667 383.667 376 392.333 376 409 c 0
 376 410.333 376.167 412.5 376.5 415.5 c 128
 376.833 418.5 377 421.333 377 424 c 0
 377 442 369 469.667 353 507 c 2
 266 705 l 1
 303 705 l 2
 312.333 705 319.333 703.333 324 700 c 128
 328.667 696.667 335.333 689 344 677 c 2
 383 622 l 1
 444 622 l 2
 446.667 622 449.333 620.333 452 617 c 128
 454.667 613.667 456 610 456 606 c 0
 456 601.333 454.833 597.333 452.5 594 c 128
 450.167 590.667 447.333 589 444 589 c 2
 411 589 l 1
 460 519 l 1
 520 519 l 2
 522.667 519 525.333 517.333 528 514 c 128
 530.667 510.667 532 507 532 503 c 0
 532 498.333 530.667 494.167 528 490.5 c 128
 525.333 486.833 522.333 485 519 485 c 2
 488 485 l 1
 562 386 l 1
 571 385 l 1
 641 382 l 2
 721 378.667 761 367 761 347 c 0
 761 333 745.5 323.167 714.5 317.5 c 128
 683.5 311.833 632.667 307.667 562 305 c 1
 488 206 l 1
 519 206 l 2
 522.333 206 525.333 204.167 528 200.5 c 128
 530.667 196.833 532 193 532 189 c 0
 532 184.333 530.833 180.333 528.5 177 c 128
 526.167 173.667 523.333 172 520 172 c 2
 460 172 l 1
 411 102 l 1
 444 102 l 2
 447.333 102 450.167 100.333 452.5 97 c 128
 454.833 93.6667 456 89.6667 456 85 c 0
 456 81 454.667 77.3333 452 74 c 128
 449.333 70.6667 446.667 69 444 69 c 2
 383 69 l 1
 344 14 l 2
 335.333 2.66667 328.5 -4.66667 323.5 -8 c 128
 318.5 -11.3333 311.667 -13 303 -13 c 2
 266 -13 l 1
 353 184 l 1
 368.333 242.667 376 275.333 376 282 c 0
EndSplineSet
Validated: 1
EndChar

StartChar: I
Encoding: 73 73 40
Width: 1351
Flags: HW
LayerCount: 2
Fore
SplineSet
435 405 m 0
 435 423 441 440 453 456 c 1
 461 458 467.667 464 473 474 c 2
 498 520 l 2
 502.667 527.333 512.333 535 527 543 c 1
 529 543 l 1
 531 543 l 1
 522.333 558.333 511.333 586.333 498 627 c 0
 488.667 657 480.667 677.667 474 689 c 0
 462.667 708.333 457 724 457 736 c 0
 457 744.667 461 753.333 469 762 c 0
 477.667 772.667 487.667 778 499 778 c 0
 504.333 778 510 777.333 516 776 c 0
 531.333 772 542 765.667 548 757 c 0
 572 721 596 672.667 620 612 c 2
 639 565 l 2
 643.667 553 648.333 543.667 653 537 c 1
 659 542.333 663 555.333 665 576 c 0
 667 590 669.667 602 673 612 c 0
 674.333 617.333 677 642 681 686 c 0
 682.333 704.667 683 715 683 717 c 2
 683 727 l 1
 682.333 729 682 731 682 733 c 0
 682 745 687.333 756.333 698 767 c 0
 706.667 777 717.667 782 731 782 c 0
 749 782 762.667 772.333 772 753 c 0
 776 744.333 778.333 737.333 779 732 c 0
 782.333 693.333 784 660.667 784 634 c 0
 784 627.333 783.667 621 783 615 c 2
 779 468 l 1
 779 461 l 2
 779 453 779.333 444.333 780 435 c 2
 781 424 l 2
 782.333 412 783 391.667 783 363 c 0
 783 351.667 782.667 339 782 325 c 2
 784 264 l 2
 784 256 780.333 229.667 773 185 c 0
 772.333 179 772 153 772 107 c 2
 772 40 l 1
 506 40 l 1
 506 129 l 2
 506 135 505 143.333 503 154 c 0
 500.333 171.333 493 191 481 213 c 0
 465 241.667 457 262.333 457 275 c 0
 457 301 452.667 328.333 444 357 c 0
 438 376.333 435 392.333 435 405 c 0
751 725 m 2
 750.333 743.667 743.667 753 731 753 c 0
 719.667 753 713.333 741.667 712 719 c 2
 709 665 l 2
 709 655.667 707.333 642 704 624 c 2
 687 529 l 2
 685 519.667 680.667 514 674 512 c 2
 647 505 l 1
 635 510 l 1
 632.333 514.667 624 533 610 565 c 2
 601 584 l 2
 586.333 619.333 566.667 661.333 542 710 c 0
 534 726.667 526.667 737.333 520 742 c 0
 514.667 746 509.667 748 505 748 c 0
 499 748 495 746 493 742 c 1
 490.333 740 489 737.333 489 734 c 0
 489 724 493.667 710 503 692 c 0
 507.667 683.333 513 670.667 519 654 c 2
 565 530 l 1
 632 481 l 2
 662.667 457.667 693.333 431 724 401 c 1
 725.333 397 726 393.667 726 391 c 0
 726 385 722.667 381.333 716 380 c 1
 712 380 l 2
 704.667 380 698 383 692 389 c 0
 690 391 688.667 393.333 688 396 c 1
 672.667 412.667 646.333 434.667 609 462 c 2
 583 481 l 1
 581 481.667 573 487 559 497 c 0
 549.667 504.333 541.667 508 535 508 c 0
 531.667 508 528.667 506.333 526 503 c 0
 524.667 501 523.333 498 522 494 c 1
 524.667 486.667 534 477 550 465 c 0
 563.333 454.333 572 446 576 440 c 0
 578.667 436 587.333 426.333 602 411 c 0
 618.667 393.667 627 377.333 627 362 c 0
 627 350 623.667 334 617 314 c 0
 612.333 299.333 609.667 286.667 609 276 c 2
 609 275 l 2
 609 259 618 240.667 636 220 c 0
 643.333 211.333 651 204 659 198 c 0
 676.333 186 686.333 177.333 689 172 c 0
 690.333 170 691 168 691 166 c 0
 691 160.667 686.333 156.667 677 154 c 1
 637 170.667 609.333 196.667 594 232 c 0
 592 236.667 589.667 240.667 587 244 c 0
 582.333 251.333 580.333 258.667 581 266 c 2
 585 303 l 2
 585.667 307.667 584.667 312 582 316 c 0
 580 319.333 576.667 321.667 572 323 c 1
 562.667 315 551.333 311 538 311 c 0
 534 311 529.333 311.333 524 312 c 1
 516.667 314 510 317 504 321 c 1
 488 343 478.667 354 476 354 c 0
 474.667 354 474.333 353.333 475 352 c 0
 478.333 340.667 481 322 483 296 c 0
 484.333 280 486.667 268.333 490 261 c 2
 535 157 l 1
 535 147 l 1
 535 70 l 1
 744 70 l 1
 743 159 l 2
 743 177.667 745 195 749 211 c 0
 753 227.667 755 245.667 755 265 c 2
 755 269 l 1
 754 302 l 2
 755.333 320.667 756 338.667 756 356 c 0
 756 384.667 754.333 411 751 435 c 0
 749.667 449.667 749 463.667 749 477 c 2
 749 484 l 1
 755 642 l 1
 755 647 l 2
 755 653 754.667 662.333 754 675 c 2
 751 725 l 2
503 469 m 1
 494 460 l 1
 506 446 521.333 431.667 540 417 c 0
 558 401 569.667 383.333 575 364 c 0
 576.333 360 577 356 577 352 c 1
 583 346.667 587.667 344 591 344 c 256
 594.333 344 596.667 346.667 598 352 c 0
 598.667 354.667 599 357.667 599 361 c 0
 599 367.667 597 374.667 593 382 c 0
 591.667 384.667 590 387 588 389 c 0
 552.667 425.667 524.333 452.333 503 469 c 1
473 435 m 1
 467.667 428.333 464.667 417.667 464 403 c 1
 490.667 381.667 510.333 361.667 523 343 c 1
 527.667 340.333 531.667 339 535 339 c 0
 540.333 339 544.333 342 547 348 c 0
 548.333 351.333 549 354.667 549 358 c 0
 549 363.333 547 369 543 375 c 0
 540.333 378.333 537.333 381 534 383 c 1
 475 433 l 1
 473 435 l 1
EndSplineSet
Validated: 33
EndChar

StartChar: J
Encoding: 74 74 41
Width: 792
Flags: HW
LayerCount: 2
Fore
SplineSet
583 672 m 1
 534 497 l 1
 708 541 l 1
 583 411 l 1
 757 361 l 1
 583 307 l 1
 708 176 l 1
 534 222 l 1
 583 47 l 1
 443 176 l 1
 393 -1 l 1
 348 176 l 1
 217 47 l 1
 262 222 l 1
 86 176 l 1
 217 307 l 1
 35 361 l 1
 217 411 l 1
 86 541 l 1
 262 497 l 1
 217 672 l 1
 348 541 l 1
 393 720 l 1
 443 541 l 1
 583 672 l 1
EndSplineSet
Validated: 1
EndChar

StartChar: K
Encoding: 75 75 42
Width: 873
Flags: HW
LayerCount: 2
Fore
SplineSet
431 -13 m 0
 313.667 -13 218.333 21.1667 145 89.5 c 128
 71.6667 157.833 35 243.333 35 346 c 0
 35 450.667 72.8333 536.667 148.5 604 c 128
 224.167 671.333 321 705 439 705 c 0
 554.333 705 649.667 670.833 725 602.5 c 128
 800.333 534.167 838 448.667 838 346 c 0
 838 241.333 800 155.333 724 88 c 128
 648 20.6667 550.333 -13 431 -13 c 0
716 347 m 0
 716 388.333 710 426.333 698 461 c 128
 686 495.667 670 524.167 650 546.5 c 128
 630 568.833 608.333 588.5 585 605.5 c 128
 561.667 622.5 537.667 635.5 513 644.5 c 128
 488.333 653.5 466.333 660.167 447 664.5 c 128
 427.667 668.833 411 671 397 671 c 0
 298.333 671 216.333 635.333 151 564 c 0
 95.6667 502.667 68 431.333 68 350 c 0
 68 259.333 99.5 182.167 162.5 118.5 c 128
 225.5 54.8333 302 23 392 23 c 0
 481.333 23 557.667 54.6667 621 118 c 128
 684.333 181.333 716 257.667 716 347 c 0
EndSplineSet
Validated: 1
EndChar

StartChar: L
Encoding: 76 76 43
Width: 867
Flags: HW
LayerCount: 2
Fore
SplineSet
668 589 m 1
 832 407 l 1
 832 290 l 1
 382 101 l 1
 382 193 l 1
 35 193 l 1
 35 320 l 1
 215 504 l 1
 600 504 l 1
 668 589 l 1
668 557 m 1
 609 485 l 1
 224 485 l 1
 56 310 l 1
 470 310 l 1
 411 233 l 1
 810 400 l 1
 668 557 l 1
EndSplineSet
Validated: 1
EndChar

StartChar: M
Encoding: 77 77 44
Width: 1034
Flags: HW
LayerCount: 2
Fore
SplineSet
692 461 m 1
 692 427 l 1
 736 427 l 1
 736 461 l 1
 692 461 l 1
650 604 m 1
 669 563 l 1
 706 582 l 1
 719 521 l 1
 785 521 l 1
 813 431 l 1
 728 295 l 1
 815 184 l 1
 902 210 l 1
 912 193 l 1
 878 181 l 1
 878 171 l 1
 941 180 l 1
 944 161 l 1
 879 154 l 1
 879 147 l 1
 927 137 l 1
 916 122 l 1
 868 131 l 1
 779 116 l 1
 686 201 l 1
 626 131 l 1
 692 65 l 1
 840 69 l 1
 842 42 l 1
 760 44 l 1
 751 35 l 1
 863 20 l 1
 855 -3 l 1
 732 14 l 1
 728 10 l 1
 798 -16 l 1
 787 -37 l 1
 662 -3 l 1
 563 -16 l 1
 188 -16 l 1
 90 67 l 1
 90 180 l 1
 192 320 l 1
 431 384 l 1
 563 465 l 1
 539 561 l 1
 577 548 l 1
 590 589 l 1
 622 561 l 1
 650 604 l 1
EndSplineSet
Validated: 1
EndChar

StartChar: N
Encoding: 78 78 45
Width: 954
Flags: HW
LayerCount: 2
Fore
SplineSet
90 469 m 1
 306 835 l 1
 798 620 l 1
 834 403 l 1
 749 163 l 1
 374 -88 l 1
 209 -56 l 1
 90 469 l 1
144 460 m 1
 251 -13 l 1
 364 -35 l 1
 708 195 l 1
 783 407 l 1
 753 585 l 1
 327 771 l 1
 144 460 l 1
EndSplineSet
Validated: 1
EndChar

StartChar: O
Encoding: 79 79 46
Width: 1166
Flags: HW
LayerCount: 2
Fore
SplineSet
565 569 m 2
 568 569 l 1
 571 569 l 2
 746.333 568.333 904.667 496.333 1046 353 c 1
 973.333 279 899.333 221 824 179 c 128
 748.667 137 666.333 116 577 116 c 0
 571 116 571 116 568 116 c 256
 565 116 565 116 559 116 c 0
 469.667 116 387.333 137 312 179 c 128
 236.667 221 162.667 279 90 353 c 1
 231.333 496.333 389.667 568.333 565 569 c 2
565 521 m 2
 427.667 521 293 465 161 353 c 1
 174.333 340.333 185 330.667 193 324 c 1
 249 364.667 306.833 397.833 366.5 423.5 c 128
 426.167 449.167 492.333 462 565 462 c 2
 568 462 l 1
 571 462 l 2
 643.667 462 709.833 449.167 769.5 423.5 c 128
 829.167 397.833 887 364.667 943 324 c 1
 951 330.667 961.667 340.333 975 353 c 1
 843 465 708.333 521 571 521 c 2
 568 521 l 1
 565 521 l 2
568 407 m 256
 536 407 508.833 395.667 486.5 373 c 128
 464.167 350.333 453 323 453 291 c 128
 453 259 464.167 231.833 486.5 209.5 c 128
 508.833 187.167 536 176 568 176 c 256
 600 176 627.167 187.167 649.5 209.5 c 128
 671.833 231.833 683 259 683 291 c 128
 683 323 671.833 350.333 649.5 373 c 128
 627.167 395.667 600 407 568 407 c 256
444 397 m 1
 375.333 379 304.667 344.333 232 293 c 1
 302.667 238.333 374.333 201.333 447 182 c 1
 418.333 213.333 404 249.667 404 291 c 0
 404 329 417.333 364.333 444 397 c 1
692 397 m 1
 719.333 364.333 732.667 329 732 291 c 0
 732 249.667 717.667 213.333 689 182 c 1
 761.667 201.333 833.333 238.333 904 293 c 1
 831.333 344.333 760.667 379 692 397 c 1
568 364 m 256
 590 364 608.167 357 622.5 343 c 128
 636.833 329 644 311 644 289 c 0
 644 269 636.5 251.5 621.5 236.5 c 128
 606.5 221.5 588.667 213.667 568 213 c 0
 547.333 213.667 529.667 221.5 515 236.5 c 128
 500.333 251.5 493 269 493 289 c 0
 492.333 311 499.167 329 513.5 343 c 128
 527.833 357 546 364 568 364 c 256
568 316 m 0
 560.667 316 554.5 313.5 549.5 308.5 c 128
 544.5 303.5 542 297.167 542 289.5 c 128
 542 281.833 544.5 275.5 549.5 270.5 c 128
 554.5 265.5 560.667 262.667 568 262 c 1
 576 262.667 582.5 265.5 587.5 270.5 c 128
 592.5 275.5 595 281.833 595 289.5 c 128
 595 297.167 592.5 303.5 587.5 308.5 c 128
 582.5 313.5 576 316 568 316 c 0
EndSplineSet
Validated: 33
EndChar

StartChar: P
Encoding: 80 80 47
Width: 1034
Flags: HW
LayerCount: 2
Fore
SplineSet
450.626 804.466 m 0
 457.503 804.479 464.004 802.957 470.127 799.9 c 1
 466.91 796.267 465.621 791.288 466.259 784.965 c 1
 471.993 786.986 479.969 786.773 490.186 784.324 c 128
 500.401 781.875 508.753 776.878 515.241 769.333 c 1
 515.203 769.332 511.762 769.497 504.919 769.829 c 128
 498.075 770.16 494.732 769.737 494.89 768.559 c 1
 506.652 751.303 l 1
 490.942 740.314 l 1
 488.621 726.153 l 1
 486.014 725.224 482.4 723.589 477.778 721.246 c 128
 473.156 718.903 468.885 717.037 464.966 715.647 c 128
 461.047 714.257 457.17 713.58 453.335 713.617 c 1
 458.876 709.638 462.023 704.402 462.775 697.907 c 1
 460.594 696.644 457.521 694.649 453.555 691.924 c 128
 449.589 689.199 446.73 687.299 444.978 686.223 c 1
 463.868 694.996 480.273 701.857 494.193 706.807 c 0
 537.232 722.115 579.303 731.478 620.406 734.897 c 0
 638.417 736.394 660.797 733.419 687.544 725.971 c 128
 714.291 718.522 733.467 711.593 745.073 705.183 c 0
 764.961 694.197 781.186 682.435 793.747 669.896 c 1
 765.09 666.231 750.697 664.399 750.566 664.4 c 1
 743.703 668.053 734.031 674.182 721.551 682.785 c 128
 709.07 691.388 699.396 697.538 692.528 701.235 c 1
 719.227 676.937 l 1
 696.534 689.682 680.567 700.129 671.325 708.277 c 1
 672.471 704.762 674.829 699.605 678.4 692.804 c 128
 681.972 686.004 684.334 680.973 685.487 677.71 c 1
 682.28 679.633 677.624 682.243 671.521 685.542 c 128
 665.418 688.841 659.965 691.927 655.163 694.801 c 128
 650.36 697.674 646.074 700.592 642.307 703.557 c 1
 642.453 697.428 644.284 690.36 647.8 682.354 c 1
 641.451 684.201 635.441 687.864 629.771 693.342 c 1
 622.751 690.828 616.225 686.907 610.192 681.579 c 1
 607.428 681.92 602.855 681.729 596.474 681.006 c 128
 590.093 680.282 585.406 680.061 582.411 680.342 c 1
 601.135 671.651 618.392 658.934 634.182 642.191 c 0
 651.803 623.504 662.121 600.831 665.135 574.171 c 1
 657.686 581.218 652.192 589.06 648.652 597.696 c 1
 644.961 593.939 642.304 589.605 640.682 584.694 c 1
 645.634 581.677 l 2
 658.129 573.895 671.716 561.711 686.396 545.126 c 128
 701.076 528.541 712.045 513.382 719.304 499.649 c 1
 718.253 500.068 716.612 501.385 714.379 503.6 c 128
 712.148 505.814 710.668 507.206 709.94 507.775 c 1
 715.967 497.57 719.424 484.75 720.31 469.314 c 1
 716.369 473.075 711.597 475.346 705.994 476.125 c 1
 706.118 474.632 706.169 472.956 706.148 471.095 c 1
 710.714 462.814 l 1
 704.446 441.612 l 1
 697.881 442.005 692.644 443.836 688.736 447.106 c 1
 672.796 445.868 l 1
 684.867 430.624 l 1
 681.158 426.513 675.922 423.391 669.159 421.26 c 1
 664.438 425.902 l 1
 662.592 423.591 659.6 421.812 655.462 420.563 c 1
 648.729 432.171 l 1
 648.336 428.885 647.614 424.939 646.562 420.332 c 1
 641.628 418.518 635.953 418.673 629.538 420.796 c 1
 629.45 430.431 628.573 439.434 626.907 447.803 c 1
 626.218 435.756 624.928 427.372 623.037 422.653 c 1
 617.338 423.423 610.529 426.003 602.608 430.392 c 1
 602.555 431.485 602.608 436.192 602.767 444.515 c 128
 602.924 452.837 602.51 457.312 601.525 457.94 c 1
 594.506 457.797 587.955 458.236 581.87 459.256 c 1
 578.69 465.563 577.452 477.455 578.155 494.93 c 1
 575.154 488.461 573.322 481.908 572.661 475.273 c 1
 570.339 477.285 l 1
 572.663 459.59 573.437 442.721 572.661 426.677 c 1
 571.639 427.651 570.462 430.564 569.13 435.415 c 128
 567.797 440.265 566.395 444.136 564.922 447.029 c 1
 562.65 438.464 558.936 432.841 553.779 430.158 c 1
 542.544 451.855 534.315 473.032 529.094 493.691 c 1
 529.253 499.156 529.005 503.511 528.349 506.758 c 128
 527.692 510.005 526.411 513.516 524.506 517.293 c 128
 522.601 521.068 521.396 523.622 520.891 524.954 c 1
 519.989 525.034 517.358 525.189 512.997 525.419 c 1
 512.779 525.669 512.441 526.034 511.984 526.513 c 128
 511.3 527.231 511.3 527.231 510.985 527.586 c 1
 510.714 526.826 509.959 524.569 508.72 520.814 c 128
 507.48 517.059 506.455 514.209 505.646 512.264 c 1
 502.869 521.302 501.812 529.556 502.474 537.026 c 1
 499.766 539.968 l 1
 497.067 535.881 493.791 531.96 489.938 528.205 c 1
 493.571 510.56 499.245 495.78 506.962 483.863 c 0
 516.221 470.166 525.096 456.24 533.585 442.087 c 128
 542.074 427.933 554.432 411.392 570.659 392.465 c 128
 586.885 373.536 604.344 356.695 623.037 341.941 c 2
 849.772 159.392 l 2
 930.181 92.3839 994.617 26.195 1043.08 -39.1748 c 0
 1069.33 -74.5902 1093.06 -103.532 1114.27 -126 c 1
 1027.45 -125.227 l 1
 993.145 -54.3478 949.963 6.528 897.906 57.4004 c 0
 853.47 100.818 804.564 144.721 751.187 189.108 c 2
 678.832 251.247 l 2
 613.029 308.336 573.151 343.803 559.196 357.649 c 0
 524.917 391.668 493.371 429.742 464.556 471.869 c 0
 462.96 474.202 461.438 476.988 459.99 480.227 c 1
 459.208 478.83 458.434 477.54 457.668 476.357 c 1
 462.775 463.667 l 1
 463.395 462.506 l 2
 479.292 423.753 492.06 398.525 501.7 386.823 c 1
 453.722 444.708 l 1
 455.812 439.136 l 2
 465.43 412.562 472.755 378.461 477.788 336.834 c 1
 473.892 331.413 470.667 327.363 468.114 324.685 c 1
 467.164 319.714 466.855 315.561 467.187 312.226 c 1
 465.82 311.064 463.739 309.699 460.944 308.13 c 128
 458.15 306.56 456.465 305.501 455.889 304.952 c 1
 458.946 301.198 461.268 294.466 462.853 284.755 c 1
 456.442 282.5 451.463 279.533 447.918 275.855 c 1
 446.679 271.132 442.604 265.767 435.691 259.76 c 1
 435.211 264.358 432.245 270.084 426.792 276.938 c 1
 423.785 274.276 420.277 272.986 416.268 273.069 c 1
 416.083 275.636 414.687 279.787 412.081 285.521 c 128
 409.475 291.256 408.11 294.302 407.987 294.66 c 1
 403.85 295.515 399.594 297.192 395.22 299.689 c 1
 395.725 310.966 394.796 320.562 392.434 328.477 c 1
 388.581 329.386 383.757 329.206 377.963 327.935 c 1
 380.869 337.235 384.377 344.638 388.487 350.145 c 1
 373.01 351.228 l 1
 373.011 351.269 372.95 356.281 372.825 366.264 c 128
 372.7 376.247 373.123 381.398 374.094 381.717 c 1
 372.672 382.976 370.479 384.585 367.515 386.544 c 128
 364.55 388.503 362.125 390.222 360.241 391.699 c 1
 364.176 397.165 366.188 402.35 366.277 407.253 c 1
 350.182 432.713 l 1
 356.717 440.368 360.148 453.317 360.474 471.56 c 1
 365.26 483.624 369.31 491.646 372.623 495.626 c 1
 372.258 497.195 368.724 505.785 362.021 521.396 c 1
 363.567 528.963 364.521 538.429 364.884 549.794 c 1
 351.11 557.301 l 1
 354.445 546.363 357.695 538.083 360.86 532.461 c 1
 351.416 542.681 344.091 552.87 338.884 563.027 c 1
 348.267 535.453 352.987 521.602 353.046 521.473 c 1
 349.948 526.639 347.239 531.385 344.92 535.711 c 1
 345.874 527.881 345.667 520.246 344.3 512.805 c 1
 340.419 511.078 337.221 508.86 334.705 506.149 c 1
 334.734 505.939 334.785 505.62 334.858 505.191 c 128
 334.933 504.762 334.986 504.437 335.015 504.215 c 1
 334.923 504.503 334.923 504.503 334.741 505.037 c 128
 334.619 505.393 334.53 505.661 334.474 505.841 c 1
 329.854 500.739 327.042 497.901 326.038 497.328 c 1
 325.788 493.122 328.154 485.057 333.136 473.133 c 128
 338.116 461.209 340.729 452.817 340.974 447.957 c 1
 340.893 447.891 338.866 446.033 334.892 442.383 c 128
 330.917 438.732 327.785 436.334 325.496 435.189 c 1
 325.908 431.767 326.031 428.75 325.866 426.138 c 128
 325.701 423.526 325.824 420.511 326.233 417.092 c 128
 326.644 413.672 327.508 410.47 328.824 407.485 c 1
 328.799 407.48 326.468 406.407 321.831 404.268 c 128
 317.194 402.129 313.231 401.705 309.942 402.997 c 1
 307.238 401.972 304.181 399.622 300.771 395.948 c 0
 299.052 394.096 297.698 392.757 296.709 391.932 c 1
 298.573 387.827 299.904 383.369 300.703 378.56 c 128
 301.501 373.749 302.1 368.369 302.501 362.419 c 128
 302.901 356.469 303.369 351.887 303.906 348.674 c 1
 294.465 355.87 l 1
 293.245 351.592 292.815 345.291 293.176 336.967 c 128
 293.537 328.642 293.039 323.103 291.68 320.351 c 1
 280.614 328.708 l 1
 288.429 313.696 l 1
 280.071 309.827 l 1
 280.042 309.792 277.644 304.814 272.875 294.892 c 1
 271.583 294.739 269.92 295.19 267.886 296.247 c 128
 265.852 297.304 264.188 297.755 262.893 297.6 c 1
 262.874 297.379 262.669 295.734 262.28 292.666 c 128
 261.891 289.598 261.734 287.09 261.809 285.142 c 1
 256.859 284.416 252.964 284.7 250.124 285.993 c 1
 248.515 295.428 245.368 304.662 240.683 313.696 c 1
 240.681 313.682 240.059 310.827 238.817 305.131 c 128
 237.574 299.435 237.268 294.887 237.897 291.486 c 1
 235.903 292.881 234.352 295.634 233.245 299.746 c 128
 232.137 303.857 230.928 306.65 229.618 308.124 c 1
 224.757 301.851 222.358 296.486 222.421 292.029 c 1
 220.347 295.104 218.39 299.955 216.55 306.583 c 128
 214.709 313.21 212.952 317.981 211.277 320.894 c 1
 204.623 308.124 l 1
 203.91 314.851 204.345 324.339 205.928 336.586 c 128
 207.511 348.833 208.184 356.912 207.949 360.823 c 1
 207.918 360.845 207.046 361.705 205.332 363.404 c 128
 203.618 365.102 201.911 366.099 200.212 366.396 c 1
 202.639 379.591 208.107 393.365 216.617 407.718 c 1
 216.621 407.763 216.621 407.789 216.617 407.796 c 0
 215.302 409.897 213.376 412.627 210.841 415.984 c 128
 208.306 419.342 206.594 421.668 205.706 422.962 c 1
 209.015 410.487 210.666 404.193 210.659 404.081 c 1
 199.051 418.552 l 1
 199.05 418.526 199.13 413.861 199.29 404.557 c 128
 199.451 395.253 199.01 390.658 197.968 390.771 c 1
 194.653 397.134 190.758 402.68 186.282 407.407 c 1
 188.459 398.872 191.425 391.495 195.182 385.276 c 1
 195.049 385.399 192.489 387.485 187.5 391.534 c 128
 182.51 395.582 179.138 399.016 177.384 401.837 c 1
 184.657 373.591 l 1
 178.544 385.818 l 1
 180.649 377.614 181.759 370.211 181.872 363.608 c 1
 178.167 370.76 173.731 377.415 168.562 383.574 c 1
 168.349 377.278 168.916 371.164 170.264 365.233 c 1
 156.877 380.788 l 1
 166.317 355.87 l 1
 151.924 370.264 l 1
 151.101 361.41 151.849 352.537 154.168 343.645 c 1
 152.881 345.704 150.628 348.228 147.411 351.217 c 128
 144.192 354.204 142.008 356.658 140.858 358.579 c 1
 139.789 350.686 138.112 344.598 135.827 340.316 c 1
 128.09 355.251 l 1
 127.859 351.471 127.932 345.1 128.31 336.137 c 128
 128.687 327.174 128.613 320.803 128.09 317.024 c 1
 121.435 325.304 l 1
 119.81 312.535 l 1
 116.029 319.889 113.81 327.653 113.154 335.828 c 1
 116.729 362.141 125.757 390.438 140.239 420.719 c 0
 144.914 430.495 155.214 445.901 171.14 466.937 c 128
 187.065 487.972 199.49 503.081 208.415 512.264 c 0
 223.562 527.851 240.277 543.688 258.56 559.777 c 1
 260.769 565.364 263.116 570.343 265.601 574.712 c 1
 263.508 576.795 262.011 578.446 261.112 579.665 c 1
 259.397 578.972 257.618 578.378 255.773 577.885 c 1
 256.842 579.685 257.951 581.413 259.101 583.069 c 1
 258.241 584.974 257.673 586.96 257.397 589.028 c 1
 253.762 586.629 l 1
 253.443 586.168 251.333 583.502 247.431 578.631 c 128
 243.529 573.758 241.048 569.924 239.987 567.129 c 1
 239.888 570.015 239.888 570.015 239.712 575.563 c 128
 239.595 579.262 239.506 581.997 239.445 583.767 c 1
 232.058 572.315 226.693 560.294 223.35 547.705 c 1
 223.348 547.72 222.327 552.078 220.287 560.777 c 128
 218.248 569.478 217.411 576.212 217.777 580.981 c 1
 216.746 576.716 214.183 571.3 210.089 564.733 c 128
 205.996 558.166 203.4 553.057 202.302 549.407 c 1
 202.385 556.621 203.855 565.494 206.712 576.027 c 1
 190.693 542.211 l 1
 190.691 545.504 190.678 550.407 190.654 556.919 c 128
 190.631 563.431 190.618 568.305 190.616 571.54 c 1
 181.91 559.353 176.003 548.262 172.895 538.265 c 1
 171.176 548.687 171.176 556.271 172.895 561.016 c 1
 160.824 548.285 153.24 536.831 150.144 526.656 c 1
 144.107 550.491 l 1
 133.973 539.656 126.931 530.964 122.982 524.413 c 1
 121.104 530.24 120.743 538.546 121.899 549.33 c 1
 120.028 546.02 117.797 540.849 115.206 533.816 c 128
 112.615 526.784 110.41 521.612 108.589 518.299 c 1
 108.24 525.857 108.988 533.983 110.833 542.676 c 1
 96.9814 509.4 l 1
 95.8851 516.899 96.4267 525.231 98.6064 534.396 c 1
 90.9541 524.581 85.5888 516.249 82.5107 509.4 c 1
 79.7246 533.776 l 1
 78.597 530.33 77.7285 526.638 77.1191 522.7 c 128
 76.5098 518.761 75.9789 514.376 75.5264 509.543 c 128
 75.0739 504.711 74.642 500.975 74.2305 498.335 c 1
 70.7116 504.327 68.6738 510.053 68.1172 515.514 c 1
 64.1113 509.515 61.8929 502.679 61.4619 495.007 c 1
 58.863 505.885 58.502 516.048 60.3789 525.496 c 1
 60.2871 525.279 56.0309 510.679 47.6104 481.696 c 1
 46.4177 502.369 44.5602 515.112 42.0381 519.925 c 1
 41.2132 516.764 40.0156 510.841 38.4453 502.156 c 128
 36.8756 493.471 35.7262 488.199 34.9971 486.34 c 1
 34.5466 489.231 34.2539 493.332 34.1191 498.643 c 128
 33.9844 503.954 33.8643 507.359 33.7588 508.859 c 1
 26.0316 490.425 22.1364 481.164 22.0732 481.077 c 1
 24.8594 503.287 l 1
 23.1712 500.794 21.8372 497.883 20.8574 494.554 c 128
 19.8783 491.225 18.9948 487.413 18.207 483.12 c 128
 17.4186 478.826 16.6953 475.566 16.0371 473.339 c 1
 16.4759 476.818 16.3294 482.166 15.5977 489.385 c 128
 14.8659 496.604 14.806 502.166 15.418 506.072 c 1
 17.6035 510.663 25.8968 520.408 40.2979 535.307 c 128
 54.7002 550.204 68.0231 562.101 80.2666 570.998 c 0
 108.288 591.357 147.083 607.092 196.652 618.203 c 1
 195.505 620.313 194.299 623.569 193.034 627.971 c 128
 191.77 632.372 190.396 635.745 188.913 638.09 c 1
 187.134 636.806 184.829 634.26 181.997 630.451 c 128
 179.166 626.642 176.674 624.03 174.52 622.613 c 1
 174.209 623.94 173.822 625.333 173.359 626.792 c 1
 163.046 619.17 151.413 611.844 138.46 604.814 c 1
 151.769 621.452 l 1
 129.637 615.339 l 1
 140.162 638.09 l 1
 118.494 623.696 l 1
 130.721 639.715 l 1
 127.654 638.36 121.963 635.206 113.647 630.252 c 128
 105.331 625.299 98.6407 621.979 93.5762 620.292 c 1
 103.56 630.894 l 1
 85.2188 624.237 l 1
 82.5521 625.905 79.3871 628.893 75.7236 633.201 c 128
 72.0609 637.508 68.571 640.969 65.2539 643.584 c 1
 80.6771 651.68 103.763 660.192 134.513 669.121 c 1
 138.122 675.192 142.403 680.197 147.358 684.134 c 1
 138.187 686.396 129.675 687.324 121.822 686.919 c 1
 131.375 693.35 147.013 699.351 168.736 704.923 c 128
 190.459 710.496 212.377 712.981 234.492 712.378 c 0
 237.493 712.297 241.156 711.987 245.481 711.45 c 1
 242.839 713.406 240.492 715.031 238.439 716.325 c 1
 245.918 724.513 250.768 729.543 252.987 731.415 c 1
 251.109 730.866 247.686 729.235 242.717 726.52 c 128
 237.749 723.804 232.944 722.495 228.302 722.593 c 1
 225.283 729.212 222.369 737.467 219.558 747.356 c 1
 214.637 747.567 207.956 747.18 199.515 746.196 c 1
 199.358 746.831 197.81 753.796 194.872 767.09 c 1
 192.999 768.793 189.549 769.259 184.52 768.488 c 128
 179.491 767.717 176.287 767.535 174.906 767.94 c 1
 175.43 773.383 176.178 777.794 177.15 781.174 c 1
 182.482 785.359 188.983 788.144 196.652 789.531 c 1
 197.503 792.398 198.458 796.112 199.515 800.674 c 1
 199.786 800.547 209.617 798.035 229.01 793.136 c 128
 248.402 788.236 261.992 783.01 269.779 777.459 c 1
 270.675 768.277 271.475 761.622 272.179 757.493 c 1
 272.879 759.084 273.517 761.333 274.094 764.239 c 128
 274.67 767.146 275.192 769.205 275.661 770.416 c 1
 276.59 769.828 280.096 768.485 286.179 766.387 c 128
 292.261 764.288 296.081 762.511 297.638 761.054 c 1
 295.267 757.097 293.693 753.692 292.918 750.839 c 1
 296.535 754.37 299.14 756.588 300.733 757.493 c 1
 305.896 754.45 315.687 745.612 330.104 730.98 c 128
 344.522 716.349 354 707.156 358.539 703.402 c 1
 359.546 702.628 l 2
 361.319 701.2 362.635 700.194 363.492 699.61 c 1
 359.236 722.979 l 1
 361.907 725.422 365.915 726.763 371.26 727.001 c 0
 373.929 727.119 375.931 727.352 377.266 727.701 c 1
 377.027 746.023 375.97 757.527 374.094 762.214 c 1
 378.851 765.184 383.349 766.68 387.588 766.703 c 128
 391.826 766.724 396.227 766.26 400.791 765.31 c 1
 402.896 770.154 407.493 776.329 414.581 783.835 c 128
 421.668 791.342 425.945 796.955 427.411 800.674 c 1
 437.901 803.192 445.639 804.456 450.626 804.466 c 0
EndSplineSet
Validated: 41
EndChar

StartChar: Q
Encoding: 81 81 48
Width: 418
Flags: HW
LayerCount: 2
Fore
SplineSet
400 327 m 0
 400 299 387.667 285 363 285 c 0
 357 285 350.5 285.5 343.5 286.5 c 128
 336.5 287.5 332.333 288 331 288 c 0
 315 288 307 276.333 307 253 c 0
 307 246.333 307.167 242.167 307.5 240.5 c 128
 307.833 238.833 308 236.333 308 233 c 0
 308 205.667 297.333 192 276 192 c 0
 273.333 192 267.5 193.333 258.5 196 c 128
 249.5 198.667 242.667 200 238 200 c 0
 225.333 200 219 190.333 219 171 c 2
 220 160 l 2
 220.667 152.667 221 146.667 221 142 c 0
 221 114.667 209 101 185 101 c 0
 181.667 101 175.833 102.333 167.5 105 c 128
 159.167 107.667 153.333 109 150 109 c 0
 134 109 126 100.333 126 83 c 0
 126 76.3333 126.5 69.3333 127.5 62 c 128
 128.5 54.6667 129 50.3333 129 49 c 0
 129 25.6667 117 14 93 14 c 0
 85.6667 14 79.1667 14.5 73.5 15.5 c 128
 67.8333 16.5 63.6667 17 61 17 c 0
 45 17 37 5 37 -19 c 1
 25 -14.3333 19 -4 19 12 c 0
 19 40 30.6667 54 54 54 c 0
 56 54 61.5 53.3333 70.5 52 c 128
 79.5 50.6667 85 50 87 50 c 0
 103.667 50 112 56.6667 112 70 c 0
 112 72.6667 111.833 78.5 111.5 87.5 c 128
 111.167 96.5 111 103.333 111 108 c 0
 111 132.667 121.333 145 142 145 c 0
 146.667 145 152.833 143.833 160.5 141.5 c 128
 168.167 139.167 174.333 138 179 138 c 0
 193.667 138 201 147 201 165 c 0
 201 168.333 200.833 172.167 200.5 176.5 c 128
 200.167 180.833 200 189.333 200 202 c 0
 200 225.333 210 237 230 237 c 0
 234 237 240.5 235.667 249.5 233 c 128
 258.5 230.333 264 229 266 229 c 0
 277.333 229 285 234.667 289 246 c 0
 289.667 248.667 290 259 290 277 c 0
 290 309 301.667 325 325 325 c 0
 327 325 332.5 324.333 341.5 323 c 128
 350.5 321.667 356 321 358 321 c 0
 373.333 321 381 334.667 381 362 c 1
 393.667 353.333 400 341.667 400 327 c 0
EndSplineSet
Validated: 33
EndChar

StartChar: R
Encoding: 82 82 49
Width: 1044
Flags: HW
LayerCount: 2
Fore
SplineSet
494 58 m 1
 494 63 l 1
 499 63 l 1
 503 63 l 1
 503 58 l 1
 503 54 l 1
 499 54 l 1
 494 54 l 1
 494 58 l 1
371 71 m 1
 371 79 l 1
 353 79 l 1
 336 79 l 1
 336 87 l 1
 336 95 l 1
 328 95 l 1
 320 95 l 1
 320 104 l 1
 320 114 l 1
 312 114 l 1
 304 114 l 1
 304 104 l 1
 304 95 l 1
 300 95 l 1
 295 95 l 1
 295 99 l 1
 295 104 l 1
 290 104 l 1
 285 104 l 1
 285 112 l 1
 285 120 l 1
 274 120 l 1
 263 120 l 1
 263 128 l 1
 263 136 l 1
 259 136 l 1
 254 136 l 1
 254 132 l 1
 254 129 l 1
 249 129 l 1
 244 129 l 1
 244 137 l 1
 244 145 l 1
 236 145 l 1
 229 145 l 1
 229 140 l 1
 229 136 l 1
 224 136 l 1
 219 136 l 1
 219 140 l 1
 219 145 l 1
 211 145 l 1
 203 145 l 1
 203 150 l 1
 203 155 l 1
 199 155 l 1
 194 155 l 1
 194 164 l 1
 188 164 l 1
 188 159 l 1
 172 159 l 1
 172 170 l 1
 167 170 l 1
 162 170 l 1
 162 175 l 1
 162 180 l 1
 157 180 l 1
 153 180 l 1
 153 175 l 1
 153 170 l 1
 157 170 l 1
 162 170 l 1
 162 166 l 1
 162 161 l 1
 157 161 l 1
 153 161 l 1
 153 166 l 1
 153 170 l 1
 150 170 l 1
 146 170 l 1
 146 175 l 1
 146 180 l 1
 134 180 l 1
 121 180 l 1
 121 183 l 1
 121 186 l 1
 104 186 l 1
 86 186 l 1
 86 191 l 1
 86 196 l 1
 74 196 l 1
 61 196 l 1
 61 204 l 1
 61 211 l 1
 58 211 l 1
 55 211 l 1
 55 216 l 1
 55 221 l 1
 50 221 l 1
 45 221 l 1
 45 224 l 1
 45 227 l 1
 41 227 l 1
 36 227 l 1
 36 240 l 1
 36 253 l 1
 33 253 l 1
 30 253 l 1
 30 257 l 1
 30 262 l 1
 33 262 l 1
 36 262 l 1
 36 275 l 1
 36 287 l 1
 33 287 l 1
 30 287 l 1
 30 300 l 1
 30 313 l 1
 33 313 l 1
 36 313 l 1
 36 325 l 1
 36 338 l 1
 41 338 l 1
 45 338 l 1
 45 341 l 1
 45 344 l 1
 50 344 l 1
 55 344 l 1
 55 360 l 1
 55 376 l 1
 63 376 l 1
 70 376 l 1
 70 385 l 1
 70 398 l 1
 70 410 l 1
 79 410 l 1
 86 410 l 1
 86 420 l 1
 86 429 l 1
 91 429 l 1
 96 429 l 1
 96 442 l 1
 96 455 l 1
 104 455 l 1
 112 455 l 1
 112 463 l 1
 112 470 l 1
 115 470 l 1
 126 470 l 1
 126 480 l 1
 126 488 l 1
 126 496 l 1
 132 496 l 1
 137 496 l 1
 137 491 l 1
 137 486 l 1
 142 486 l 1
 146 486 l 1
 146 499 l 1
 146 512 l 1
 150 512 l 1
 153 512 l 1
 153 516 l 1
 153 521 l 1
 157 521 l 1
 162 521 l 1
 162 529 l 1
 162 537 l 1
 175 537 l 1
 188 537 l 1
 192 537 l 1
 192 552 l 1
 197 552 l 1
 205 552 l 1
 213 552 l 1
 213 561 l 1
 213 568 l 1
 229 568 l 1
 244 568 l 1
 244 578 l 1
 244 587 l 1
 262 587 l 1
 279 587 l 1
 279 595 l 1
 279 603 l 1
 282 603 l 1
 285 603 l 1
 285 608 l 1
 285 613 l 1
 295 613 l 1
 304 613 l 1
 304 608 l 1
 304 603 l 1
 312 603 l 1
 320 603 l 1
 320 611 l 1
 320 619 l 1
 336 619 l 1
 352 619 l 1
 352 624 l 1
 352 628 l 1
 357 628 l 1
 361 628 l 1
 361 624 l 1
 361 619 l 1
 369 619 l 1
 377 619 l 1
 377 616 l 1
 377 613 l 1
 382 613 l 1
 387 613 l 1
 387 608 l 1
 387 603 l 1
 391 603 l 1
 396 603 l 1
 396 591 l 1
 396 578 l 1
 387 578 l 1
 377 578 l 1
 377 583 l 1
 377 587 l 1
 374 587 l 1
 371 587 l 1
 371 570 l 1
 371 553 l 1
 374 553 l 1
 377 553 l 1
 377 557 l 1
 377 562 l 1
 382 562 l 1
 387 562 l 1
 387 554 l 1
 387 546 l 1
 391 546 l 1
 391 552 l 1
 399 552 l 1
 402 552 l 1
 402 562 l 1
 402 568 l 1
 407 568 l 1
 412 568 l 1
 412 565 l 1
 412 562 l 1
 424 562 l 1
 437 562 l 1
 437 557 l 1
 437 553 l 1
 445 553 l 1
 453 553 l 1
 453 549 l 1
 453 546 l 1
 448 546 l 1
 443 546 l 1
 443 524 l 1
 443 502 l 1
 448 502 l 1
 453 502 l 1
 453 519 l 1
 453 537 l 1
 458 537 l 1
 462 537 l 1
 462 532 l 1
 462 527 l 1
 503 527 l 1
 544 527 l 1
 544 519 l 1
 544 512 l 1
 549 512 l 1
 554 512 l 1
 554 528 l 1
 570 528 l 1
 570 519 l 1
 570 512 l 1
 565 512 l 1
 560 512 l 1
 560 507 l 1
 560 502 l 1
 565 502 l 1
 570 502 l 1
 570 507 l 1
 570 512 l 1
 590 512 l 1
 611 512 l 1
 611 507 l 1
 611 502 l 1
 626 502 l 1
 626 485 l 1
 626 477 l 1
 636 477 l 1
 646 477 l 1
 646 486 l 1
 646 496 l 1
 649 496 l 1
 652 496 l 1
 652 491 l 1
 652 486 l 1
 660 486 l 1
 668 486 l 1
 668 482 l 1
 668 477 l 1
 677 477 l 1
 687 477 l 1
 687 482 l 1
 687 486 l 1
 690 486 l 1
 693 486 l 1
 693 470 l 1
 693 455 l 1
 698 455 l 1
 702 455 l 1
 702 463 l 1
 702 470 l 1
 710 470 l 1
 718 470 l 1
 718 474 l 1
 718 477 l 1
 723 477 l 1
 728 477 l 1
 728 474 l 1
 728 470 l 1
 732 470 l 1
 737 470 l 1
 737 466 l 1
 737 461 l 1
 732 461 l 1
 728 461 l 1
 728 453 l 1
 728 445 l 1
 736 445 l 1
 743 445 l 1
 743 450 l 1
 743 455 l 1
 756 455 l 1
 769 455 l 1
 769 442 l 1
 769 429 l 1
 784 429 l 1
 784 442 l 1
 784 445 l 1
 789 445 l 1
 794 445 l 1
 794 433 l 1
 794 420 l 1
 799 420 l 1
 803 420 l 1
 803 425 l 1
 803 429 l 1
 807 429 l 1
 810 429 l 1
 810 420 l 1
 810 410 l 1
 818 410 l 1
 826 410 l 1
 826 407 l 1
 826 404 l 1
 830 404 l 1
 835 404 l 1
 835 407 l 1
 835 410 l 1
 843 410 l 1
 851 410 l 1
 851 407 l 1
 851 404 l 1
 856 404 l 1
 860 404 l 1
 860 399 l 1
 860 395 l 1
 865 395 l 1
 870 395 l 1
 870 382 l 1
 870 369 l 1
 878 369 l 1
 886 369 l 1
 886 357 l 1
 886 344 l 1
 890 344 l 1
 895 344 l 1
 895 341 l 1
 895 338 l 1
 890 338 l 1
 886 338 l 1
 886 341 l 1
 886 344 l 1
 873 344 l 1
 860 344 l 1
 860 341 l 1
 860 338 l 1
 873 338 l 1
 886 338 l 1
 886 325 l 1
 886 313 l 1
 881 313 l 1
 877 313 l 1
 877 308 l 1
 877 303 l 1
 886 303 l 1
 895 303 l 1
 895 320 l 1
 895 338 l 1
 898 338 l 1
 901 338 l 1
 901 346 l 1
 901 354 l 1
 906 354 l 1
 911 354 l 1
 911 341 l 1
 911 328 l 1
 906 328 l 1
 901 328 l 1
 901 320 l 1
 901 313 l 1
 919 313 l 1
 936 313 l 1
 943 313 l 1
 943 297 l 1
 952 297 l 1
 952 284 l 1
 952 271 l 1
 947 271 l 1
 942 271 l 1
 942 275 l 1
 942 278 l 1
 935 278 l 1
 927 278 l 1
 927 275 l 1
 927 271 l 1
 922 271 l 1
 917 271 l 1
 917 267 l 1
 917 262 l 1
 909 262 l 1
 901 262 l 1
 901 267 l 1
 901 271 l 1
 910 271 l 1
 910 284 l 1
 910 287 l 1
 908 287 l 1
 905 287 l 1
 905 283 l 1
 905 278 l 1
 901 278 l 1
 895 278 l 1
 895 269 l 1
 895 261 l 1
 895 253 l 1
 906 253 l 1
 917 253 l 1
 917 249 l 1
 917 246 l 1
 922 246 l 1
 927 246 l 1
 927 241 l 1
 927 237 l 1
 914 237 l 1
 901 237 l 1
 901 232 l 1
 901 227 l 1
 906 227 l 1
 911 227 l 1
 911 224 l 1
 911 221 l 1
 906 221 l 1
 901 221 l 1
 901 218 l 1
 901 204 l 1
 871 204 l 1
 871 227 l 1
 878 227 l 1
 886 227 l 1
 886 224 l 1
 886 221 l 1
 890 221 l 1
 895 221 l 1
 895 229 l 1
 895 237 l 1
 886 237 l 1
 876 237 l 1
 876 241 l 1
 876 246 l 1
 873 246 l 1
 871 246 l 1
 871 237 l 1
 871 227 l 1
 865 227 l 1
 860 227 l 1
 860 207 l 1
 860 186 l 1
 852 186 l 1
 845 186 l 1
 845 183 l 1
 845 180 l 1
 840 180 l 1
 835 180 l 1
 835 188 l 1
 835 196 l 1
 830 196 l 1
 826 196 l 1
 826 200 l 1
 826 205 l 1
 815 205 l 1
 803 205 l 1
 803 196 l 1
 803 186 l 1
 799 186 l 1
 794 186 l 1
 794 183 l 1
 794 180 l 1
 802 180 l 1
 810 180 l 1
 810 170 l 1
 810 161 l 1
 797 161 l 1
 785 161 l 1
 785 166 l 1
 785 170 l 1
 781 170 l 1
 778 170 l 1
 778 166 l 1
 778 161 l 1
 773 161 l 1
 769 161 l 1
 769 158 l 1
 769 155 l 1
 764 155 l 1
 759 155 l 1
 759 150 l 1
 759 145 l 1
 748 145 l 1
 737 145 l 1
 737 150 l 1
 737 155 l 1
 732 155 l 1
 728 155 l 1
 728 150 l 1
 728 145 l 1
 710 145 l 1
 693 145 l 1
 693 137 l 1
 693 129 l 1
 698 129 l 1
 702 129 l 1
 702 132 l 1
 702 136 l 1
 706 136 l 1
 718 136 l 1
 718 123 l 1
 718 120 l 1
 715 120 l 1
 712 120 l 1
 712 125 l 1
 712 129 l 1
 707 129 l 1
 702 129 l 1
 702 121 l 1
 702 114 l 1
 698 114 l 1
 693 114 l 1
 693 109 l 1
 693 104 l 1
 698 104 l 1
 702 104 l 1
 702 96 l 1
 702 88 l 1
 698 88 l 1
 693 88 l 1
 693 96 l 1
 693 104 l 1
 690 104 l 1
 687 104 l 1
 687 117 l 1
 687 129 l 1
 682 129 l 1
 677 129 l 1
 677 125 l 1
 677 120 l 1
 672 120 l 1
 668 120 l 1
 668 99 l 1
 668 79 l 1
 665 79 l 1
 661 79 l 1
 661 87 l 1
 661 95 l 1
 644 95 l 1
 627 95 l 1
 627 91 l 1
 627 88 l 1
 619 88 l 1
 611 88 l 1
 611 84 l 1
 611 79 l 1
 603 79 l 1
 595 79 l 1
 595 84 l 1
 595 88 l 1
 582 88 l 1
 570 88 l 1
 570 91 l 1
 570 95 l 1
 565 95 l 1
 560 95 l 1
 560 99 l 1
 560 104 l 1
 557 104 l 1
 554 104 l 1
 554 112 l 1
 554 120 l 1
 549 120 l 1
 544 120 l 1
 544 117 l 1
 544 114 l 1
 540 114 l 1
 535 114 l 1
 535 109 l 1
 535 104 l 1
 532 104 l 1
 529 104 l 1
 529 99 l 1
 529 95 l 1
 516 95 l 1
 503 95 l 1
 503 91 l 1
 503 88 l 1
 544 88 l 1
 544 84 l 1
 544 79 l 1
 549 79 l 1
 554 79 l 1
 554 74 l 1
 554 69 l 1
 549 69 l 1
 544 69 l 1
 544 66 l 1
 544 63 l 1
 537 63 l 1
 529 63 l 1
 529 66 l 1
 529 69 l 1
 537 69 l 1
 544 69 l 1
 544 74 l 1
 544 79 l 1
 532 79 l 1
 519 79 l 1
 519 74 l 1
 519 69 l 1
 514 69 l 1
 510 69 l 1
 510 74 l 1
 510 79 l 1
 502 79 l 1
 494 79 l 1
 494 74 l 1
 494 69 l 1
 491 69 l 1
 488 69 l 1
 488 74 l 1
 488 79 l 1
 483 79 l 1
 478 79 l 1
 478 74 l 1
 478 69 l 1
 473 69 l 1
 469 69 l 1
 469 74 l 1
 469 79 l 1
 465 79 l 1
 462 79 l 1
 462 99 l 1
 462 120 l 1
 453 120 l 1
 443 120 l 1
 443 112 l 1
 443 104 l 1
 448 104 l 1
 453 104 l 1
 453 99 l 1
 453 95 l 1
 445 95 l 1
 437 95 l 1
 437 91 l 1
 437 88 l 1
 445 88 l 1
 453 88 l 1
 453 84 l 1
 453 79 l 1
 458 79 l 1
 462 79 l 1
 462 74 l 1
 462 69 l 1
 453 69 l 1
 443 69 l 1
 443 74 l 1
 443 79 l 1
 435 79 l 1
 428 79 l 1
 428 87 l 1
 428 95 l 1
 420 95 l 1
 412 95 l 1
 412 91 l 1
 412 88 l 1
 407 88 l 1
 402 88 l 1
 402 84 l 1
 402 79 l 1
 399 79 l 1
 396 79 l 1
 396 74 l 1
 396 69 l 1
 391 69 l 1
 387 69 l 1
 387 74 l 1
 387 79 l 1
 382 79 l 1
 377 79 l 1
 377 71 l 1
 377 63 l 1
 374 63 l 1
 371 63 l 1
 371 71 l 1
352 88 m 1
 352 95 l 1
 357 95 l 1
 361 95 l 1
 361 99 l 1
 361 104 l 1
 366 104 l 1
 371 104 l 1
 371 112 l 1
 371 120 l 1
 366 120 l 1
 361 120 l 1
 361 117 l 1
 361 114 l 1
 357 114 l 1
 352 114 l 1
 352 109 l 1
 352 104 l 1
 349 104 l 1
 345 104 l 1
 345 96 l 1
 345 88 l 1
 349 88 l 1
 352 88 l 1
488 91 m 1
 488 95 l 1
 483 95 l 1
 478 95 l 1
 478 91 l 1
 478 88 l 1
 483 88 l 1
 488 88 l 1
 488 91 l 1
627 99 m 1
 627 104 l 1
 619 104 l 1
 611 104 l 1
 611 99 l 1
 611 95 l 1
 619 95 l 1
 627 95 l 1
 627 99 l 1
510 109 m 1
 510 114 l 1
 507 114 l 1
 503 114 l 1
 503 109 l 1
 503 104 l 1
 507 104 l 1
 510 104 l 1
 510 109 l 1
579 109 m 1
 579 114 l 1
 574 114 l 1
 570 114 l 1
 570 109 l 1
 570 104 l 1
 574 104 l 1
 579 104 l 1
 579 109 l 1
652 117 m 1
 652 129 l 1
 649 129 l 1
 646 129 l 1
 646 117 l 1
 646 104 l 1
 649 104 l 1
 652 104 l 1
 652 117 l 1
544 125 m 1
 544 129 l 1
 540 129 l 1
 535 129 l 1
 535 125 l 1
 535 120 l 1
 540 120 l 1
 544 120 l 1
 544 125 l 1
611 150 m 1
 611 155 l 1
 606 155 l 1
 601 155 l 1
 601 150 l 1
 601 145 l 1
 606 145 l 1
 611 145 l 1
 611 150 l 1
462 166 m 1
 462 170 l 1
 475 170 l 1
 488 170 l 1
 488 166 l 1
 488 161 l 1
 511 161 l 1
 535 161 l 1
 535 166 l 1
 535 170 l 1
 544 170 l 1
 554 170 l 1
 554 166 l 1
 554 161 l 1
 570 161 l 1
 586 161 l 1
 586 166 l 1
 586 170 l 1
 593 170 l 1
 601 170 l 1
 601 178 l 1
 601 186 l 1
 595 186 l 1
 595 180 l 1
 587 180 l 1
 579 180 l 1
 579 183 l 1
 579 186 l 1
 574 186 l 1
 570 186 l 1
 570 183 l 1
 570 180 l 1
 544 180 l 1
 519 180 l 1
 519 183 l 1
 519 186 l 1
 524 186 l 1
 529 186 l 1
 529 191 l 1
 529 196 l 1
 537 196 l 1
 544 196 l 1
 544 191 l 1
 544 186 l 1
 552 186 l 1
 560 186 l 1
 560 196 l 1
 560 205 l 1
 565 205 l 1
 570 205 l 1
 570 208 l 1
 570 211 l 1
 578 211 l 1
 586 211 l 1
 586 216 l 1
 586 221 l 1
 590 221 l 1
 595 221 l 1
 595 213 l 1
 595 205 l 1
 598 205 l 1
 601 205 l 1
 601 200 l 1
 601 196 l 1
 606 196 l 1
 611 196 l 1
 611 204 l 1
 611 211 l 1
 606 211 l 1
 601 211 l 1
 601 216 l 1
 601 221 l 1
 611 221 l 1
 620 221 l 1
 620 213 l 1
 620 205 l 1
 627 205 l 1
 627 211 l 1
 631 211 l 1
 636 211 l 1
 636 216 l 1
 636 221 l 1
 644 221 l 1
 652 221 l 1
 652 224 l 1
 652 227 l 1
 657 227 l 1
 661 227 l 1
 661 232 l 1
 661 237 l 1
 665 237 l 1
 668 237 l 1
 668 245 l 1
 668 253 l 1
 672 253 l 1
 677 253 l 1
 677 245 l 1
 677 237 l 1
 682 237 l 1
 687 237 l 1
 687 241 l 1
 687 246 l 1
 695 246 l 1
 702 246 l 1
 702 249 l 1
 702 253 l 1
 710 253 l 1
 718 253 l 1
 718 262 l 1
 718 271 l 1
 723 271 l 1
 728 271 l 1
 728 262 l 1
 728 253 l 1
 732 253 l 1
 737 253 l 1
 737 262 l 1
 737 271 l 1
 745 271 l 1
 753 271 l 1
 753 275 l 1
 753 278 l 1
 766 278 l 1
 778 278 l 1
 778 283 l 1
 778 287 l 1
 773 287 l 1
 769 287 l 1
 769 292 l 1
 769 297 l 1
 753 297 l 1
 737 297 l 1
 737 300 l 1
 737 303 l 1
 748 303 l 1
 759 303 l 1
 759 308 l 1
 759 313 l 1
 751 313 l 1
 743 313 l 1
 743 316 l 1
 743 319 l 1
 748 319 l 1
 753 319 l 1
 753 324 l 1
 753 328 l 1
 740 328 l 1
 728 328 l 1
 728 346 l 1
 728 363 l 1
 720 363 l 1
 712 363 l 1
 712 366 l 1
 712 369 l 1
 707 369 l 1
 702 369 l 1
 702 374 l 1
 702 379 l 1
 699 379 l 1
 687 379 l 1
 687 395 l 1
 682 395 l 1
 677 395 l 1
 677 390 l 1
 677 385 l 1
 672 385 l 1
 668 385 l 1
 668 395 l 1
 668 404 l 1
 661 404 l 1
 655 404 l 1
 645 404 l 1
 645 420 l 1
 633 420 l 1
 620 420 l 1
 620 425 l 1
 620 429 l 1
 611 429 l 1
 601 429 l 1
 601 433 l 1
 601 436 l 1
 586 436 l 1
 570 436 l 1
 570 445 l 1
 570 455 l 1
 565 455 l 1
 560 455 l 1
 560 450 l 1
 560 445 l 1
 532 445 l 1
 503 445 l 1
 503 450 l 1
 503 455 l 1
 483 455 l 1
 462 455 l 1
 462 445 l 1
 462 436 l 1
 458 436 l 1
 453 436 l 1
 453 440 l 1
 453 445 l 1
 440 445 l 1
 428 445 l 1
 428 440 l 1
 428 436 l 1
 420 436 l 1
 412 436 l 1
 412 433 l 1
 412 429 l 1
 407 429 l 1
 402 429 l 1
 402 433 l 2
 402 435 401 436 399 436 c 2
 396 436 l 1
 396 428 l 1
 396 420 l 1
 387 420 l 1
 377 420 l 1
 377 415 l 1
 377 410 l 1
 369 410 l 1
 361 410 l 1
 361 407 l 1
 361 404 l 1
 357 404 l 1
 352 404 l 1
 352 399 l 1
 352 395 l 1
 344 395 l 1
 336 395 l 1
 336 387 l 1
 336 379 l 1
 333 379 l 1
 330 379 l 1
 330 371 l 1
 330 363 l 1
 320 363 l 1
 311 363 l 1
 311 350 l 1
 311 338 l 1
 308 338 l 1
 304 338 l 1
 304 333 l 1
 304 328 l 1
 308 328 l 1
 311 328 l 1
 311 316 l 1
 311 303 l 1
 315 303 l 1
 320 303 l 1
 320 300 l 1
 320 297 l 1
 315 297 l 1
 311 297 l 1
 311 292 l 1
 311 287 l 1
 315 287 l 1
 320 287 l 1
 320 275 l 1
 320 262 l 1
 325 262 l 1
 330 262 l 1
 330 247 l 1
 345 247 l 1
 345 241 l 1
 345 237 l 1
 349 237 l 1
 352 237 l 1
 352 232 l 1
 352 227 l 1
 369 227 l 1
 387 227 l 1
 387 224 l 1
 387 221 l 1
 382 221 l 1
 377 221 l 1
 377 216 l 1
 377 211 l 1
 382 211 l 1
 387 211 l 1
 387 208 l 1
 387 205 l 1
 407 205 l 1
 428 205 l 1
 428 200 l 1
 428 196 l 1
 432 196 l 1
 437 196 l 1
 437 188 l 1
 437 180 l 1
 432 180 l 1
 428 180 l 1
 428 188 l 1
 428 196 l 1
 415 196 l 1
 402 196 l 1
 402 191 l 1
 402 187 l 1
 407 187 l 1
 412 187 l 1
 412 183 l 1
 412 180 l 1
 420 180 l 1
 428 180 l 1
 428 175 l 1
 428 170 l 1
 440 170 l 1
 453 170 l 1
 453 166 l 1
 453 161 l 1
 458 161 l 1
 462 161 l 1
 462 166 l 1
453 183 m 1
 453 186 l 1
 448 186 l 1
 443 186 l 1
 443 199 l 1
 443 211 l 1
 440 211 l 1
 437 211 l 1
 437 216 l 1
 437 221 l 1
 429 221 l 1
 421 221 l 1
 421 224 l 1
 421 227 l 1
 417 227 l 1
 412 227 l 1
 412 232 l 1
 412 237 l 1
 407 237 l 1
 402 237 l 1
 402 241 l 1
 402 246 l 1
 399 246 l 1
 396 246 l 1
 396 254 l 1
 396 262 l 1
 391 262 l 1
 387 262 l 1
 387 270 l 1
 387 278 l 1
 382 278 l 1
 377 278 l 1
 377 290 l 1
 377 303 l 1
 374 303 l 1
 371 303 l 1
 371 308 l 1
 371 313 l 1
 374 313 l 1
 377 313 l 1
 377 333 l 1
 377 354 l 1
 382 354 l 1
 387 354 l 1
 387 362 l 1
 387 369 l 1
 391 369 l 1
 396 369 l 1
 396 377 l 1
 396 385 l 1
 399 385 l 1
 402 385 l 1
 402 390 l 1
 402 395 l 1
 407 395 l 1
 412 395 l 1
 412 403 l 1
 412 410 l 1
 420 410 l 1
 428 410 l 1
 428 415 l 1
 428 420 l 1
 445 420 l 1
 462 420 l 1
 462 425 l 1
 462 429 l 1
 486 429 l 1
 510 429 l 1
 510 425 l 1
 510 420 l 1
 519 420 l 1
 529 420 l 1
 529 415 l 1
 529 410 l 1
 537 410 l 1
 544 410 l 1
 544 407 l 1
 544 404 l 1
 549 404 l 1
 554 404 l 1
 554 399 l 1
 554 395 l 1
 557 395 l 1
 560 395 l 1
 560 390 l 1
 560 385 l 1
 565 385 l 1
 570 385 l 1
 570 377 l 1
 570 369 l 1
 554 369 l 1
 538 369 l 1
 531 369 l 1
 531 357 l 1
 531 354 l 1
 524 354 l 1
 519 354 l 1
 519 341 l 1
 519 328 l 1
 524 328 l 1
 529 328 l 1
 529 324 l 1
 529 319 l 1
 541 319 l 1
 554 319 l 1
 554 324 l 1
 554 328 l 1
 562 328 l 1
 570 328 l 1
 570 333 l 1
 570 338 l 1
 574 338 l 1
 579 338 l 1
 579 346 l 1
 579 354 l 1
 582 354 l 1
 586 354 l 1
 586 346 l 1
 586 338 l 1
 590 338 l 1
 595 338 l 1
 595 317 l 1
 595 297 l 1
 590 297 l 1
 586 297 l 1
 586 284 l 1
 586 271 l 1
 582 271 l 1
 579 271 l 1
 579 262 l 1
 579 253 l 1
 574 253 l 1
 570 253 l 1
 570 245 l 1
 570 237 l 1
 565 237 l 1
 560 237 l 1
 560 220 l 1
 544 220 l 1
 544 213 l 1
 544 205 l 1
 527 205 l 1
 510 205 l 1
 510 200 l 1
 510 196 l 1
 507 196 l 1
 503 196 l 1
 503 200 l 1
 503 205 l 1
 483 205 l 1
 462 205 l 1
 462 200 l 1
 462 196 l 1
 458 196 l 1
 453 196 l 1
 453 191 l 1
 453 186 l 1
 458 186 l 1
 462 186 l 1
 462 191 l 1
 462 196 l 1
 470 196 l 1
 478 196 l 1
 478 191 l 1
 478 186 l 1
 473 186 l 1
 469 186 l 1
 469 183 l 1
 469 180 l 1
 461 180 l 1
 453 180 l 1
 453 183 l 1
494 183 m 1
 494 186 l 1
 499 186 l 1
 503 186 l 1
 503 183 l 1
 503 180 l 1
 499 180 l 1
 494 180 l 1
 494 183 l 1
627 175 m 1
 627 180 l 1
 619 180 l 1
 611 180 l 1
 611 175 l 1
 611 170 l 1
 619 170 l 1
 627 170 l 1
 627 175 l 1
636 191 m 1
 636 196 l 1
 631 196 l 1
 627 196 l 1
 627 191 l 1
 627 186 l 1
 631 186 l 1
 636 186 l 1
 636 191 l 1
778 191 m 1
 778 196 l 1
 773 196 l 1
 769 196 l 1
 769 191 l 1
 769 186 l 1
 773 186 l 1
 778 186 l 1
 778 191 l 1
693 200 m 1
 693 205 l 1
 698 205 l 1
 702 205 l 1
 702 208 l 1
 702 211 l 1
 687 211 l 1
 687 196 l 1
 690 196 l 1
 693 196 l 1
 693 200 l 1
737 208 m 1
 737 211 l 1
 728 211 l 1
 718 211 l 1
 718 208 l 1
 718 205 l 1
 728 205 l 1
 737 205 l 1
 737 208 l 1
851 208 m 1
 851 211 l 1
 843 211 l 1
 835 211 l 1
 835 208 l 1
 835 205 l 1
 843 205 l 1
 851 205 l 1
 851 208 l 1
824 228 m 1
 810 228 l 1
 810 219 l 1
 810 211 l 1
 818 211 l 1
 824 211 l 1
 824 228 l 1
753 224 m 1
 753 227 l 1
 745 227 l 1
 737 227 l 1
 737 224 l 1
 737 221 l 1
 745 221 l 1
 753 221 l 1
 753 224 l 1
778 229 m 1
 778 237 l 1
 773 237 l 1
 769 237 l 1
 769 241 l 1
 769 246 l 1
 777 246 l 1
 785 246 l 1
 785 237 l 1
 785 227 l 1
 789 227 l 1
 794 227 l 1
 794 237 l 1
 794 246 l 1
 789 246 l 1
 785 246 l 1
 785 254 l 1
 785 262 l 1
 789 262 l 1
 794 262 l 1
 794 267 l 1
 794 271 l 1
 781 271 l 1
 769 271 l 1
 769 267 l 1
 769 262 l 1
 773 262 l 1
 778 262 l 1
 778 257 l 1
 778 253 l 1
 773 253 l 1
 769 253 l 1
 769 249 l 1
 769 246 l 1
 764 246 l 1
 759 246 l 1
 759 249 l 1
 759 253 l 1
 751 253 l 1
 743 253 l 1
 743 249 l 1
 743 246 l 1
 751 246 l 1
 759 246 l 1
 759 234 l 1
 759 221 l 1
 769 221 l 1
 778 221 l 1
 778 229 l 1
712 241 m 1
 712 246 l 1
 707 246 l 1
 702 246 l 1
 702 241 l 1
 702 237 l 1
 707 237 l 1
 712 237 l 1
 712 241 l 1
819 245 m 1
 819 253 l 1
 815 253 l 1
 810 253 l 1
 810 245 l 1
 810 237 l 1
 815 237 l 1
 819 237 l 1
 819 245 l 1
870 257 m 1
 870 262 l 1
 860 262 l 1
 851 262 l 1
 851 257 l 1
 851 253 l 1
 860 253 l 1
 870 253 l 1
 870 257 l 1
304 283 m 1
 304 287 l 1
 300 287 l 1
 295 287 l 1
 295 283 l 1
 295 278 l 1
 300 278 l 1
 304 278 l 1
 304 283 l 1
936 295 m 1
 936 303 l 1
 931 303 l 1
 927 303 l 1
 927 295 l 1
 927 287 l 1
 931 287 l 1
 936 287 l 1
 936 295 l 1
860 316 m 1
 860 319 l 1
 852 319 l 1
 845 319 l 1
 845 316 l 1
 845 313 l 1
 852 313 l 1
 860 313 l 1
 860 316 l 1
794 333 m 1
 794 338 l 1
 789 338 l 1
 785 338 l 1
 785 333 l 1
 785 328 l 1
 789 328 l 1
 794 328 l 1
 794 333 l 1
845 341 m 1
 845 344 l 1
 840 344 l 1
 835 344 l 1
 835 341 l 1
 835 338 l 1
 840 338 l 1
 845 338 l 1
 845 341 l 1
876 358 m 1
 876 363 l 1
 864 363 l 1
 851 363 l 1
 851 358 l 1
 851 354 l 1
 864 354 l 1
 876 354 l 1
 876 358 l 1
819 366 m 1
 819 369 l 1
 815 369 l 1
 810 369 l 1
 810 366 l 1
 810 363 l 1
 815 363 l 1
 819 363 l 1
 819 366 l 1
737 374 m 1
 737 379 l 1
 740 379 l 1
 743 379 l 1
 743 374 l 1
 743 369 l 1
 751 369 l 1
 759 369 l 1
 759 384 l 1
 743 384 l 1
 743 390 l 1
 743 395 l 1
 740 395 l 1
 737 395 l 1
 737 390 l 1
 737 385 l 1
 732 385 l 1
 728 385 l 1
 728 377 l 1
 728 369 l 1
 732 369 l 1
 737 369 l 1
 737 374 l 1
835 374 m 1
 835 379 l 1
 840 379 l 1
 845 379 l 1
 845 392 l 1
 845 404 l 1
 840 404 l 1
 835 404 l 1
 835 399 l 1
 835 395 l 1
 830 395 l 1
 826 395 l 1
 826 382 l 1
 826 369 l 1
 830 369 l 1
 835 369 l 1
 835 374 l 1
718 390 m 1
 718 395 l 1
 723 395 l 1
 728 395 l 1
 728 399 l 1
 728 404 l 1
 714 404 l 1
 714 420 l 1
 707 420 l 1
 702 420 l 1
 702 425 l 1
 702 429 l 1
 698 429 l 1
 693 429 l 1
 693 425 l 1
 693 420 l 1
 690 420 l 1
 687 420 l 1
 687 425 l 1
 687 429 l 1
 674 429 l 1
 661 429 l 1
 661 425 l 1
 661 420 l 1
 669 420 l 1
 677 420 l 1
 677 415 l 1
 677 410 l 1
 685 410 l 1
 693 410 l 1
 693 407 l 1
 693 404 l 1
 698 404 l 1
 702 404 l 1
 702 395 l 1
 702 385 l 1
 710 385 l 1
 718 385 l 1
 718 390 l 1
803 390 m 1
 803 395 l 1
 799 395 l 1
 794 395 l 1
 794 390 l 1
 794 385 l 1
 799 385 l 1
 803 385 l 1
 803 390 l 1
860 390 m 1
 860 395 l 1
 856 395 l 1
 851 395 l 1
 851 390 l 1
 851 385 l 1
 856 385 l 1
 860 385 l 1
 860 390 l 1
778 415 m 1
 778 420 l 1
 773 420 l 1
 769 420 l 1
 769 415 l 1
 769 410 l 1
 773 410 l 1
 778 410 l 1
 778 415 l 1
759 425 m 1
 759 429 l 1
 756 429 l 1
 753 429 l 1
 753 425 l 1
 753 420 l 1
 756 420 l 1
 759 420 l 1
 759 425 l 1
646 440 m 1
 646 445 l 1
 653 445 l 1
 661 445 l 1
 661 440 l 1
 661 436 l 1
 665 436 l 1
 668 436 l 1
 668 440 l 1
 668 445 l 1
 665 445 l 1
 661 445 l 1
 661 450 l 1
 661 455 l 1
 653 455 l 1
 646 455 l 1
 646 458 l 1
 646 461 l 1
 636 461 l 1
 627 461 l 1
 627 466 l 1
 627 470 l 1
 619 470 l 1
 611 470 l 1
 611 474 l 1
 611 477 l 1
 606 477 l 1
 601 477 l 1
 601 474 l 1
 601 470 l 1
 590 470 l 1
 579 470 l 1
 579 474 l 1
 579 477 l 1
 574 477 l 1
 570 477 l 1
 570 469 l 1
 570 461 l 1
 582 461 l 1
 595 461 l 1
 595 458 l 1
 595 455 l 1
 603 455 l 1
 611 455 l 1
 611 450 l 1
 611 445 l 1
 616 445 l 1
 620 445 l 1
 620 450 l 1
 620 455 l 1
 623 455 l 1
 627 455 l 1
 627 450 l 1
 627 445 l 1
 631 445 l 1
 636 445 l 1
 636 440 l 1
 636 436 l 1
 641 436 l 1
 646 436 l 1
 646 440 l 1
718 445 m 1
 718 455 l 1
 715 455 l 1
 712 455 l 1
 712 445 l 1
 712 436 l 1
 715 436 l 1
 718 436 l 1
 718 445 l 1
759 440 m 1
 759 445 l 1
 756 445 l 1
 753 445 l 1
 753 440 l 1
 753 436 l 1
 756 436 l 1
 759 436 l 1
 759 440 l 1
421 463 m 1
 421 470 l 1
 417 470 l 1
 412 470 l 1
 412 463 l 1
 412 455 l 1
 417 455 l 1
 421 455 l 1
 421 463 l 1
402 466 m 1
 402 470 l 1
 399 470 l 1
 396 470 l 1
 396 466 l 1
 396 461 l 1
 399 461 l 1
 402 461 l 1
 402 466 l 1
443 465 m 1
 443 470 l 1
 443 477 l 1
 443 482 l 1
 443 486 l 1
 440 486 l 1
 437 486 l 1
 437 482 l 1
 437 477 l 1
 432 477 l 1
 428 477 l 1
 428 474 l 1
 428 470 l 1
 432 470 l 1
 437 470 l 1
 437 466 l 1
 437 461 l 1
 440 461 l 1
 443 461 l 1
 443 465 l 1
488 474 m 1
 488 486 l 1
 478 486 l 1
 469 486 l 1
 469 482 l 1
 469 477 l 1
 461 477 l 1
 453 477 l 1
 453 469 l 1
 453 461 l 1
 470 461 l 1
 488 461 l 1
 488 474 l 1
519 466 m 1
 519 470 l 1
 514 470 l 1
 510 470 l 1
 510 466 l 1
 510 461 l 1
 514 461 l 1
 519 461 l 1
 519 466 l 1
560 464 m 1
 560 476 l 1
 551 476 l 1
 540 476 l 1
 529 476 l 1
 529 471 l 1
 535 471 l 1
 535 466 l 1
 535 461 l 1
 548 461 l 1
 560 461 l 1
 560 464 l 1
687 466 m 1
 687 470 l 1
 682 470 l 1
 677 470 l 1
 677 466 l 1
 677 461 l 1
 682 461 l 1
 687 461 l 1
 687 466 l 1
535 491 m 1
 535 496 l 1
 532 496 l 1
 529 496 l 1
 529 491 l 1
 529 486 l 1
 532 486 l 1
 535 486 l 1
 535 491 l 1
519 499 m 1
 519 502 l 1
 514 502 l 1
 510 502 l 1
 510 507 l 1
 510 512 l 1
 514 512 l 1
 519 512 l 1
 519 516 l 1
 519 521 l 1
 511 521 l 1
 503 521 l 1
 503 516 l 1
 503 512 l 1
 499 512 l 1
 494 512 l 1
 494 507 l 1
 494 502 l 1
 502 502 l 1
 510 502 l 1
 510 499 l 1
 510 496 l 1
 514 496 l 1
 519 496 l 1
 519 499 l 1
377 507 m 1
 377 512 l 1
 374 512 l 1
 371 512 l 1
 371 507 l 1
 371 502 l 1
 374 502 l 1
 377 502 l 1
 377 507 l 1
535 507 m 1
 535 512 l 1
 532 512 l 1
 529 512 l 1
 529 507 l 1
 529 502 l 1
 532 502 l 1
 535 502 l 1
 535 507 l 1
295 516 m 1
 295 521 l 1
 290 521 l 1
 286 521 l 1
 286 525 l 1
 286 529 l 1
 278 529 l 1
 278 523 l 1
 281 523 l 1
 286 523 l 1
 286 516 l 1
 286 512 l 1
 290 512 l 1
 295 512 l 1
 295 516 l 1
336 516 m 1
 336 521 l 1
 333 521 l 1
 330 521 l 1
 330 516 l 1
 330 512 l 1
 333 512 l 1
 336 512 l 1
 336 516 l 1
469 516 m 1
 469 521 l 1
 465 521 l 1
 462 521 l 1
 462 516 l 1
 462 512 l 1
 465 512 l 1
 469 512 l 1
 469 516 l 1
320 524 m 1
 320 527 l 1
 328 527 l 1
 336 527 l 1
 336 532 l 1
 336 537 l 1
 333 537 l 1
 330 537 l 1
 330 542 l 1
 330 546 l 1
 345 546 l 1
 361 546 l 1
 361 542 l 1
 361 537 l 1
 353 537 l 1
 345 537 l 1
 345 532 l 1
 345 527 l 1
 358 527 l 1
 371 527 l 1
 371 532 l 1
 371 537 l 1
 374 537 l 1
 377 537 l 1
 377 542 l 1
 377 546 l 1
 369 546 l 1
 361 546 l 1
 361 549 l 1
 361 553 l 1
 357 553 l 1
 352 553 l 1
 352 557 l 1
 352 562 l 1
 349 562 l 1
 345 562 l 1
 345 557 l 1
 345 553 l 1
 333 553 l 1
 320 553 l 1
 320 549 l 1
 320 546 l 1
 303 546 l 1
 285 546 l 1
 285 542 l 1
 285 537 l 1
 290 537 l 1
 295 537 l 1
 295 532 l 1
 295 527 l 1
 300 527 l 1
 304 527 l 1
 304 532 l 1
 304 537 l 1
 308 537 l 1
 311 537 l 1
 311 529 l 1
 311 521 l 1
 315 521 l 1
 320 521 l 1
 320 524 l 1
387 532 m 1
 387 537 l 1
 382 537 l 1
 377 537 l 1
 377 532 l 1
 377 527 l 1
 382 527 l 1
 387 527 l 1
 387 532 l 1
412 542 m 1
 412 546 l 1
 404 546 l 1
 396 546 l 1
 396 542 l 1
 396 537 l 1
 404 537 l 1
 412 537 l 1
 412 542 l 1
437 542 m 1
 437 546 l 1
 432 546 l 1
 428 546 l 1
 428 553 l 1
 421 553 l 1
 421 545 l 1
 421 537 l 1
 429 537 l 1
 437 537 l 1
 437 542 l 1
263 557 m 1
 263 562 l 1
 259 562 l 1
 254 562 l 1
 254 557 l 1
 254 553 l 1
 259 553 l 1
 263 553 l 1
 263 557 l 1
311 570 m 1
 311 578 l 1
 308 578 l 1
 304 578 l 1
 304 573 l 1
 304 568 l 1
 300 568 l 1
 295 568 l 1
 295 565 l 1
 295 562 l 1
 303 562 l 1
 311 562 l 1
 311 570 l 1
330 565 m 1
 330 568 l 1
 325 568 l 1
 320 568 l 1
 320 565 l 1
 320 562 l 1
 325 562 l 1
 330 562 l 1
 330 565 l 1
361 598 m 1
 361 603 l 1
 357 603 l 1
 352 603 l 1
 352 598 l 1
 352 594 l 1
 357 594 l 1
 361 594 l 1
 361 598 l 1
595 66 m 1
 595 69 l 1
 603 69 l 1
 611 69 l 1
 611 66 l 1
 611 63 l 1
 603 63 l 1
 595 63 l 1
 595 66 l 1
627 66 m 1
 627 69 l 1
 631 69 l 1
 636 69 l 1
 636 66 l 1
 636 63 l 1
 631 63 l 1
 627 63 l 1
 627 66 l 1
402 74 m 1
 402 79 l 1
 407 79 l 1
 412 79 l 1
 412 74 l 1
 412 69 l 1
 407 69 l 1
 402 69 l 1
 402 74 l 1
544 99 m 1
 544 104 l 1
 549 104 l 1
 554 104 l 1
 554 99 l 1
 554 95 l 1
 549 95 l 1
 544 95 l 1
 544 99 l 1
728 128 m 1
 728 136 l 1
 748 136 l 1
 753 136 l 1
 753 132 l 1
 753 129 l 1
 748 129 l 1
 743 129 l 1
 743 125 l 1
 743 120 l 1
 736 120 l 1
 728 120 l 1
 728 128 l 1
769 150 m 1
 769 155 l 1
 773 155 l 1
 778 155 l 1
 778 150 l 1
 778 145 l 1
 773 145 l 1
 769 145 l 1
 769 150 l 1
819 186 m 1
 815 186 l 1
 810 186 l 1
 810 191 l 1
 810 196 l 1
 815 196 l 1
 819 196 l 1
 819 191 l 1
 819 186 l 1
45 208 m 1
 45 211 l 1
 50 211 l 1
 55 211 l 1
 55 208 l 1
 55 205 l 1
 50 205 l 1
 45 205 l 1
 45 208 l 1
942 257 m 1
 942 262 l 1
 947 262 l 1
 952 262 l 1
 952 257 l 1
 952 253 l 1
 947 253 l 1
 942 253 l 1
 942 257 l 1
927 267 m 1
 927 271 l 1
 931 271 l 1
 936 271 l 1
 936 267 l 1
 936 262 l 1
 931 262 l 1
 927 262 l 1
 927 267 l 1
977 283 m 1
 977 287 l 1
 980 287 l 1
 984 287 l 1
 984 283 l 1
 984 278 l 1
 980 278 l 1
 977 278 l 1
 977 283 l 1
917 341 m 1
 917 344 l 1
 922 344 l 1
 927 344 l 1
 927 349 l 1
 927 354 l 1
 931 354 l 1
 936 354 l 1
 936 349 l 1
 936 344 l 1
 931 344 l 1
 927 344 l 1
 927 341 l 1
 927 338 l 1
 922 338 l 1
 917 338 l 1
 917 341 l 1
917 366 m 1
 917 369 l 1
 922 369 l 1
 927 369 l 1
 927 366 l 1
 927 363 l 1
 922 363 l 1
 917 363 l 1
 917 366 l 1
810 440 m 1
 810 445 l 1
 815 445 l 1
 819 445 l 1
 819 440 l 1
 819 436 l 1
 815 436 l 1
 810 436 l 1
 810 440 l 1
718 491 m 1
 718 496 l 1
 723 496 l 1
 728 496 l 1
 728 491 l 1
 728 486 l 1
 723 486 l 1
 718 486 l 1
 718 491 l 1
387 616 m 1
 387 619 l 1
 382 619 l 1
 377 619 l 1
 377 624 l 1
 377 628 l 1
 387 628 l 1
 396 628 l 1
 396 633 l 1
 396 638 l 1
 409 638 l 1
 421 638 l 1
 421 633 l 1
 421 628 l 1
 424 628 l 1
 428 628 l 1
 428 633 l 1
 428 638 l 1
 432 638 l 1
 437 638 l 1
 437 633 l 1
 437 628 l 1
 432 628 l 1
 428 628 l 1
 428 624 l 1
 428 619 l 1
 424 619 l 1
 421 619 l 1
 421 624 l 1
 421 628 l 1
 412 628 l 1
 402 628 l 1
 402 621 l 1
 402 613 l 1
 394 613 l 1
 387 613 l 1
 387 616 l 1
453 616 m 1
 453 619 l 1
 458 619 l 1
 462 619 l 1
 462 616 l 1
 462 613 l 1
 458 613 l 1
 453 613 l 1
 453 616 l 1
EndSplineSet
Validated: 133
EndChar

StartChar: S
Encoding: 83 83 50
Width: 605
Flags: HW
LayerCount: 2
Fore
SplineSet
464 0 m 1
 394 0 l 1
 84 739 l 1
 154 739 l 1
 464 0 l 1
EndSplineSet
Validated: 1
EndChar

StartChar: T
Encoding: 84 84 51
Width: 1005
Flags: HW
LayerCount: 2
Fore
SplineSet
584 560 m 1
 553 560 l 1
 551 573.333 546 583 538 589 c 0
 529.333 595.667 517.333 599 502 599 c 0
 487.333 599 475.833 595.833 467.5 589.5 c 128
 459.167 583.167 453.667 573.333 451 560 c 1
 420 560 l 1
 422 584.667 429.833 603.333 443.5 616 c 128
 457.167 628.667 476.667 635 502 635 c 128
 527.333 635 546.833 628.667 560.5 616 c 128
 574.167 603.333 582 584.667 584 560 c 1
797 485 m 1
 766 485 l 1
 764 497.667 758.667 507.333 750 514 c 0
 742 520.667 730.333 524 715 524 c 0
 700.333 524 688.667 520.833 680 514.5 c 128
 671.333 508.167 666 498.333 664 485 c 1
 633 485 l 1
 635 509.667 642.833 528.333 656.5 541 c 128
 670.167 553.667 689.667 560 715 560 c 128
 740.333 560 759.833 553.667 773.5 541 c 128
 787.167 528.333 795 509.667 797 485 c 1
371 485 m 1
 340 485 l 1
 338.667 497.667 333.667 507.333 325 514 c 128
 316.333 520.667 304.333 524 289 524 c 0
 274.333 524 262.833 520.833 254.5 514.5 c 128
 246.167 508.167 241 498.333 239 485 c 1
 208 485 l 1
 209.333 509.667 217 528.333 231 541 c 128
 245 553.667 264.5 560 289.5 560 c 128
 314.5 560 334 553.667 348 541 c 128
 362 528.333 369.667 509.667 371 485 c 1
797 121 m 1
 766 121 l 1
 764 133.667 758.667 143.333 750 150 c 0
 742 156.667 730.333 160 715 160 c 0
 700.333 160 688.667 156.833 680 150.5 c 128
 671.333 144.167 666 134.333 664 121 c 1
 633 121 l 1
 635 145.667 642.833 164.333 656.5 177 c 128
 670.167 189.667 689.667 196 715 196 c 128
 740.333 196 759.833 189.667 773.5 177 c 128
 787.167 164.333 795 145.667 797 121 c 1
371 121 m 1
 340 121 l 1
 338.667 133.667 333.667 143.333 325 150 c 128
 316.333 156.667 304.333 160 289 160 c 0
 274.333 160 262.833 156.833 254.5 150.5 c 128
 246.167 144.167 241 134.333 239 121 c 1
 208 121 l 1
 209.333 145.667 217 164.333 231 177 c 128
 245 189.667 264.5 196 289.5 196 c 128
 314.5 196 334 189.667 348 177 c 128
 362 164.333 369.667 145.667 371 121 c 1
885 303 m 1
 854 303 l 1
 852 315.667 846.667 325.333 838 332 c 0
 830 338.667 818.333 342 803 342 c 0
 788.333 342 776.833 338.833 768.5 332.5 c 128
 760.167 326.167 754.667 316.333 752 303 c 1
 721 303 l 1
 723 327.667 730.833 346.333 744.5 359 c 128
 758.167 371.667 777.667 378 803 378 c 128
 828.333 378 847.833 371.667 861.5 359 c 128
 875.167 346.333 883 327.667 885 303 c 1
283 303 m 1
 252 303 l 1
 250 315.667 245 325.333 237 332 c 0
 228.333 338.667 216.333 342 201 342 c 0
 186.333 342 174.833 338.833 166.5 332.5 c 128
 158.167 326.167 152.667 316.333 150 303 c 1
 120 303 l 1
 121.333 327.667 128.833 346.333 142.5 359 c 128
 156.167 371.667 175.667 378 201 378 c 128
 226.333 378 246 371.667 260 359 c 128
 274 346.333 281.667 327.667 283 303 c 1
584 45 m 1
 553 45 l 1
 551 58.3333 546 68.3333 538 75 c 0
 529.333 81 517.333 84 502 84 c 0
 487.333 84 475.833 80.8333 467.5 74.5 c 128
 459.167 68.1667 453.667 58.3333 451 45 c 1
 420 45 l 1
 422 70.3333 429.833 89.1667 443.5 101.5 c 128
 457.167 113.833 476.667 120 502 120 c 128
 527.333 120 546.833 113.833 560.5 101.5 c 128
 574.167 89.1667 582 70.3333 584 45 c 1
EndSplineSet
Validated: 33
EndChar

StartChar: U
Encoding: 85 85 52
Width: 938
Flags: HW
LayerCount: 2
Fore
SplineSet
150 87 m 0
 181.333 87 209.667 95 235 111 c 128
 260.333 127 284.333 150.833 307 182.5 c 128
 329.667 214.167 354.333 253.333 381 300 c 2
 470 463 l 1
 479 463 l 1
 470 213 l 1
 569 423 l 1
 577 423 l 1
 574 222 l 1
 672 399 l 1
 676 239 l 1
 747 365 l 1
 766 280 l 2
 772.667 250 784.333 235 801 235 c 0
 810.333 235 819.667 238.667 829 246 c 2
 869 279 l 1
 892 265 l 1
 885.333 259.667 876.333 252 865 242 c 128
 853.667 232 845.667 225.5 841 222.5 c 128
 836.333 219.5 829.167 216 819.5 212 c 128
 809.833 208 799 205.667 787 205 c 0
 771 205 760 210.5 754 221.5 c 128
 748 232.5 740.667 255.333 732 290 c 1
 654 155 l 1
 650 309 l 1
 549 122 l 1
 549 322 l 1
 447 105 l 1
 439 105 l 1
 447 365 l 1
 386 254 l 1
 332 170 l 1
 274 105 l 1
 214 70 l 1
 141 56 l 1
 93.6667 56 59.6667 71.3333 39 102 c 128
 18.3333 132.667 8 167.333 8 206 c 128
 8 244.667 17.3333 286.5 36 331.5 c 128
 54.6667 376.5 82.5 416.167 119.5 450.5 c 128
 156.5 484.833 197 502 241 502 c 0
 274.333 502 300 492.667 318 474 c 128
 336 455.333 345 429.333 345 396 c 0
 345 349.333 328.833 301.833 296.5 253.5 c 128
 264.167 205.167 225.333 180.667 180 180 c 0
 157.333 180 141 188.167 131 204.5 c 128
 121 220.833 116 238.333 116 257 c 0
 116 282.333 124.333 303.833 141 321.5 c 128
 157.667 339.167 174.333 348 191 348 c 0
 214.333 348 226 332 226 300 c 0
 226 279.333 218.5 260.667 203.5 244 c 128
 188.5 227.333 174 219 160 219 c 2
 157 219 l 1
 165 213 176 210 190 210 c 0
 219.333 210 247.333 230.5 274 271.5 c 128
 300.667 312.5 314 351.333 314 388 c 0
 314 413.333 307 433.5 293 448.5 c 128
 279 463.5 259 471 233 471 c 0
 185 471 140.667 443 100 387 c 128
 59.3333 331 39 274.667 39 218 c 0
 39 196.667 41.8333 176.833 47.5 158.5 c 128
 53.1667 140.167 64.8333 123.667 82.5 109 c 128
 100.167 94.3333 122.667 87 150 87 c 0
181 320 m 0
 170.333 320 161.167 313.5 153.5 300.5 c 128
 145.833 287.5 142 274.667 142 262 c 0
 142 248.667 148 242 160 242 c 2
 163 242 l 2
 171.667 242 179.667 247.667 187 259 c 128
 194.333 270.333 198 282.667 198 296 c 0
 198 312 192.333 320 181 320 c 0
EndSplineSet
Validated: 1
EndChar

StartChar: V
Encoding: 86 86 53
Width: 810
Flags: HW
LayerCount: 2
Fore
SplineSet
790 186 m 2
 790 94 774.833 32.8333 744.5 2.5 c 128
 714.167 -27.8333 653 -43 561 -43 c 2
 249 -43 l 2
 157 -43 95.8333 -27.8333 65.5 2.5 c 128
 35.1667 32.8333 20 94 20 186 c 2
 20 250 l 2
 20 338 33.1667 397.333 59.5 428 c 128
 85.8333 458.667 136.333 475.333 211 478 c 1
 211 534 l 1
 392 715 l 1
 599 715 l 1
 599 478 l 1
 673.667 475.333 724.167 458.5 750.5 427.5 c 128
 776.833 396.5 790 337.333 790 250 c 2
 790 186 l 2
386 541 m 1
 386 652 l 1
 274 541 l 1
 386 541 l 1
559 177 m 1
 559 675 l 1
 426 675 l 1
 426 501 l 1
 251 501 l 1
 251 177 l 1
 559 177 l 1
750 186 m 2
 750 250 l 2
 750 326.667 740.333 376.667 721 400 c 128
 701.667 423.333 661 436 599 438 c 1
 599 137 l 1
 211 137 l 1
 211 438 l 1
 148.333 436 107.5 423.333 88.5 400 c 128
 69.5 376.667 60 326.667 60 250 c 2
 60 186 l 2
 60 105.333 71.5 53.6667 94.5 31 c 128
 117.5 8.33333 169 -3 249 -3 c 2
 561 -3 l 2
 641.667 -3 693.333 8.5 716 31.5 c 128
 738.667 54.5 750 106 750 186 c 2
EndSplineSet
Validated: 1
EndChar

StartChar: W
Encoding: 87 87 54
Width: 809
Flags: HW
LayerCount: 2
Fore
SplineSet
694 293 m 1
 115 293 l 1
 404 615 l 1
 694 293 l 1
694 0 m 1
 115 0 l 1
 115 189 l 1
 694 189 l 1
 694 0 l 1
EndSplineSet
Validated: 1
EndChar

StartChar: X
Encoding: 88 88 55
Width: 761
Flags: HW
LayerCount: 2
Fore
SplineSet
761 -200 m 1
 0 -200 l 1
 0 -75 l 1
 761 -75 l 1
 761 -200 l 1
EndSplineSet
Validated: 1
EndChar

StartChar: Y
Encoding: 89 89 56
Width: 761
Flags: HW
LayerCount: 2
Fore
SplineSet
761 -200 m 1
 0 -200 l 1
 0 175 l 1
 761 175 l 1
 761 -200 l 1
EndSplineSet
Validated: 1
EndChar

StartChar: Z
Encoding: 90 90 57
Width: 761
Flags: HW
LayerCount: 2
Fore
SplineSet
761 -200 m 1
 0 -200 l 1
 0 425 l 1
 761 425 l 1
 761 -200 l 1
EndSplineSet
Validated: 1
EndChar

StartChar: bracketleft
Encoding: 91 91 58
Width: 775
Flags: HW
LayerCount: 2
Fore
SplineSet
89 -27 m 1
 686 -27 l 1
 387 571 l 1
 89 -27 l 1
6 -83 m 1
 387 683 l 1
 769 -83 l 1
 6 -83 l 1
EndSplineSet
Validated: 1
EndChar

StartChar: backslash
Encoding: 92 92 59
Width: 514
Flags: HW
LayerCount: 2
Fore
SplineSet
9 51 m 1
 9 549 l 1
 505 300 l 1
 9 51 l 1
EndSplineSet
Validated: 1
EndChar

StartChar: bracketright
Encoding: 93 93 60
Width: 1030
Flags: HW
LayerCount: 2
Fore
SplineSet
515 447 m 128
 489 447 467 438 449 420 c 128
 431 402 422 380 422 354 c 128
 422 328 431 306.167 449 288.5 c 128
 467 270.833 489 262 515 262 c 128
 541 262 563 270.833 581 288.5 c 128
 599 306.167 608 327.833 608 353.5 c 128
 608 379.167 599 401.167 581 419.5 c 128
 563 437.833 541 447 515 447 c 128
515 510 m 0
 535.667 510 555.667 506 575 498 c 128
 594.333 490 611 478.667 625 464 c 0
 639.667 449.333 650.833 432.667 658.5 414 c 128
 666.167 395.333 670 375.333 670 354 c 0
 670 310.667 654.833 274.167 624.5 244.5 c 128
 594.167 214.833 557.333 200 514 200 c 0
 470 200 433.333 214.667 404 244 c 128
 374.667 273.333 360 310 360 354 c 0
 360 397.333 375 434.167 405 464.5 c 128
 435 494.833 471.667 510 515 510 c 0
515 610 m 128
 480.333 610 447.667 603.667 417 591 c 0
 387 577.667 359.667 558.667 335 534 c 128
 310.333 509.333 291.833 482 279.5 452 c 128
 267.167 422 261 389.333 261 354 c 0
 261 319.333 267.167 287 279.5 257 c 128
 291.833 227 310.333 199.667 335 175 c 0
 359.667 149.667 387 130.667 417 118 c 0
 447.667 105.333 480.333 99 515 99 c 128
 549.667 99 582.333 105.333 613 118 c 0
 643 130.667 670.333 149.667 695 175 c 0
 719.667 199.667 738.167 227 750.5 257 c 128
 762.833 287 769 319.333 769 354 c 0
 769 389.333 762.833 422 750.5 452 c 128
 738.167 482 719.667 509.333 695 534 c 128
 670.333 558.667 643 577.667 613 591 c 0
 582.333 603.667 549.667 610 515 610 c 128
515 683 m 128
 559.667 683 601.5 674.833 640.5 658.5 c 128
 679.5 642.167 714.667 618 746 586 c 0
 778.667 554 803 518.667 819 480 c 128
 835 441.333 843 399.333 843 354 c 0
 843 309.333 835 267.667 819 229 c 128
 803 190.333 778.667 155 746 123 c 0
 714.667 91 679.5 66.8333 640.5 50.5 c 128
 601.5 34.1667 559.667 26 515 26 c 128
 470.333 26 428.5 34.1667 389.5 50.5 c 128
 350.5 66.8333 315.333 91 284 123 c 0
 251.333 155 227 190.333 211 229 c 128
 195 267.667 187 309.333 187 354 c 0
 187 399.333 195 441.333 211 480 c 128
 227 518.667 251.333 554 284 586 c 0
 315.333 618 350.5 642.167 389.5 658.5 c 128
 428.5 674.833 470.333 683 515 683 c 128
EndSplineSet
Validated: 1
EndChar

StartChar: asciicircum
Encoding: 94 94 61
Width: 976
Flags: HW
LayerCount: 2
Fore
SplineSet
281 791 m 1
 282 791 l 1
 272.667 723.667 253 690 223 690 c 2
 220 690 l 1
 201.333 693.333 192 700.667 192 712 c 2
 192 713 l 2
 192 731 221.667 757 281 791 c 1
484 914 m 1
 484 914 l 1
 474.667 846.667 455 813 425 813 c 2
 422 813 l 1
 403.333 815.667 394 822.667 394 834 c 2
 394 835 l 2
 394 853 424 879.333 484 914 c 1
659 973 m 1
 660 973 l 1
 650.667 905.667 631 872 601 872 c 2
 598 872 l 2
 578.667 874.667 569 881.667 569 893 c 2
 569 895 l 2
 569 912.333 599 938.333 659 973 c 1
690 831 m 1
 692 831 l 1
 682 763.667 662 730 632 730 c 2
 629 730 l 1
 610.333 732.667 601 739.667 601 751 c 2
 601 752 l 2
 601 770 630.667 796.333 690 831 c 1
866 933 m 1
 867 933 l 1
 857.667 866.333 838 833 808 833 c 2
 805 833 l 2
 785.667 835 776 842 776 854 c 2
 776 855 l 2
 776 873 806 899 866 933 c 1
920 831 m 1
 921 831 l 1
 911.667 763.667 892 730 862 730 c 2
 858 730 l 2
 840 732 831 739 831 751 c 2
 831 752 l 2
 831 770 860.667 796.333 920 831 c 1
875 664 m 1
 877 664 l 1
 867 596.667 847 563 817 563 c 2
 814 563 l 1
 795.333 566.333 786 573.667 786 585 c 2
 786 586 l 2
 786 604 815.667 630 875 664 c 1
494 689 m 1
 523 689 l 1
 525 686 l 1
 525 632 l 1
 526 632 l 2
 669.333 632 786.667 561.667 878 421 c 0
 892 395.667 899 381.333 899 378 c 2
 899 374 l 1
 898 374 l 1
 890.667 378.667 884 387.667 878 401 c 1
 866.667 407.667 851.667 411 833 411 c 2
 812 411 l 2
 762.667 411 720 396.333 684 367 c 1
 684 345 l 2
 684 341 682.667 338.667 680 338 c 1
 664 366 l 1
 614.667 384 568 393 524 393 c 1
 524 95 l 2
 524 65.6667 506.667 47.6667 472 41 c 2
 457 40 l 2
 427.667 40 407 54 395 82 c 1
 394 94 l 1
 394 105 l 1
 397 108 l 1
 418 108 l 1
 420 105 l 1
 420 100 l 2
 423.333 70.6667 435.333 56 456 56 c 2
 461 56 l 2
 478.333 56 490.333 64.3333 497 81 c 1
 500 99 l 1
 500 393 l 1
 431.333 393 383 384 355 366 c 1
 349.667 350 344.667 342 340 342 c 1
 337 344 l 1
 337 349 l 1
 340 372 l 1
 338 372 l 1
 316 390 273 403 209 411 c 2
 176 411 l 2
 144 411 122.333 402 111 384 c 1
 102 377 l 1
 100 377 l 1
 100 378 l 1
 119.333 419.333 160 471.667 222 535 c 0
 300 599.667 389.667 632 491 632 c 1
 491 686 l 1
 494 689 l 1
EndSplineSet
Validated: 5
EndChar

StartChar: underscore
Encoding: 95 95 62
Width: 1123
Flags: HW
LayerCount: 2
Fore
SplineSet
581 442 m 1
 581 454 l 2
 581 463.333 582.167 474.833 584.5 488.5 c 128
 586.833 502.167 589.667 517.333 593 534 c 128
 596.333 550.667 602.667 567.333 612 584 c 128
 621.333 600.667 632.5 616 645.5 630 c 128
 658.5 644 676 655.167 698 663.5 c 128
 720 671.833 744.667 676 772 676 c 0
 795.333 676 817.167 671.833 837.5 663.5 c 128
 857.833 655.167 875.5 643.833 890.5 629.5 c 128
 905.5 615.167 917.5 597.833 926.5 577.5 c 128
 935.5 557.167 940.833 536 942.5 514 c 128
 944.167 492 941 468 933 442 c 128
 925 416 912 390.667 894 366 c 2
 581 -47 l 1
 581 442 l 1
542 442 m 1
 542 -47 l 1
 229 366 l 2
 211 390.667 198 416 190 442 c 128
 182 468 178.833 492 180.5 514 c 128
 182.167 536 187.5 557.167 196.5 577.5 c 128
 205.5 597.833 217.5 615.167 232.5 629.5 c 128
 247.5 643.833 265.333 655.167 286 663.5 c 128
 306.667 671.833 328.333 676 351 676 c 0
 378.333 676 403 671.833 425 663.5 c 128
 447 655.167 464.5 644 477.5 630 c 128
 490.5 616 501.667 600.667 511 584 c 128
 520.333 567.333 526.833 550.667 530.5 534 c 128
 534.167 517.333 537 502.167 539 488.5 c 128
 541 474.833 542 463.333 542 454 c 2
 542 442 l 1
EndSplineSet
Validated: 33
EndChar

StartChar: grave
Encoding: 96 96 63
Width: 826
Flags: HW
LayerCount: 2
Fore
SplineSet
656 747 m 1
 395 435 l 1
 626 354 l 1
 170 -54 l 1
 461 324 l 1
 236 411 l 1
 656 747 l 1
EndSplineSet
Validated: 1
EndChar

StartChar: a
Encoding: 97 97 64
Width: 938
Flags: HW
LayerCount: 2
Fore
SplineSet
150 87 m 0
 181.333 87 209.667 95 235 111 c 128
 260.333 127 284.333 150.833 307 182.5 c 128
 329.667 214.167 354.333 253.333 381 300 c 2
 470 463 l 1
 479 463 l 1
 470 213 l 1
 569 423 l 1
 577 423 l 1
 574 222 l 1
 672 399 l 1
 676 239 l 1
 747 365 l 1
 766 280 l 2
 772.667 250 784.333 235 801 235 c 0
 810.333 235 819.667 238.667 829 246 c 2
 869 279 l 1
 892 265 l 1
 885.333 259.667 876.333 252 865 242 c 128
 853.667 232 845.667 225.5 841 222.5 c 128
 836.333 219.5 829.167 216 819.5 212 c 128
 809.833 208 799 205.667 787 205 c 0
 771 205 760 210.5 754 221.5 c 128
 748 232.5 740.667 255.333 732 290 c 1
 654 155 l 1
 650 309 l 1
 549 122 l 1
 549 322 l 1
 447 105 l 1
 439 105 l 1
 447 365 l 1
 386 254 l 1
 332 170 l 1
 274 105 l 1
 214 70 l 1
 141 56 l 1
 93.6667 56 59.6667 71.3333 39 102 c 128
 18.3333 132.667 8 167.333 8 206 c 128
 8 244.667 17.3333 286.5 36 331.5 c 128
 54.6667 376.5 82.5 416.167 119.5 450.5 c 128
 156.5 484.833 197 502 241 502 c 0
 274.333 502 300 492.667 318 474 c 128
 336 455.333 345 429.333 345 396 c 0
 345 349.333 328.833 301.833 296.5 253.5 c 128
 264.167 205.167 225.333 180.667 180 180 c 0
 157.333 180 141 188.167 131 204.5 c 128
 121 220.833 116 238.333 116 257 c 0
 116 282.333 124.333 303.833 141 321.5 c 128
 157.667 339.167 174.333 348 191 348 c 0
 214.333 348 226 332 226 300 c 0
 226 279.333 218.5 260.667 203.5 244 c 128
 188.5 227.333 174 219 160 219 c 2
 157 219 l 1
 165 213 176 210 190 210 c 0
 219.333 210 247.333 230.5 274 271.5 c 128
 300.667 312.5 314 351.333 314 388 c 0
 314 413.333 307 433.5 293 448.5 c 128
 279 463.5 259 471 233 471 c 0
 185 471 140.667 443 100 387 c 128
 59.3333 331 39 274.667 39 218 c 0
 39 196.667 41.8333 176.833 47.5 158.5 c 128
 53.1667 140.167 64.8333 123.667 82.5 109 c 128
 100.167 94.3333 122.667 87 150 87 c 0
181 320 m 0
 170.333 320 161.167 313.5 153.5 300.5 c 128
 145.833 287.5 142 274.667 142 262 c 0
 142 248.667 148 242 160 242 c 2
 163 242 l 2
 171.667 242 179.667 247.667 187 259 c 128
 194.333 270.333 198 282.667 198 296 c 0
 198 312 192.333 320 181 320 c 0
EndSplineSet
Validated: 1
EndChar

StartChar: b
Encoding: 98 98 65
Width: 1351
Flags: HW
LayerCount: 2
Fore
SplineSet
435 405 m 0
 435 423 441 440 453 456 c 1
 461 458 467.667 464 473 474 c 2
 498 520 l 2
 502.667 527.333 512.333 535 527 543 c 1
 529 543 l 1
 531 543 l 1
 522.333 558.333 511.333 586.333 498 627 c 0
 488.667 657 480.667 677.667 474 689 c 0
 462.667 708.333 457 724 457 736 c 0
 457 744.667 461 753.333 469 762 c 0
 477.667 772.667 487.667 778 499 778 c 0
 504.333 778 510 777.333 516 776 c 0
 531.333 772 542 765.667 548 757 c 0
 572 721 596 672.667 620 612 c 2
 639 565 l 2
 643.667 553 648.333 543.667 653 537 c 1
 659 542.333 663 555.333 665 576 c 0
 667 590 669.667 602 673 612 c 0
 674.333 617.333 677 642 681 686 c 0
 682.333 704.667 683 715 683 717 c 2
 683 727 l 1
 682.333 729 682 731 682 733 c 0
 682 745 687.333 756.333 698 767 c 0
 706.667 777 717.667 782 731 782 c 0
 749 782 762.667 772.333 772 753 c 0
 776 744.333 778.333 737.333 779 732 c 0
 782.333 693.333 784 660.667 784 634 c 0
 784 627.333 783.667 621 783 615 c 2
 779 468 l 1
 779 461 l 2
 779 453 779.333 444.333 780 435 c 2
 781 424 l 2
 782.333 412 783 391.667 783 363 c 0
 783 351.667 782.667 339 782 325 c 2
 784 264 l 2
 784 256 780.333 229.667 773 185 c 0
 772.333 179 772 153 772 107 c 2
 772 40 l 1
 506 40 l 1
 506 129 l 2
 506 135 505 143.333 503 154 c 0
 500.333 171.333 493 191 481 213 c 0
 465 241.667 457 262.333 457 275 c 0
 457 301 452.667 328.333 444 357 c 0
 438 376.333 435 392.333 435 405 c 0
751 725 m 2
 750.333 743.667 743.667 753 731 753 c 0
 719.667 753 713.333 741.667 712 719 c 2
 709 665 l 2
 709 655.667 707.333 642 704 624 c 2
 687 529 l 2
 685 519.667 680.667 514 674 512 c 2
 647 505 l 1
 635 510 l 1
 632.333 514.667 624 533 610 565 c 2
 601 584 l 2
 586.333 619.333 566.667 661.333 542 710 c 0
 534 726.667 526.667 737.333 520 742 c 0
 514.667 746 509.667 748 505 748 c 0
 499 748 495 746 493 742 c 1
 490.333 740 489 737.333 489 734 c 0
 489 724 493.667 710 503 692 c 0
 507.667 683.333 513 670.667 519 654 c 2
 565 530 l 1
 632 481 l 2
 662.667 457.667 693.333 431 724 401 c 1
 725.333 397 726 393.667 726 391 c 0
 726 385 722.667 381.333 716 380 c 1
 712 380 l 2
 704.667 380 698 383 692 389 c 0
 690 391 688.667 393.333 688 396 c 1
 672.667 412.667 646.333 434.667 609 462 c 2
 583 481 l 1
 581 481.667 573 487 559 497 c 0
 549.667 504.333 541.667 508 535 508 c 0
 531.667 508 528.667 506.333 526 503 c 0
 524.667 501 523.333 498 522 494 c 1
 524.667 486.667 534 477 550 465 c 0
 563.333 454.333 572 446 576 440 c 0
 578.667 436 587.333 426.333 602 411 c 0
 618.667 393.667 627 377.333 627 362 c 0
 627 350 623.667 334 617 314 c 0
 612.333 299.333 609.667 286.667 609 276 c 2
 609 275 l 2
 609 259 618 240.667 636 220 c 0
 643.333 211.333 651 204 659 198 c 0
 676.333 186 686.333 177.333 689 172 c 0
 690.333 170 691 168 691 166 c 0
 691 160.667 686.333 156.667 677 154 c 1
 637 170.667 609.333 196.667 594 232 c 0
 592 236.667 589.667 240.667 587 244 c 0
 582.333 251.333 580.333 258.667 581 266 c 2
 585 303 l 2
 585.667 307.667 584.667 312 582 316 c 0
 580 319.333 576.667 321.667 572 323 c 1
 562.667 315 551.333 311 538 311 c 0
 534 311 529.333 311.333 524 312 c 1
 516.667 314 510 317 504 321 c 1
 488 343 478.667 354 476 354 c 0
 474.667 354 474.333 353.333 475 352 c 0
 478.333 340.667 481 322 483 296 c 0
 484.333 280 486.667 268.333 490 261 c 2
 535 157 l 1
 535 147 l 1
 535 70 l 1
 744 70 l 1
 743 159 l 2
 743 177.667 745 195 749 211 c 0
 753 227.667 755 245.667 755 265 c 2
 755 269 l 1
 754 302 l 2
 755.333 320.667 756 338.667 756 356 c 0
 756 384.667 754.333 411 751 435 c 0
 749.667 449.667 749 463.667 749 477 c 2
 749 484 l 1
 755 642 l 1
 755 647 l 2
 755 653 754.667 662.333 754 675 c 2
 751 725 l 2
503 469 m 1
 494 460 l 1
 506 446 521.333 431.667 540 417 c 0
 558 401 569.667 383.333 575 364 c 0
 576.333 360 577 356 577 352 c 1
 583 346.667 587.667 344 591 344 c 256
 594.333 344 596.667 346.667 598 352 c 0
 598.667 354.667 599 357.667 599 361 c 0
 599 367.667 597 374.667 593 382 c 0
 591.667 384.667 590 387 588 389 c 0
 552.667 425.667 524.333 452.333 503 469 c 1
473 435 m 1
 467.667 428.333 464.667 417.667 464 403 c 1
 490.667 381.667 510.333 361.667 523 343 c 1
 527.667 340.333 531.667 339 535 339 c 0
 540.333 339 544.333 342 547 348 c 0
 548.333 351.333 549 354.667 549 358 c 0
 549 363.333 547 369 543 375 c 0
 540.333 378.333 537.333 381 534 383 c 1
 475 433 l 1
 473 435 l 1
EndSplineSet
Validated: 33
EndChar

StartChar: c
Encoding: 99 99 66
Width: 1034
Flags: HW
LayerCount: 2
Fore
SplineSet
692 461 m 1
 692 427 l 1
 736 427 l 1
 736 461 l 1
 692 461 l 1
650 604 m 1
 669 563 l 1
 706 582 l 1
 719 521 l 1
 785 521 l 1
 813 431 l 1
 728 295 l 1
 815 184 l 1
 902 210 l 1
 912 193 l 1
 878 181 l 1
 878 171 l 1
 941 180 l 1
 944 161 l 1
 879 154 l 1
 879 147 l 1
 927 137 l 1
 916 122 l 1
 868 131 l 1
 779 116 l 1
 686 201 l 1
 626 131 l 1
 692 65 l 1
 840 69 l 1
 842 42 l 1
 760 44 l 1
 751 35 l 1
 863 20 l 1
 855 -3 l 1
 732 14 l 1
 728 10 l 1
 798 -16 l 1
 787 -37 l 1
 662 -3 l 1
 563 -16 l 1
 188 -16 l 1
 90 67 l 1
 90 180 l 1
 192 320 l 1
 431 384 l 1
 563 465 l 1
 539 561 l 1
 577 548 l 1
 590 589 l 1
 622 561 l 1
 650 604 l 1
EndSplineSet
Validated: 1
EndChar

StartChar: d
Encoding: 100 100 67
Width: 873
Flags: HW
LayerCount: 2
Fore
SplineSet
431 -13 m 0
 313.667 -13 218.333 21.1667 145 89.5 c 128
 71.6667 157.833 35 243.333 35 346 c 0
 35 450.667 72.8333 536.667 148.5 604 c 128
 224.167 671.333 321 705 439 705 c 0
 554.333 705 649.667 670.833 725 602.5 c 128
 800.333 534.167 838 448.667 838 346 c 0
 838 241.333 800 155.333 724 88 c 128
 648 20.6667 550.333 -13 431 -13 c 0
716 347 m 0
 716 388.333 710 426.333 698 461 c 128
 686 495.667 670 524.167 650 546.5 c 128
 630 568.833 608.333 588.5 585 605.5 c 128
 561.667 622.5 537.667 635.5 513 644.5 c 128
 488.333 653.5 466.333 660.167 447 664.5 c 128
 427.667 668.833 411 671 397 671 c 0
 298.333 671 216.333 635.333 151 564 c 0
 95.6667 502.667 68 431.333 68 350 c 0
 68 259.333 99.5 182.167 162.5 118.5 c 128
 225.5 54.8333 302 23 392 23 c 0
 481.333 23 557.667 54.6667 621 118 c 128
 684.333 181.333 716 257.667 716 347 c 0
EndSplineSet
Validated: 1
EndChar

StartChar: e
Encoding: 101 101 68
Width: 867
Flags: HW
LayerCount: 2
Fore
SplineSet
668 589 m 1
 832 407 l 1
 832 290 l 1
 382 101 l 1
 382 193 l 1
 35 193 l 1
 35 320 l 1
 215 504 l 1
 600 504 l 1
 668 589 l 1
668 557 m 1
 609 485 l 1
 224 485 l 1
 56 310 l 1
 470 310 l 1
 411 233 l 1
 810 400 l 1
 668 557 l 1
EndSplineSet
Validated: 1
EndChar

StartChar: f
Encoding: 102 102 69
Width: 1034
Flags: HW
LayerCount: 2
Fore
SplineSet
692 461 m 1
 692 427 l 1
 736 427 l 1
 736 461 l 1
 692 461 l 1
650 604 m 1
 669 563 l 1
 706 582 l 1
 719 521 l 1
 785 521 l 1
 813 431 l 1
 728 295 l 1
 815 184 l 1
 902 210 l 1
 912 193 l 1
 878 181 l 1
 878 171 l 1
 941 180 l 1
 944 161 l 1
 879 154 l 1
 879 147 l 1
 927 137 l 1
 916 122 l 1
 868 131 l 1
 779 116 l 1
 686 201 l 1
 626 131 l 1
 692 65 l 1
 840 69 l 1
 842 42 l 1
 760 44 l 1
 751 35 l 1
 863 20 l 1
 855 -3 l 1
 732 14 l 1
 728 10 l 1
 798 -16 l 1
 787 -37 l 1
 662 -3 l 1
 563 -16 l 1
 188 -16 l 1
 90 67 l 1
 90 180 l 1
 192 320 l 1
 431 384 l 1
 563 465 l 1
 539 561 l 1
 577 548 l 1
 590 589 l 1
 622 561 l 1
 650 604 l 1
EndSplineSet
Validated: 1
EndChar

StartChar: g
Encoding: 103 103 70
Width: 954
Flags: HW
LayerCount: 2
Fore
SplineSet
90 469 m 1
 306 835 l 1
 798 620 l 1
 834 403 l 1
 749 163 l 1
 374 -88 l 1
 209 -56 l 1
 90 469 l 1
144 460 m 1
 251 -13 l 1
 364 -35 l 1
 708 195 l 1
 783 407 l 1
 753 585 l 1
 327 771 l 1
 144 460 l 1
EndSplineSet
Validated: 1
EndChar

StartChar: h
Encoding: 104 104 71
Width: 560
Flags: HW
LayerCount: 2
Fore
SplineSet
405 175 m 1
 342 175 l 1
 342 112 l 1
 218 112 l 1
 218 175 l 1
 342 175 l 1
 342 238 l 1
 405 238 l 1
 405 175 l 1
218 300 m 1
 155 300 l 1
 155 362 l 1
 218 362 l 1
 218 300 l 1
405 300 m 1
 342 300 l 1
 342 362 l 1
 405 362 l 1
 405 300 l 1
155 50 m 1
 405 50 l 1
 405 -12 l 1
 155 -12 l 1
 155 50 l 1
155 50 m 1
 92 50 l 1
 92 112 l 1
 155 112 l 1
 155 50 l 1
405 50 m 1
 405 112 l 1
 468 112 l 1
 468 50 l 1
 405 50 l 1
92 112 m 1
 30 112 l 1
 30 175 l 1
 30 238 l 1
 30 300 l 1
 30 362 l 1
 30 425 l 1
 92 425 l 1
 92 362 l 1
 92 300 l 1
 92 238 l 1
 92 175 l 1
 92 112 l 1
468 112 m 1
 468 175 l 1
 468 238 l 1
 468 300 l 1
 468 362 l 1
 468 425 l 1
 530 425 l 1
 530 362 l 1
 530 300 l 1
 530 238 l 1
 530 175 l 1
 530 112 l 1
 468 112 l 1
218 175 m 1
 155 175 l 1
 155 238 l 1
 218 238 l 1
 218 175 l 1
92 425 m 1
 92 488 l 1
 155 488 l 1
 155 425 l 1
 92 425 l 1
468 425 m 1
 405 425 l 1
 405 488 l 1
 468 488 l 1
 468 425 l 1
155 488 m 1
 155 550 l 1
 405 550 l 1
 405 488 l 1
 155 488 l 1
EndSplineSet
Validated: 5
EndChar

StartChar: i
Encoding: 105 105 72
Width: 514
Flags: HW
LayerCount: 2
Fore
SplineSet
9 51 m 1
 9 549 l 1
 505 300 l 1
 9 51 l 1
EndSplineSet
Validated: 1
EndChar

StartChar: j
Encoding: 106 106 73
Width: 418
Flags: HW
LayerCount: 2
Fore
SplineSet
400 327 m 4
 400 299 387.667 285 363 285 c 4
 357 285 350.5 285.5 343.5 286.5 c 132
 336.5 287.5 332.333 288 331 288 c 4
 315 288 307 276.333 307 253 c 4
 307 246.333 307.167 242.167 307.5 240.5 c 132
 307.833 238.833 308 236.333 308 233 c 4
 308 205.667 297.333 192 276 192 c 4
 273.333 192 267.5 193.333 258.5 196 c 132
 249.5 198.667 242.667 200 238 200 c 4
 225.333 200 219 190.333 219 171 c 6
 220 160 l 6
 220.667 152.667 221 146.667 221 142 c 4
 221 114.667 209 101 185 101 c 4
 181.667 101 175.833 102.333 167.5 105 c 132
 159.167 107.667 153.333 109 150 109 c 4
 134 109 126 100.333 126 83 c 4
 126 76.3333 126.5 69.3333 127.5 62 c 132
 128.5 54.6667 129 50.3333 129 49 c 4
 129 25.6667 117 14 93 14 c 4
 85.6667 14 79.1667 14.5 73.5 15.5 c 132
 67.8333 16.5 63.6667 17 61 17 c 4
 45 17 37 5 37 -19 c 5
 25 -14.3333 19 -4 19 12 c 4
 19 40 30.6667 54 54 54 c 4
 56 54 61.5 53.3333 70.5 52 c 132
 79.5 50.6667 85 50 87 50 c 4
 103.667 50 112 56.6667 112 70 c 4
 112 72.6667 111.833 78.5 111.5 87.5 c 132
 111.167 96.5 111 103.333 111 108 c 4
 111 132.667 121.333 145 142 145 c 4
 146.667 145 152.833 143.833 160.5 141.5 c 132
 168.167 139.167 174.333 138 179 138 c 4
 193.667 138 201 147 201 165 c 4
 201 168.333 200.833 172.167 200.5 176.5 c 132
 200.167 180.833 200 189.333 200 202 c 4
 200 225.333 210 237 230 237 c 4
 234 237 240.5 235.667 249.5 233 c 132
 258.5 230.333 264 229 266 229 c 4
 277.333 229 285 234.667 289 246 c 4
 289.667 248.667 290 259 290 277 c 4
 290 309 301.667 325 325 325 c 4
 327 325 332.5 324.333 341.5 323 c 132
 350.5 321.667 356 321 358 321 c 4
 373.333 321 381 334.667 381 362 c 5
 393.667 353.333 400 341.667 400 327 c 4
EndSplineSet
Validated: 33
EndChar

StartChar: k
Encoding: 107 107 74
Width: 1044
Flags: HW
LayerCount: 2
Fore
SplineSet
494 58 m 1
 494 63 l 1
 499 63 l 1
 503 63 l 1
 503 58 l 1
 503 54 l 1
 499 54 l 1
 494 54 l 1
 494 58 l 1
371 71 m 1
 371 79 l 1
 353 79 l 1
 336 79 l 1
 336 87 l 1
 336 95 l 1
 328 95 l 1
 320 95 l 1
 320 104 l 1
 320 114 l 1
 312 114 l 1
 304 114 l 1
 304 104 l 1
 304 95 l 1
 300 95 l 1
 295 95 l 1
 295 99 l 1
 295 104 l 1
 290 104 l 1
 285 104 l 1
 285 112 l 1
 285 120 l 1
 274 120 l 1
 263 120 l 1
 263 128 l 1
 263 136 l 1
 259 136 l 1
 254 136 l 1
 254 132 l 1
 254 129 l 1
 249 129 l 1
 244 129 l 1
 244 137 l 1
 244 145 l 1
 236 145 l 1
 229 145 l 1
 229 140 l 1
 229 136 l 1
 224 136 l 1
 219 136 l 1
 219 140 l 1
 219 145 l 1
 211 145 l 1
 203 145 l 1
 203 150 l 1
 203 155 l 1
 199 155 l 1
 194 155 l 1
 194 164 l 1
 188 164 l 1
 188 159 l 1
 172 159 l 1
 172 170 l 1
 167 170 l 1
 162 170 l 1
 162 175 l 1
 162 180 l 1
 157 180 l 1
 153 180 l 1
 153 175 l 1
 153 170 l 1
 157 170 l 1
 162 170 l 1
 162 166 l 1
 162 161 l 1
 157 161 l 1
 153 161 l 1
 153 166 l 1
 153 170 l 1
 150 170 l 1
 146 170 l 1
 146 175 l 1
 146 180 l 1
 134 180 l 1
 121 180 l 1
 121 183 l 1
 121 186 l 1
 104 186 l 1
 86 186 l 1
 86 191 l 1
 86 196 l 1
 74 196 l 1
 61 196 l 1
 61 204 l 1
 61 211 l 1
 58 211 l 1
 55 211 l 1
 55 216 l 1
 55 221 l 1
 50 221 l 1
 45 221 l 1
 45 224 l 1
 45 227 l 1
 41 227 l 1
 36 227 l 1
 36 240 l 1
 36 253 l 1
 33 253 l 1
 30 253 l 1
 30 257 l 1
 30 262 l 1
 33 262 l 1
 36 262 l 1
 36 275 l 1
 36 287 l 1
 33 287 l 1
 30 287 l 1
 30 300 l 1
 30 313 l 1
 33 313 l 1
 36 313 l 1
 36 325 l 1
 36 338 l 1
 41 338 l 1
 45 338 l 1
 45 341 l 1
 45 344 l 1
 50 344 l 1
 55 344 l 1
 55 360 l 1
 55 376 l 1
 63 376 l 1
 70 376 l 1
 70 385 l 1
 70 398 l 1
 70 410 l 1
 79 410 l 1
 86 410 l 1
 86 420 l 1
 86 429 l 1
 91 429 l 1
 96 429 l 1
 96 442 l 1
 96 455 l 1
 104 455 l 1
 112 455 l 1
 112 463 l 1
 112 470 l 1
 115 470 l 1
 126 470 l 1
 126 480 l 1
 126 488 l 1
 126 496 l 1
 132 496 l 1
 137 496 l 1
 137 491 l 1
 137 486 l 1
 142 486 l 1
 146 486 l 1
 146 499 l 1
 146 512 l 1
 150 512 l 1
 153 512 l 1
 153 516 l 1
 153 521 l 1
 157 521 l 1
 162 521 l 1
 162 529 l 1
 162 537 l 1
 175 537 l 1
 188 537 l 1
 192 537 l 1
 192 552 l 1
 197 552 l 1
 205 552 l 1
 213 552 l 1
 213 561 l 1
 213 568 l 1
 229 568 l 1
 244 568 l 1
 244 578 l 1
 244 587 l 1
 262 587 l 1
 279 587 l 1
 279 595 l 1
 279 603 l 1
 282 603 l 1
 285 603 l 1
 285 608 l 1
 285 613 l 1
 295 613 l 1
 304 613 l 1
 304 608 l 1
 304 603 l 1
 312 603 l 1
 320 603 l 1
 320 611 l 1
 320 619 l 1
 336 619 l 1
 352 619 l 1
 352 624 l 1
 352 628 l 1
 357 628 l 1
 361 628 l 1
 361 624 l 1
 361 619 l 1
 369 619 l 1
 377 619 l 1
 377 616 l 1
 377 613 l 1
 382 613 l 1
 387 613 l 1
 387 608 l 1
 387 603 l 1
 391 603 l 1
 396 603 l 1
 396 591 l 1
 396 578 l 1
 387 578 l 1
 377 578 l 1
 377 583 l 1
 377 587 l 1
 374 587 l 1
 371 587 l 1
 371 570 l 1
 371 553 l 1
 374 553 l 1
 377 553 l 1
 377 557 l 1
 377 562 l 1
 382 562 l 1
 387 562 l 1
 387 554 l 1
 387 546 l 1
 391 546 l 1
 391 552 l 1
 399 552 l 1
 402 552 l 1
 402 562 l 1
 402 568 l 1
 407 568 l 1
 412 568 l 1
 412 565 l 1
 412 562 l 1
 424 562 l 1
 437 562 l 1
 437 557 l 1
 437 553 l 1
 445 553 l 1
 453 553 l 1
 453 549 l 1
 453 546 l 1
 448 546 l 1
 443 546 l 1
 443 524 l 1
 443 502 l 1
 448 502 l 1
 453 502 l 1
 453 519 l 1
 453 537 l 1
 458 537 l 1
 462 537 l 1
 462 532 l 1
 462 527 l 1
 503 527 l 1
 544 527 l 1
 544 519 l 1
 544 512 l 1
 549 512 l 1
 554 512 l 1
 554 528 l 1
 570 528 l 1
 570 519 l 1
 570 512 l 1
 565 512 l 1
 560 512 l 1
 560 507 l 1
 560 502 l 1
 565 502 l 1
 570 502 l 1
 570 507 l 1
 570 512 l 1
 590 512 l 1
 611 512 l 1
 611 507 l 1
 611 502 l 1
 626 502 l 1
 626 485 l 1
 626 477 l 1
 636 477 l 1
 646 477 l 1
 646 486 l 1
 646 496 l 1
 649 496 l 1
 652 496 l 1
 652 491 l 1
 652 486 l 1
 660 486 l 1
 668 486 l 1
 668 482 l 1
 668 477 l 1
 677 477 l 1
 687 477 l 1
 687 482 l 1
 687 486 l 1
 690 486 l 1
 693 486 l 1
 693 470 l 1
 693 455 l 1
 698 455 l 1
 702 455 l 1
 702 463 l 1
 702 470 l 1
 710 470 l 1
 718 470 l 1
 718 474 l 1
 718 477 l 1
 723 477 l 1
 728 477 l 1
 728 474 l 1
 728 470 l 1
 732 470 l 1
 737 470 l 1
 737 466 l 1
 737 461 l 1
 732 461 l 1
 728 461 l 1
 728 453 l 1
 728 445 l 1
 736 445 l 1
 743 445 l 1
 743 450 l 1
 743 455 l 1
 756 455 l 1
 769 455 l 1
 769 442 l 1
 769 429 l 1
 784 429 l 1
 784 442 l 1
 784 445 l 1
 789 445 l 1
 794 445 l 1
 794 433 l 1
 794 420 l 1
 799 420 l 1
 803 420 l 1
 803 425 l 1
 803 429 l 1
 807 429 l 1
 810 429 l 1
 810 420 l 1
 810 410 l 1
 818 410 l 1
 826 410 l 1
 826 407 l 1
 826 404 l 1
 830 404 l 1
 835 404 l 1
 835 407 l 1
 835 410 l 1
 843 410 l 1
 851 410 l 1
 851 407 l 1
 851 404 l 1
 856 404 l 1
 860 404 l 1
 860 399 l 1
 860 395 l 1
 865 395 l 1
 870 395 l 1
 870 382 l 1
 870 369 l 1
 878 369 l 1
 886 369 l 1
 886 357 l 1
 886 344 l 1
 890 344 l 1
 895 344 l 1
 895 341 l 1
 895 338 l 1
 890 338 l 1
 886 338 l 1
 886 341 l 1
 886 344 l 1
 873 344 l 1
 860 344 l 1
 860 341 l 1
 860 338 l 1
 873 338 l 1
 886 338 l 1
 886 325 l 1
 886 313 l 1
 881 313 l 1
 877 313 l 1
 877 308 l 1
 877 303 l 1
 886 303 l 1
 895 303 l 1
 895 320 l 1
 895 338 l 1
 898 338 l 1
 901 338 l 1
 901 346 l 1
 901 354 l 1
 906 354 l 1
 911 354 l 1
 911 341 l 1
 911 328 l 1
 906 328 l 1
 901 328 l 1
 901 320 l 1
 901 313 l 1
 919 313 l 1
 936 313 l 1
 943 313 l 1
 943 297 l 1
 952 297 l 1
 952 284 l 1
 952 271 l 1
 947 271 l 1
 942 271 l 1
 942 275 l 1
 942 278 l 1
 935 278 l 1
 927 278 l 1
 927 275 l 1
 927 271 l 1
 922 271 l 1
 917 271 l 1
 917 267 l 1
 917 262 l 1
 909 262 l 1
 901 262 l 1
 901 267 l 1
 901 271 l 1
 910 271 l 1
 910 284 l 1
 910 287 l 1
 908 287 l 1
 905 287 l 1
 905 283 l 1
 905 278 l 1
 901 278 l 1
 895 278 l 1
 895 269 l 1
 895 261 l 1
 895 253 l 1
 906 253 l 1
 917 253 l 1
 917 249 l 1
 917 246 l 1
 922 246 l 1
 927 246 l 1
 927 241 l 1
 927 237 l 1
 914 237 l 1
 901 237 l 1
 901 232 l 1
 901 227 l 1
 906 227 l 1
 911 227 l 1
 911 224 l 1
 911 221 l 1
 906 221 l 1
 901 221 l 1
 901 218 l 1
 901 204 l 1
 871 204 l 1
 871 227 l 1
 878 227 l 1
 886 227 l 1
 886 224 l 1
 886 221 l 1
 890 221 l 1
 895 221 l 1
 895 229 l 1
 895 237 l 1
 886 237 l 1
 876 237 l 1
 876 241 l 1
 876 246 l 1
 873 246 l 1
 871 246 l 1
 871 237 l 1
 871 227 l 1
 865 227 l 1
 860 227 l 1
 860 207 l 1
 860 186 l 1
 852 186 l 1
 845 186 l 1
 845 183 l 1
 845 180 l 1
 840 180 l 1
 835 180 l 1
 835 188 l 1
 835 196 l 1
 830 196 l 1
 826 196 l 1
 826 200 l 1
 826 205 l 1
 815 205 l 1
 803 205 l 1
 803 196 l 1
 803 186 l 1
 799 186 l 1
 794 186 l 1
 794 183 l 1
 794 180 l 1
 802 180 l 1
 810 180 l 1
 810 170 l 1
 810 161 l 1
 797 161 l 1
 785 161 l 1
 785 166 l 1
 785 170 l 1
 781 170 l 1
 778 170 l 1
 778 166 l 1
 778 161 l 1
 773 161 l 1
 769 161 l 1
 769 158 l 1
 769 155 l 1
 764 155 l 1
 759 155 l 1
 759 150 l 1
 759 145 l 1
 748 145 l 1
 737 145 l 1
 737 150 l 1
 737 155 l 1
 732 155 l 1
 728 155 l 1
 728 150 l 1
 728 145 l 1
 710 145 l 1
 693 145 l 1
 693 137 l 1
 693 129 l 1
 698 129 l 1
 702 129 l 1
 702 132 l 1
 702 136 l 1
 706 136 l 1
 718 136 l 1
 718 123 l 1
 718 120 l 1
 715 120 l 1
 712 120 l 1
 712 125 l 1
 712 129 l 1
 707 129 l 1
 702 129 l 1
 702 121 l 1
 702 114 l 1
 698 114 l 1
 693 114 l 1
 693 109 l 1
 693 104 l 1
 698 104 l 1
 702 104 l 1
 702 96 l 1
 702 88 l 1
 698 88 l 1
 693 88 l 1
 693 96 l 1
 693 104 l 1
 690 104 l 1
 687 104 l 1
 687 117 l 1
 687 129 l 1
 682 129 l 1
 677 129 l 1
 677 125 l 1
 677 120 l 1
 672 120 l 1
 668 120 l 1
 668 99 l 1
 668 79 l 1
 665 79 l 1
 661 79 l 1
 661 87 l 1
 661 95 l 1
 644 95 l 1
 627 95 l 1
 627 91 l 1
 627 88 l 1
 619 88 l 1
 611 88 l 1
 611 84 l 1
 611 79 l 1
 603 79 l 1
 595 79 l 1
 595 84 l 1
 595 88 l 1
 582 88 l 1
 570 88 l 1
 570 91 l 1
 570 95 l 1
 565 95 l 1
 560 95 l 1
 560 99 l 1
 560 104 l 1
 557 104 l 1
 554 104 l 1
 554 112 l 1
 554 120 l 1
 549 120 l 1
 544 120 l 1
 544 117 l 1
 544 114 l 1
 540 114 l 1
 535 114 l 1
 535 109 l 1
 535 104 l 1
 532 104 l 1
 529 104 l 1
 529 99 l 1
 529 95 l 1
 516 95 l 1
 503 95 l 1
 503 91 l 1
 503 88 l 1
 544 88 l 1
 544 84 l 1
 544 79 l 1
 549 79 l 1
 554 79 l 1
 554 74 l 1
 554 69 l 1
 549 69 l 1
 544 69 l 1
 544 66 l 1
 544 63 l 1
 537 63 l 1
 529 63 l 1
 529 66 l 1
 529 69 l 1
 537 69 l 1
 544 69 l 1
 544 74 l 1
 544 79 l 1
 532 79 l 1
 519 79 l 1
 519 74 l 1
 519 69 l 1
 514 69 l 1
 510 69 l 1
 510 74 l 1
 510 79 l 1
 502 79 l 1
 494 79 l 1
 494 74 l 1
 494 69 l 1
 491 69 l 1
 488 69 l 1
 488 74 l 1
 488 79 l 1
 483 79 l 1
 478 79 l 1
 478 74 l 1
 478 69 l 1
 473 69 l 1
 469 69 l 1
 469 74 l 1
 469 79 l 1
 465 79 l 1
 462 79 l 1
 462 99 l 1
 462 120 l 1
 453 120 l 1
 443 120 l 1
 443 112 l 1
 443 104 l 1
 448 104 l 1
 453 104 l 1
 453 99 l 1
 453 95 l 1
 445 95 l 1
 437 95 l 1
 437 91 l 1
 437 88 l 1
 445 88 l 1
 453 88 l 1
 453 84 l 1
 453 79 l 1
 458 79 l 1
 462 79 l 1
 462 74 l 1
 462 69 l 1
 453 69 l 1
 443 69 l 1
 443 74 l 1
 443 79 l 1
 435 79 l 1
 428 79 l 1
 428 87 l 1
 428 95 l 1
 420 95 l 1
 412 95 l 1
 412 91 l 1
 412 88 l 1
 407 88 l 1
 402 88 l 1
 402 84 l 1
 402 79 l 1
 399 79 l 1
 396 79 l 1
 396 74 l 1
 396 69 l 1
 391 69 l 1
 387 69 l 1
 387 74 l 1
 387 79 l 1
 382 79 l 1
 377 79 l 1
 377 71 l 1
 377 63 l 1
 374 63 l 1
 371 63 l 1
 371 71 l 1
352 88 m 1
 352 95 l 1
 357 95 l 1
 361 95 l 1
 361 99 l 1
 361 104 l 1
 366 104 l 1
 371 104 l 1
 371 112 l 1
 371 120 l 1
 366 120 l 1
 361 120 l 1
 361 117 l 1
 361 114 l 1
 357 114 l 1
 352 114 l 1
 352 109 l 1
 352 104 l 1
 349 104 l 1
 345 104 l 1
 345 96 l 1
 345 88 l 1
 349 88 l 1
 352 88 l 1
488 91 m 1
 488 95 l 1
 483 95 l 1
 478 95 l 1
 478 91 l 1
 478 88 l 1
 483 88 l 1
 488 88 l 1
 488 91 l 1
627 99 m 1
 627 104 l 1
 619 104 l 1
 611 104 l 1
 611 99 l 1
 611 95 l 1
 619 95 l 1
 627 95 l 1
 627 99 l 1
510 109 m 1
 510 114 l 1
 507 114 l 1
 503 114 l 1
 503 109 l 1
 503 104 l 1
 507 104 l 1
 510 104 l 1
 510 109 l 1
579 109 m 1
 579 114 l 1
 574 114 l 1
 570 114 l 1
 570 109 l 1
 570 104 l 1
 574 104 l 1
 579 104 l 1
 579 109 l 1
652 117 m 1
 652 129 l 1
 649 129 l 1
 646 129 l 1
 646 117 l 1
 646 104 l 1
 649 104 l 1
 652 104 l 1
 652 117 l 1
544 125 m 1
 544 129 l 1
 540 129 l 1
 535 129 l 1
 535 125 l 1
 535 120 l 1
 540 120 l 1
 544 120 l 1
 544 125 l 1
611 150 m 1
 611 155 l 1
 606 155 l 1
 601 155 l 1
 601 150 l 1
 601 145 l 1
 606 145 l 1
 611 145 l 1
 611 150 l 1
462 166 m 1
 462 170 l 1
 475 170 l 1
 488 170 l 1
 488 166 l 1
 488 161 l 1
 511 161 l 1
 535 161 l 1
 535 166 l 1
 535 170 l 1
 544 170 l 1
 554 170 l 1
 554 166 l 1
 554 161 l 1
 570 161 l 1
 586 161 l 1
 586 166 l 1
 586 170 l 1
 593 170 l 1
 601 170 l 1
 601 178 l 1
 601 186 l 1
 595 186 l 1
 595 180 l 1
 587 180 l 1
 579 180 l 1
 579 183 l 1
 579 186 l 1
 574 186 l 1
 570 186 l 1
 570 183 l 1
 570 180 l 1
 544 180 l 1
 519 180 l 1
 519 183 l 1
 519 186 l 1
 524 186 l 1
 529 186 l 1
 529 191 l 1
 529 196 l 1
 537 196 l 1
 544 196 l 1
 544 191 l 1
 544 186 l 1
 552 186 l 1
 560 186 l 1
 560 196 l 1
 560 205 l 1
 565 205 l 1
 570 205 l 1
 570 208 l 1
 570 211 l 1
 578 211 l 1
 586 211 l 1
 586 216 l 1
 586 221 l 1
 590 221 l 1
 595 221 l 1
 595 213 l 1
 595 205 l 1
 598 205 l 1
 601 205 l 1
 601 200 l 1
 601 196 l 1
 606 196 l 1
 611 196 l 1
 611 204 l 1
 611 211 l 1
 606 211 l 1
 601 211 l 1
 601 216 l 1
 601 221 l 1
 611 221 l 1
 620 221 l 1
 620 213 l 1
 620 205 l 1
 627 205 l 1
 627 211 l 1
 631 211 l 1
 636 211 l 1
 636 216 l 1
 636 221 l 1
 644 221 l 1
 652 221 l 1
 652 224 l 1
 652 227 l 1
 657 227 l 1
 661 227 l 1
 661 232 l 1
 661 237 l 1
 665 237 l 1
 668 237 l 1
 668 245 l 1
 668 253 l 1
 672 253 l 1
 677 253 l 1
 677 245 l 1
 677 237 l 1
 682 237 l 1
 687 237 l 1
 687 241 l 1
 687 246 l 1
 695 246 l 1
 702 246 l 1
 702 249 l 1
 702 253 l 1
 710 253 l 1
 718 253 l 1
 718 262 l 1
 718 271 l 1
 723 271 l 1
 728 271 l 1
 728 262 l 1
 728 253 l 1
 732 253 l 1
 737 253 l 1
 737 262 l 1
 737 271 l 1
 745 271 l 1
 753 271 l 1
 753 275 l 1
 753 278 l 1
 766 278 l 1
 778 278 l 1
 778 283 l 1
 778 287 l 1
 773 287 l 1
 769 287 l 1
 769 292 l 1
 769 297 l 1
 753 297 l 1
 737 297 l 1
 737 300 l 1
 737 303 l 1
 748 303 l 1
 759 303 l 1
 759 308 l 1
 759 313 l 1
 751 313 l 1
 743 313 l 1
 743 316 l 1
 743 319 l 1
 748 319 l 1
 753 319 l 1
 753 324 l 1
 753 328 l 1
 740 328 l 1
 728 328 l 1
 728 346 l 1
 728 363 l 1
 720 363 l 1
 712 363 l 1
 712 366 l 1
 712 369 l 1
 707 369 l 1
 702 369 l 1
 702 374 l 1
 702 379 l 1
 699 379 l 1
 687 379 l 1
 687 395 l 1
 682 395 l 1
 677 395 l 1
 677 390 l 1
 677 385 l 1
 672 385 l 1
 668 385 l 1
 668 395 l 1
 668 404 l 1
 661 404 l 1
 655 404 l 1
 645 404 l 1
 645 420 l 1
 633 420 l 1
 620 420 l 1
 620 425 l 1
 620 429 l 1
 611 429 l 1
 601 429 l 1
 601 433 l 1
 601 436 l 1
 586 436 l 1
 570 436 l 1
 570 445 l 1
 570 455 l 1
 565 455 l 1
 560 455 l 1
 560 450 l 1
 560 445 l 1
 532 445 l 1
 503 445 l 1
 503 450 l 1
 503 455 l 1
 483 455 l 1
 462 455 l 1
 462 445 l 1
 462 436 l 1
 458 436 l 1
 453 436 l 1
 453 440 l 1
 453 445 l 1
 440 445 l 1
 428 445 l 1
 428 440 l 1
 428 436 l 1
 420 436 l 1
 412 436 l 1
 412 433 l 1
 412 429 l 1
 407 429 l 1
 402 429 l 1
 402 433 l 2
 402 435 401 436 399 436 c 2
 396 436 l 1
 396 428 l 1
 396 420 l 1
 387 420 l 1
 377 420 l 1
 377 415 l 1
 377 410 l 1
 369 410 l 1
 361 410 l 1
 361 407 l 1
 361 404 l 1
 357 404 l 1
 352 404 l 1
 352 399 l 1
 352 395 l 1
 344 395 l 1
 336 395 l 1
 336 387 l 1
 336 379 l 1
 333 379 l 1
 330 379 l 1
 330 371 l 1
 330 363 l 1
 320 363 l 1
 311 363 l 1
 311 350 l 1
 311 338 l 1
 308 338 l 1
 304 338 l 1
 304 333 l 1
 304 328 l 1
 308 328 l 1
 311 328 l 1
 311 316 l 1
 311 303 l 1
 315 303 l 1
 320 303 l 1
 320 300 l 1
 320 297 l 1
 315 297 l 1
 311 297 l 1
 311 292 l 1
 311 287 l 1
 315 287 l 1
 320 287 l 1
 320 275 l 1
 320 262 l 1
 325 262 l 1
 330 262 l 1
 330 247 l 1
 345 247 l 1
 345 241 l 1
 345 237 l 1
 349 237 l 1
 352 237 l 1
 352 232 l 1
 352 227 l 1
 369 227 l 1
 387 227 l 1
 387 224 l 1
 387 221 l 1
 382 221 l 1
 377 221 l 1
 377 216 l 1
 377 211 l 1
 382 211 l 1
 387 211 l 1
 387 208 l 1
 387 205 l 1
 407 205 l 1
 428 205 l 1
 428 200 l 1
 428 196 l 1
 432 196 l 1
 437 196 l 1
 437 188 l 1
 437 180 l 1
 432 180 l 1
 428 180 l 1
 428 188 l 1
 428 196 l 1
 415 196 l 1
 402 196 l 1
 402 191 l 1
 402 187 l 1
 407 187 l 1
 412 187 l 1
 412 183 l 1
 412 180 l 1
 420 180 l 1
 428 180 l 1
 428 175 l 1
 428 170 l 1
 440 170 l 1
 453 170 l 1
 453 166 l 1
 453 161 l 1
 458 161 l 1
 462 161 l 1
 462 166 l 1
453 183 m 1
 453 186 l 1
 448 186 l 1
 443 186 l 1
 443 199 l 1
 443 211 l 1
 440 211 l 1
 437 211 l 1
 437 216 l 1
 437 221 l 1
 429 221 l 1
 421 221 l 1
 421 224 l 1
 421 227 l 1
 417 227 l 1
 412 227 l 1
 412 232 l 1
 412 237 l 1
 407 237 l 1
 402 237 l 1
 402 241 l 1
 402 246 l 1
 399 246 l 1
 396 246 l 1
 396 254 l 1
 396 262 l 1
 391 262 l 1
 387 262 l 1
 387 270 l 1
 387 278 l 1
 382 278 l 1
 377 278 l 1
 377 290 l 1
 377 303 l 1
 374 303 l 1
 371 303 l 1
 371 308 l 1
 371 313 l 1
 374 313 l 1
 377 313 l 1
 377 333 l 1
 377 354 l 1
 382 354 l 1
 387 354 l 1
 387 362 l 1
 387 369 l 1
 391 369 l 1
 396 369 l 1
 396 377 l 1
 396 385 l 1
 399 385 l 1
 402 385 l 1
 402 390 l 1
 402 395 l 1
 407 395 l 1
 412 395 l 1
 412 403 l 1
 412 410 l 1
 420 410 l 1
 428 410 l 1
 428 415 l 1
 428 420 l 1
 445 420 l 1
 462 420 l 1
 462 425 l 1
 462 429 l 1
 486 429 l 1
 510 429 l 1
 510 425 l 1
 510 420 l 1
 519 420 l 1
 529 420 l 1
 529 415 l 1
 529 410 l 1
 537 410 l 1
 544 410 l 1
 544 407 l 1
 544 404 l 1
 549 404 l 1
 554 404 l 1
 554 399 l 1
 554 395 l 1
 557 395 l 1
 560 395 l 1
 560 390 l 1
 560 385 l 1
 565 385 l 1
 570 385 l 1
 570 377 l 1
 570 369 l 1
 554 369 l 1
 538 369 l 1
 531 369 l 1
 531 357 l 1
 531 354 l 1
 524 354 l 1
 519 354 l 1
 519 341 l 1
 519 328 l 1
 524 328 l 1
 529 328 l 1
 529 324 l 1
 529 319 l 1
 541 319 l 1
 554 319 l 1
 554 324 l 1
 554 328 l 1
 562 328 l 1
 570 328 l 1
 570 333 l 1
 570 338 l 1
 574 338 l 1
 579 338 l 1
 579 346 l 1
 579 354 l 1
 582 354 l 1
 586 354 l 1
 586 346 l 1
 586 338 l 1
 590 338 l 1
 595 338 l 1
 595 317 l 1
 595 297 l 1
 590 297 l 1
 586 297 l 1
 586 284 l 1
 586 271 l 1
 582 271 l 1
 579 271 l 1
 579 262 l 1
 579 253 l 1
 574 253 l 1
 570 253 l 1
 570 245 l 1
 570 237 l 1
 565 237 l 1
 560 237 l 1
 560 220 l 1
 544 220 l 1
 544 213 l 1
 544 205 l 1
 527 205 l 1
 510 205 l 1
 510 200 l 1
 510 196 l 1
 507 196 l 1
 503 196 l 1
 503 200 l 1
 503 205 l 1
 483 205 l 1
 462 205 l 1
 462 200 l 1
 462 196 l 1
 458 196 l 1
 453 196 l 1
 453 191 l 1
 453 186 l 1
 458 186 l 1
 462 186 l 1
 462 191 l 1
 462 196 l 1
 470 196 l 1
 478 196 l 1
 478 191 l 1
 478 186 l 1
 473 186 l 1
 469 186 l 1
 469 183 l 1
 469 180 l 1
 461 180 l 1
 453 180 l 1
 453 183 l 1
494 183 m 1
 494 186 l 1
 499 186 l 1
 503 186 l 1
 503 183 l 1
 503 180 l 1
 499 180 l 1
 494 180 l 1
 494 183 l 1
627 175 m 1
 627 180 l 1
 619 180 l 1
 611 180 l 1
 611 175 l 1
 611 170 l 1
 619 170 l 1
 627 170 l 1
 627 175 l 1
636 191 m 1
 636 196 l 1
 631 196 l 1
 627 196 l 1
 627 191 l 1
 627 186 l 1
 631 186 l 1
 636 186 l 1
 636 191 l 1
778 191 m 1
 778 196 l 1
 773 196 l 1
 769 196 l 1
 769 191 l 1
 769 186 l 1
 773 186 l 1
 778 186 l 1
 778 191 l 1
693 200 m 1
 693 205 l 1
 698 205 l 1
 702 205 l 1
 702 208 l 1
 702 211 l 1
 687 211 l 1
 687 196 l 1
 690 196 l 1
 693 196 l 1
 693 200 l 1
737 208 m 1
 737 211 l 1
 728 211 l 1
 718 211 l 1
 718 208 l 1
 718 205 l 1
 728 205 l 1
 737 205 l 1
 737 208 l 1
851 208 m 1
 851 211 l 1
 843 211 l 1
 835 211 l 1
 835 208 l 1
 835 205 l 1
 843 205 l 1
 851 205 l 1
 851 208 l 1
824 228 m 1
 810 228 l 1
 810 219 l 1
 810 211 l 1
 818 211 l 1
 824 211 l 1
 824 228 l 1
753 224 m 1
 753 227 l 1
 745 227 l 1
 737 227 l 1
 737 224 l 1
 737 221 l 1
 745 221 l 1
 753 221 l 1
 753 224 l 1
778 229 m 1
 778 237 l 1
 773 237 l 1
 769 237 l 1
 769 241 l 1
 769 246 l 1
 777 246 l 1
 785 246 l 1
 785 237 l 1
 785 227 l 1
 789 227 l 1
 794 227 l 1
 794 237 l 1
 794 246 l 1
 789 246 l 1
 785 246 l 1
 785 254 l 1
 785 262 l 1
 789 262 l 1
 794 262 l 1
 794 267 l 1
 794 271 l 1
 781 271 l 1
 769 271 l 1
 769 267 l 1
 769 262 l 1
 773 262 l 1
 778 262 l 1
 778 257 l 1
 778 253 l 1
 773 253 l 1
 769 253 l 1
 769 249 l 1
 769 246 l 1
 764 246 l 1
 759 246 l 1
 759 249 l 1
 759 253 l 1
 751 253 l 1
 743 253 l 1
 743 249 l 1
 743 246 l 1
 751 246 l 1
 759 246 l 1
 759 234 l 1
 759 221 l 1
 769 221 l 1
 778 221 l 1
 778 229 l 1
712 241 m 1
 712 246 l 1
 707 246 l 1
 702 246 l 1
 702 241 l 1
 702 237 l 1
 707 237 l 1
 712 237 l 1
 712 241 l 1
819 245 m 1
 819 253 l 1
 815 253 l 1
 810 253 l 1
 810 245 l 1
 810 237 l 1
 815 237 l 1
 819 237 l 1
 819 245 l 1
870 257 m 1
 870 262 l 1
 860 262 l 1
 851 262 l 1
 851 257 l 1
 851 253 l 1
 860 253 l 1
 870 253 l 1
 870 257 l 1
304 283 m 1
 304 287 l 1
 300 287 l 1
 295 287 l 1
 295 283 l 1
 295 278 l 1
 300 278 l 1
 304 278 l 1
 304 283 l 1
936 295 m 1
 936 303 l 1
 931 303 l 1
 927 303 l 1
 927 295 l 1
 927 287 l 1
 931 287 l 1
 936 287 l 1
 936 295 l 1
860 316 m 1
 860 319 l 1
 852 319 l 1
 845 319 l 1
 845 316 l 1
 845 313 l 1
 852 313 l 1
 860 313 l 1
 860 316 l 1
794 333 m 1
 794 338 l 1
 789 338 l 1
 785 338 l 1
 785 333 l 1
 785 328 l 1
 789 328 l 1
 794 328 l 1
 794 333 l 1
845 341 m 1
 845 344 l 1
 840 344 l 1
 835 344 l 1
 835 341 l 1
 835 338 l 1
 840 338 l 1
 845 338 l 1
 845 341 l 1
876 358 m 1
 876 363 l 1
 864 363 l 1
 851 363 l 1
 851 358 l 1
 851 354 l 1
 864 354 l 1
 876 354 l 1
 876 358 l 1
819 366 m 1
 819 369 l 1
 815 369 l 1
 810 369 l 1
 810 366 l 1
 810 363 l 1
 815 363 l 1
 819 363 l 1
 819 366 l 1
737 374 m 1
 737 379 l 1
 740 379 l 1
 743 379 l 1
 743 374 l 1
 743 369 l 1
 751 369 l 1
 759 369 l 1
 759 384 l 1
 743 384 l 1
 743 390 l 1
 743 395 l 1
 740 395 l 1
 737 395 l 1
 737 390 l 1
 737 385 l 1
 732 385 l 1
 728 385 l 1
 728 377 l 1
 728 369 l 1
 732 369 l 1
 737 369 l 1
 737 374 l 1
835 374 m 1
 835 379 l 1
 840 379 l 1
 845 379 l 1
 845 392 l 1
 845 404 l 1
 840 404 l 1
 835 404 l 1
 835 399 l 1
 835 395 l 1
 830 395 l 1
 826 395 l 1
 826 382 l 1
 826 369 l 1
 830 369 l 1
 835 369 l 1
 835 374 l 1
718 390 m 1
 718 395 l 1
 723 395 l 1
 728 395 l 1
 728 399 l 1
 728 404 l 1
 714 404 l 1
 714 420 l 1
 707 420 l 1
 702 420 l 1
 702 425 l 1
 702 429 l 1
 698 429 l 1
 693 429 l 1
 693 425 l 1
 693 420 l 1
 690 420 l 1
 687 420 l 1
 687 425 l 1
 687 429 l 1
 674 429 l 1
 661 429 l 1
 661 425 l 1
 661 420 l 1
 669 420 l 1
 677 420 l 1
 677 415 l 1
 677 410 l 1
 685 410 l 1
 693 410 l 1
 693 407 l 1
 693 404 l 1
 698 404 l 1
 702 404 l 1
 702 395 l 1
 702 385 l 1
 710 385 l 1
 718 385 l 1
 718 390 l 1
803 390 m 1
 803 395 l 1
 799 395 l 1
 794 395 l 1
 794 390 l 1
 794 385 l 1
 799 385 l 1
 803 385 l 1
 803 390 l 1
860 390 m 1
 860 395 l 1
 856 395 l 1
 851 395 l 1
 851 390 l 1
 851 385 l 1
 856 385 l 1
 860 385 l 1
 860 390 l 1
778 415 m 1
 778 420 l 1
 773 420 l 1
 769 420 l 1
 769 415 l 1
 769 410 l 1
 773 410 l 1
 778 410 l 1
 778 415 l 1
759 425 m 1
 759 429 l 1
 756 429 l 1
 753 429 l 1
 753 425 l 1
 753 420 l 1
 756 420 l 1
 759 420 l 1
 759 425 l 1
646 440 m 1
 646 445 l 1
 653 445 l 1
 661 445 l 1
 661 440 l 1
 661 436 l 1
 665 436 l 1
 668 436 l 1
 668 440 l 1
 668 445 l 1
 665 445 l 1
 661 445 l 1
 661 450 l 1
 661 455 l 1
 653 455 l 1
 646 455 l 1
 646 458 l 1
 646 461 l 1
 636 461 l 1
 627 461 l 1
 627 466 l 1
 627 470 l 1
 619 470 l 1
 611 470 l 1
 611 474 l 1
 611 477 l 1
 606 477 l 1
 601 477 l 1
 601 474 l 1
 601 470 l 1
 590 470 l 1
 579 470 l 1
 579 474 l 1
 579 477 l 1
 574 477 l 1
 570 477 l 1
 570 469 l 1
 570 461 l 1
 582 461 l 1
 595 461 l 1
 595 458 l 1
 595 455 l 1
 603 455 l 1
 611 455 l 1
 611 450 l 1
 611 445 l 1
 616 445 l 1
 620 445 l 1
 620 450 l 1
 620 455 l 1
 623 455 l 1
 627 455 l 1
 627 450 l 1
 627 445 l 1
 631 445 l 1
 636 445 l 1
 636 440 l 1
 636 436 l 1
 641 436 l 1
 646 436 l 1
 646 440 l 1
718 445 m 1
 718 455 l 1
 715 455 l 1
 712 455 l 1
 712 445 l 1
 712 436 l 1
 715 436 l 1
 718 436 l 1
 718 445 l 1
759 440 m 1
 759 445 l 1
 756 445 l 1
 753 445 l 1
 753 440 l 1
 753 436 l 1
 756 436 l 1
 759 436 l 1
 759 440 l 1
421 463 m 1
 421 470 l 1
 417 470 l 1
 412 470 l 1
 412 463 l 1
 412 455 l 1
 417 455 l 1
 421 455 l 1
 421 463 l 1
402 466 m 1
 402 470 l 1
 399 470 l 1
 396 470 l 1
 396 466 l 1
 396 461 l 1
 399 461 l 1
 402 461 l 1
 402 466 l 1
443 465 m 1
 443 470 l 1
 443 477 l 1
 443 482 l 1
 443 486 l 1
 440 486 l 1
 437 486 l 1
 437 482 l 1
 437 477 l 1
 432 477 l 1
 428 477 l 1
 428 474 l 1
 428 470 l 1
 432 470 l 1
 437 470 l 1
 437 466 l 1
 437 461 l 1
 440 461 l 1
 443 461 l 1
 443 465 l 1
488 474 m 1
 488 486 l 1
 478 486 l 1
 469 486 l 1
 469 482 l 1
 469 477 l 1
 461 477 l 1
 453 477 l 1
 453 469 l 1
 453 461 l 1
 470 461 l 1
 488 461 l 1
 488 474 l 1
519 466 m 1
 519 470 l 1
 514 470 l 1
 510 470 l 1
 510 466 l 1
 510 461 l 1
 514 461 l 1
 519 461 l 1
 519 466 l 1
560 464 m 1
 560 476 l 1
 551 476 l 1
 540 476 l 1
 529 476 l 1
 529 471 l 1
 535 471 l 1
 535 466 l 1
 535 461 l 1
 548 461 l 1
 560 461 l 1
 560 464 l 1
687 466 m 1
 687 470 l 1
 682 470 l 1
 677 470 l 1
 677 466 l 1
 677 461 l 1
 682 461 l 1
 687 461 l 1
 687 466 l 1
535 491 m 1
 535 496 l 1
 532 496 l 1
 529 496 l 1
 529 491 l 1
 529 486 l 1
 532 486 l 1
 535 486 l 1
 535 491 l 1
519 499 m 1
 519 502 l 1
 514 502 l 1
 510 502 l 1
 510 507 l 1
 510 512 l 1
 514 512 l 1
 519 512 l 1
 519 516 l 1
 519 521 l 1
 511 521 l 1
 503 521 l 1
 503 516 l 1
 503 512 l 1
 499 512 l 1
 494 512 l 1
 494 507 l 1
 494 502 l 1
 502 502 l 1
 510 502 l 1
 510 499 l 1
 510 496 l 1
 514 496 l 1
 519 496 l 1
 519 499 l 1
377 507 m 1
 377 512 l 1
 374 512 l 1
 371 512 l 1
 371 507 l 1
 371 502 l 1
 374 502 l 1
 377 502 l 1
 377 507 l 1
535 507 m 1
 535 512 l 1
 532 512 l 1
 529 512 l 1
 529 507 l 1
 529 502 l 1
 532 502 l 1
 535 502 l 1
 535 507 l 1
295 516 m 1
 295 521 l 1
 290 521 l 1
 286 521 l 1
 286 525 l 1
 286 529 l 1
 278 529 l 1
 278 523 l 1
 281 523 l 1
 286 523 l 1
 286 516 l 1
 286 512 l 1
 290 512 l 1
 295 512 l 1
 295 516 l 1
336 516 m 1
 336 521 l 1
 333 521 l 1
 330 521 l 1
 330 516 l 1
 330 512 l 1
 333 512 l 1
 336 512 l 1
 336 516 l 1
469 516 m 1
 469 521 l 1
 465 521 l 1
 462 521 l 1
 462 516 l 1
 462 512 l 1
 465 512 l 1
 469 512 l 1
 469 516 l 1
320 524 m 1
 320 527 l 1
 328 527 l 1
 336 527 l 1
 336 532 l 1
 336 537 l 1
 333 537 l 1
 330 537 l 1
 330 542 l 1
 330 546 l 1
 345 546 l 1
 361 546 l 1
 361 542 l 1
 361 537 l 1
 353 537 l 1
 345 537 l 1
 345 532 l 1
 345 527 l 1
 358 527 l 1
 371 527 l 1
 371 532 l 1
 371 537 l 1
 374 537 l 1
 377 537 l 1
 377 542 l 1
 377 546 l 1
 369 546 l 1
 361 546 l 1
 361 549 l 1
 361 553 l 1
 357 553 l 1
 352 553 l 1
 352 557 l 1
 352 562 l 1
 349 562 l 1
 345 562 l 1
 345 557 l 1
 345 553 l 1
 333 553 l 1
 320 553 l 1
 320 549 l 1
 320 546 l 1
 303 546 l 1
 285 546 l 1
 285 542 l 1
 285 537 l 1
 290 537 l 1
 295 537 l 1
 295 532 l 1
 295 527 l 1
 300 527 l 1
 304 527 l 1
 304 532 l 1
 304 537 l 1
 308 537 l 1
 311 537 l 1
 311 529 l 1
 311 521 l 1
 315 521 l 1
 320 521 l 1
 320 524 l 1
387 532 m 1
 387 537 l 1
 382 537 l 1
 377 537 l 1
 377 532 l 1
 377 527 l 1
 382 527 l 1
 387 527 l 1
 387 532 l 1
412 542 m 1
 412 546 l 1
 404 546 l 1
 396 546 l 1
 396 542 l 1
 396 537 l 1
 404 537 l 1
 412 537 l 1
 412 542 l 1
437 542 m 1
 437 546 l 1
 432 546 l 1
 428 546 l 1
 428 553 l 1
 421 553 l 1
 421 545 l 1
 421 537 l 1
 429 537 l 1
 437 537 l 1
 437 542 l 1
263 557 m 1
 263 562 l 1
 259 562 l 1
 254 562 l 1
 254 557 l 1
 254 553 l 1
 259 553 l 1
 263 553 l 1
 263 557 l 1
311 570 m 1
 311 578 l 1
 308 578 l 1
 304 578 l 1
 304 573 l 1
 304 568 l 1
 300 568 l 1
 295 568 l 1
 295 565 l 1
 295 562 l 1
 303 562 l 1
 311 562 l 1
 311 570 l 1
330 565 m 1
 330 568 l 1
 325 568 l 1
 320 568 l 1
 320 565 l 1
 320 562 l 1
 325 562 l 1
 330 562 l 1
 330 565 l 1
361 598 m 1
 361 603 l 1
 357 603 l 1
 352 603 l 1
 352 598 l 1
 352 594 l 1
 357 594 l 1
 361 594 l 1
 361 598 l 1
595 66 m 1
 595 69 l 1
 603 69 l 1
 611 69 l 1
 611 66 l 1
 611 63 l 1
 603 63 l 1
 595 63 l 1
 595 66 l 1
627 66 m 1
 627 69 l 1
 631 69 l 1
 636 69 l 1
 636 66 l 1
 636 63 l 1
 631 63 l 1
 627 63 l 1
 627 66 l 1
402 74 m 1
 402 79 l 1
 407 79 l 1
 412 79 l 1
 412 74 l 1
 412 69 l 1
 407 69 l 1
 402 69 l 1
 402 74 l 1
544 99 m 1
 544 104 l 1
 549 104 l 1
 554 104 l 1
 554 99 l 1
 554 95 l 1
 549 95 l 1
 544 95 l 1
 544 99 l 1
728 128 m 1
 728 136 l 1
 748 136 l 1
 753 136 l 1
 753 132 l 1
 753 129 l 1
 748 129 l 1
 743 129 l 1
 743 125 l 1
 743 120 l 1
 736 120 l 1
 728 120 l 1
 728 128 l 1
769 150 m 1
 769 155 l 1
 773 155 l 1
 778 155 l 1
 778 150 l 1
 778 145 l 1
 773 145 l 1
 769 145 l 1
 769 150 l 1
819 186 m 1
 815 186 l 1
 810 186 l 1
 810 191 l 1
 810 196 l 1
 815 196 l 1
 819 196 l 1
 819 191 l 1
 819 186 l 1
45 208 m 1
 45 211 l 1
 50 211 l 1
 55 211 l 1
 55 208 l 1
 55 205 l 1
 50 205 l 1
 45 205 l 1
 45 208 l 1
942 257 m 1
 942 262 l 1
 947 262 l 1
 952 262 l 1
 952 257 l 1
 952 253 l 1
 947 253 l 1
 942 253 l 1
 942 257 l 1
927 267 m 1
 927 271 l 1
 931 271 l 1
 936 271 l 1
 936 267 l 1
 936 262 l 1
 931 262 l 1
 927 262 l 1
 927 267 l 1
977 283 m 1
 977 287 l 1
 980 287 l 1
 984 287 l 1
 984 283 l 1
 984 278 l 1
 980 278 l 1
 977 278 l 1
 977 283 l 1
917 341 m 1
 917 344 l 1
 922 344 l 1
 927 344 l 1
 927 349 l 1
 927 354 l 1
 931 354 l 1
 936 354 l 1
 936 349 l 1
 936 344 l 1
 931 344 l 1
 927 344 l 1
 927 341 l 1
 927 338 l 1
 922 338 l 1
 917 338 l 1
 917 341 l 1
917 366 m 1
 917 369 l 1
 922 369 l 1
 927 369 l 1
 927 366 l 1
 927 363 l 1
 922 363 l 1
 917 363 l 1
 917 366 l 1
810 440 m 1
 810 445 l 1
 815 445 l 1
 819 445 l 1
 819 440 l 1
 819 436 l 1
 815 436 l 1
 810 436 l 1
 810 440 l 1
718 491 m 1
 718 496 l 1
 723 496 l 1
 728 496 l 1
 728 491 l 1
 728 486 l 1
 723 486 l 1
 718 486 l 1
 718 491 l 1
387 616 m 1
 387 619 l 1
 382 619 l 1
 377 619 l 1
 377 624 l 1
 377 628 l 1
 387 628 l 1
 396 628 l 1
 396 633 l 1
 396 638 l 1
 409 638 l 1
 421 638 l 1
 421 633 l 1
 421 628 l 1
 424 628 l 1
 428 628 l 1
 428 633 l 1
 428 638 l 1
 432 638 l 1
 437 638 l 1
 437 633 l 1
 437 628 l 1
 432 628 l 1
 428 628 l 1
 428 624 l 1
 428 619 l 1
 424 619 l 1
 421 619 l 1
 421 624 l 1
 421 628 l 1
 412 628 l 1
 402 628 l 1
 402 621 l 1
 402 613 l 1
 394 613 l 1
 387 613 l 1
 387 616 l 1
453 616 m 1
 453 619 l 1
 458 619 l 1
 462 619 l 1
 462 616 l 1
 462 613 l 1
 458 613 l 1
 453 613 l 1
 453 616 l 1
EndSplineSet
Validated: 133
EndChar

StartChar: l
Encoding: 108 108 75
Width: 605
Flags: HW
LayerCount: 2
Fore
SplineSet
464 0 m 1
 394 0 l 1
 84 739 l 1
 154 739 l 1
 464 0 l 1
EndSplineSet
Validated: 1
EndChar

StartChar: m
Encoding: 109 109 76
Width: 954
Flags: HW
LayerCount: 2
Fore
SplineSet
90 469 m 1
 306 835 l 1
 798 620 l 1
 834 403 l 1
 749 163 l 1
 374 -88 l 1
 209 -56 l 1
 90 469 l 1
144 460 m 1
 251 -13 l 1
 364 -35 l 1
 708 195 l 1
 783 407 l 1
 753 585 l 1
 327 771 l 1
 144 460 l 1
EndSplineSet
Validated: 1
EndChar

